<ttFont>
    <TTGlyph name=".notdef" xMin="50" yMin="0" xMax="450" yMax="533">
      <contour>
        <pt x="50" y="0" on="1"/>
        <pt x="50" y="533" on="1"/>
        <pt x="450" y="533" on="1"/>
        <pt x="450" y="0" on="1"/>
      </contour>
      <contour>
        <pt x="100" y="50" on="1"/>
        <pt x="400" y="50" on="1"/>
        <pt x="400" y="483" on="1"/>
        <pt x="100" y="483" on="1"/>
      </contour>
    </TTGlyph>
    <TTGlyph name="A" xMin="1" yMin="0" xMax="576" yMax="682">
      <contour>
        <pt x="328" y="680" on="1"/>
        <pt x="576" y="0" on="1"/>
        <pt x="496" y="0" on="1"/>
        <pt x="426" y="191" on="1"/>
        <pt x="150" y="191" on="1"/>
        <pt x="81" y="0" on="1"/>
        <pt x="1" y="0" on="1"/>
        <pt x="248" y="680" on="1"/>
        <pt x="248" y="682" on="1"/>
        <pt x="329" y="682" on="1"/>
      </contour>
      <contour>
        <pt x="288" y="570" on="1"/>
        <pt x="173" y="253" on="1"/>
        <pt x="404" y="253" on="1"/>
      </contour>
    </TTGlyph>
    <TTGlyph name="AE" xMin="-20" yMin="0" xMax="733" yMax="682">
      <contour>
        <pt x="163" y="191" on="1"/>
        <pt x="60" y="0" on="1"/>
        <pt x="-20" y="0" on="1"/>
        <pt x="348" y="680" on="1"/>
        <pt x="348" y="682" on="1"/>
        <pt x="730" y="682" on="1"/>
        <pt x="730" y="619" on="1"/>
        <pt x="422" y="619" on="1"/>
        <pt x="422" y="401" on="1"/>
        <pt x="662" y="401" on="1"/>
        <pt x="662" y="340" on="1"/>
        <pt x="422" y="340" on="1"/>
        <pt x="422" y="62" on="1"/>
        <pt x="733" y="62" on="1"/>
        <pt x="733" y="0" on="1"/>
        <pt x="348" y="0" on="1"/>
        <pt x="348" y="191" on="1"/>
      </contour>
      <contour>
        <pt x="197" y="253" on="1"/>
        <pt x="348" y="253" on="1"/>
        <pt x="348" y="532" on="1"/>
      </contour>
    </TTGlyph>
    <TTGlyph name="AEacute" xMin="-20" yMin="0" xMax="733" yMax="901">
      <component glyphName="uni02CA" x="356" y="159" flags="0x1004"/>
      <component glyphName="AE" x="0" y="0" flags="0x1204"/>
    </TTGlyph>
    <TTGlyph name="Aacute" xMin="1" yMin="0" xMax="576" yMax="900">
      <component glyphName="uni02CA" x="150" y="158" flags="0x1004"/>
      <component glyphName="A" x="0" y="0" flags="0x1204"/>
    </TTGlyph>
    <TTGlyph name="Abreve" xMin="1" yMin="0" xMax="576" yMax="856">
      <component glyphName="uni0306" x="599" y="158" flags="0x1004"/>
      <component glyphName="A" x="0" y="0" flags="0x1204"/>
    </TTGlyph>
    <TTGlyph name="Acircumflex" xMin="1" yMin="0" xMax="576" yMax="883">
      <component glyphName="circumflex" x="93" y="158" flags="0x1004"/>
      <component glyphName="A" x="0" y="0" flags="0x1204"/>
    </TTGlyph>
    <TTGlyph name="Adieresis" xMin="1" yMin="0" xMax="576" yMax="825">
      <component glyphName="dieresis" x="78" y="158" flags="0x1004"/>
      <component glyphName="A" x="0" y="0" flags="0x1204"/>
    </TTGlyph>
    <TTGlyph name="Agrave" xMin="1" yMin="0" xMax="576" yMax="900">
      <component glyphName="uni02CB" x="57" y="158" flags="0x1004"/>
      <component glyphName="A" x="0" y="0" flags="0x1204"/>
    </TTGlyph>
    <TTGlyph name="Alpha" xMin="1" yMin="0" xMax="576" yMax="682">
      <component glyphName="A" x="0" y="0" flags="0x1004"/>
    </TTGlyph>
    <TTGlyph name="Alphatonos" xMin="20" yMin="0" xMax="595" yMax="805">
      <contour>
        <pt x="55" y="616" on="1"/>
        <pt x="144" y="805" on="1"/>
        <pt x="205" y="776" on="1"/>
        <pt x="90" y="600" on="1"/>
      </contour>
      <contour>
        <pt x="347" y="680" on="1"/>
        <pt x="595" y="0" on="1"/>
        <pt x="515" y="0" on="1"/>
        <pt x="445" y="191" on="1"/>
        <pt x="169" y="191" on="1"/>
        <pt x="100" y="0" on="1"/>
        <pt x="20" y="0" on="1"/>
        <pt x="267" y="680" on="1"/>
        <pt x="267" y="682" on="1"/>
        <pt x="348" y="682" on="1"/>
      </contour>
      <contour>
        <pt x="307" y="570" on="1"/>
        <pt x="192" y="253" on="1"/>
        <pt x="423" y="253" on="1"/>
      </contour>
    </TTGlyph>
    <TTGlyph name="Amacron" xMin="1" yMin="0" xMax="576" yMax="789">
      <component glyphName="uni0304" x="606" y="158" flags="0x1004"/>
      <component glyphName="A" x="0" y="0" flags="0x1204"/>
    </TTGlyph>
    <TTGlyph name="Aogonek" xMin="1" yMin="-186" xMax="610" yMax="682">
      <contour>
        <pt x="512" y="0" on="1"/>
        <pt x="473" y="-13" on="0"/>
        <pt x="446" y="-42" on="0"/>
        <pt x="446" y="-82" on="1"/>
        <pt x="446" y="-150" on="0"/>
        <pt x="549" y="-150" on="1"/>
        <pt x="574" y="-150" on="0"/>
        <pt x="603" y="-144" on="1"/>
        <pt x="610" y="-170" on="1"/>
        <pt x="553" y="-186" on="0"/>
        <pt x="507" y="-186" on="1"/>
        <pt x="381" y="-186" on="0"/>
        <pt x="381" y="-91" on="1"/>
        <pt x="381" y="-3" on="0"/>
        <pt x="489" y="21" on="1"/>
        <pt x="426" y="191" on="1"/>
        <pt x="150" y="191" on="1"/>
        <pt x="81" y="0" on="1"/>
        <pt x="1" y="0" on="1"/>
        <pt x="248" y="681" on="1"/>
        <pt x="248" y="682" on="1"/>
        <pt x="329" y="682" on="1"/>
        <pt x="328" y="681" on="1"/>
        <pt x="576" y="0" on="1"/>
      </contour>
      <contour>
        <pt x="289" y="570" on="1"/>
        <pt x="173" y="253" on="1"/>
        <pt x="404" y="253" on="1"/>
      </contour>
    </TTGlyph>
    <TTGlyph name="Aring" xMin="1" yMin="0" xMax="576" yMax="917">
      <component glyphName="ring" x="130" y="158" flags="0x1004"/>
      <component glyphName="A" x="0" y="0" flags="0x1204"/>
    </TTGlyph>
    <TTGlyph name="Atilde" xMin="1" yMin="0" xMax="576" yMax="855">
      <component glyphName="tilde" x="58" y="158" flags="0x1004"/>
      <component glyphName="A" x="0" y="0" flags="0x1204"/>
    </TTGlyph>
    <TTGlyph name="B" xMin="79" yMin="0" xMax="536" yMax="682">
      <contour>
        <pt x="79" y="0" on="1"/>
        <pt x="79" y="682" on="1"/>
        <pt x="281" y="682" on="1"/>
        <pt x="369" y="682" on="0"/>
        <pt x="490" y="586" on="0"/>
        <pt x="490" y="511" on="1"/>
        <pt x="490" y="426" on="0"/>
        <pt x="415" y="377" on="1"/>
        <pt x="536" y="325" on="0"/>
        <pt x="536" y="200" on="1"/>
        <pt x="536" y="134" on="0"/>
        <pt x="464" y="41" on="0"/>
        <pt x="360" y="0" on="0"/>
        <pt x="299" y="0" on="1"/>
      </contour>
      <contour>
        <pt x="154" y="338" on="1"/>
        <pt x="154" y="62" on="1"/>
        <pt x="297" y="62" on="1"/>
        <pt x="365" y="62" on="0"/>
        <pt x="454" y="134" on="0"/>
        <pt x="454" y="266" on="0"/>
        <pt x="365" y="338" on="0"/>
        <pt x="297" y="338" on="1"/>
      </contour>
      <contour>
        <pt x="154" y="619" on="1"/>
        <pt x="154" y="401" on="1"/>
        <pt x="281" y="401" on="1"/>
        <pt x="341" y="401" on="0"/>
        <pt x="408" y="467" on="0"/>
        <pt x="408" y="555" on="0"/>
        <pt x="342" y="619" on="0"/>
        <pt x="281" y="619" on="1"/>
      </contour>
    </TTGlyph>
    <TTGlyph name="Beta" xMin="79" yMin="0" xMax="536" yMax="682">
      <component glyphName="B" x="0" y="0" flags="0x1004"/>
    </TTGlyph>
    <TTGlyph name="C" xMin="44" yMin="-16" xMax="546" yMax="697">
      <contour>
        <pt x="546" y="144" on="1"/>
        <pt x="453" y="-16" on="0"/>
        <pt x="319" y="-16" on="1"/>
        <pt x="205" y="-16" on="0"/>
        <pt x="44" y="195" on="0"/>
        <pt x="44" y="485" on="0"/>
        <pt x="205" y="697" on="0"/>
        <pt x="319" y="697" on="1"/>
        <pt x="443" y="697" on="0"/>
        <pt x="534" y="557" on="1"/>
        <pt x="475" y="515" on="1"/>
        <pt x="406" y="629" on="0"/>
        <pt x="232" y="629" on="0"/>
        <pt x="120" y="457" on="0"/>
        <pt x="120" y="223" on="0"/>
        <pt x="232" y="53" on="0"/>
        <pt x="319" y="53" on="1"/>
        <pt x="413" y="53" on="0"/>
        <pt x="481" y="179" on="1"/>
      </contour>
    </TTGlyph>
    <TTGlyph name="Cacute" xMin="44" yMin="-16" xMax="546" yMax="900">
      <component glyphName="acutecomb" x="632" y="158" flags="0x1004"/>
      <component glyphName="C" x="0" y="0" flags="0x1204"/>
    </TTGlyph>
    <TTGlyph name="Ccaron" xMin="44" yMin="-16" xMax="546" yMax="883">
      <component glyphName="uni030C" x="632" y="158" flags="0x1004"/>
      <component glyphName="C" x="0" y="0" flags="0x1204"/>
    </TTGlyph>
    <TTGlyph name="Ccedilla" xMin="45" yMin="-200" xMax="547" yMax="697">
      <contour>
        <pt x="295" y="-15" on="1"/>
        <pt x="189" y="-2" on="0"/>
        <pt x="45" y="203" on="0"/>
        <pt x="45" y="340" on="1"/>
        <pt x="45" y="485" on="0"/>
        <pt x="206" y="697" on="0"/>
        <pt x="320" y="697" on="1"/>
        <pt x="444" y="697" on="0"/>
        <pt x="535" y="557" on="1"/>
        <pt x="476" y="515" on="1"/>
        <pt x="407" y="629" on="0"/>
        <pt x="233" y="629" on="0"/>
        <pt x="121" y="457" on="0"/>
        <pt x="121" y="223" on="0"/>
        <pt x="233" y="53" on="0"/>
        <pt x="320" y="53" on="1"/>
        <pt x="414" y="53" on="0"/>
        <pt x="482" y="179" on="1"/>
        <pt x="547" y="144" on="1"/>
        <pt x="464" y="1" on="0"/>
        <pt x="346" y="-14" on="1"/>
        <pt x="319" y="-68" on="1"/>
        <pt x="373" y="-68" on="0"/>
        <pt x="427" y="-104" on="0"/>
        <pt x="427" y="-125" on="1"/>
        <pt x="427" y="-200" on="0"/>
        <pt x="222" y="-200" on="1"/>
        <pt x="222" y="-173" on="1"/>
        <pt x="271" y="-173" on="0"/>
        <pt x="361" y="-150" on="0"/>
        <pt x="361" y="-131" on="1"/>
        <pt x="361" y="-121" on="0"/>
        <pt x="347" y="-110" on="0"/>
        <pt x="300" y="-103" on="0"/>
        <pt x="254" y="-103" on="1"/>
      </contour>
    </TTGlyph>
    <TTGlyph name="Ccircumflex" xMin="44" yMin="-16" xMax="546" yMax="883">
      <component glyphName="uni0302" x="632" y="158" flags="0x1004"/>
      <component glyphName="C" x="0" y="0" flags="0x1204"/>
    </TTGlyph>
    <TTGlyph name="Cdotaccent" xMin="44" yMin="-16" xMax="546" yMax="825">
      <component glyphName="uni0307" x="632" y="158" flags="0x1004"/>
      <component glyphName="C" x="0" y="0" flags="0x1204"/>
    </TTGlyph>
    <TTGlyph name="Chi" xMin="21" yMin="0" xMax="476" yMax="682">
      <component glyphName="X" x="0" y="0" flags="0x1004"/>
    </TTGlyph>
    <TTGlyph name="D" xMin="79" yMin="0" xMax="565" yMax="682">
      <contour>
        <pt x="79" y="0" on="1"/>
        <pt x="79" y="682" on="1"/>
        <pt x="228" y="682" on="1"/>
        <pt x="294" y="682" on="0"/>
        <pt x="413" y="641" on="0"/>
        <pt x="509" y="561" on="0"/>
        <pt x="565" y="426" on="0"/>
        <pt x="565" y="254" on="0"/>
        <pt x="509" y="120" on="0"/>
        <pt x="413" y="40" on="0"/>
        <pt x="295" y="0" on="0"/>
        <pt x="228" y="0" on="1"/>
      </contour>
      <contour>
        <pt x="154" y="613" on="1"/>
        <pt x="154" y="68" on="1"/>
        <pt x="206" y="68" on="1"/>
        <pt x="340" y="68" on="0"/>
        <pt x="486" y="202" on="0"/>
        <pt x="486" y="478" on="0"/>
        <pt x="340" y="613" on="0"/>
        <pt x="206" y="613" on="1"/>
      </contour>
    </TTGlyph>
    <TTGlyph name="Dcaron" xMin="79" yMin="0" xMax="565" yMax="883">
      <component glyphName="uni030C" x="584" y="158" flags="0x1004"/>
      <component glyphName="D" x="0" y="0" flags="0x1204"/>
    </TTGlyph>
    <TTGlyph name="Dcroat" xMin="21" yMin="0" xMax="567" yMax="682">
      <component glyphName="Eth" x="0" y="0" flags="0x1004"/>
    </TTGlyph>
    <TTGlyph name="Delta" xMin="1" yMin="0" xMax="576" yMax="682">
      <contour>
        <pt x="328" y="680" on="1"/>
        <pt x="576" y="0" on="1"/>
        <pt x="1" y="0" on="1"/>
        <pt x="248" y="680" on="1"/>
        <pt x="248" y="682" on="1"/>
        <pt x="329" y="682" on="1"/>
      </contour>
      <contour>
        <pt x="288" y="570" on="1"/>
        <pt x="103" y="62" on="1"/>
        <pt x="473" y="62" on="1"/>
      </contour>
    </TTGlyph>
    <TTGlyph name="E" xMin="79" yMin="0" xMax="464" yMax="682">
      <contour>
        <pt x="79" y="0" on="1"/>
        <pt x="79" y="682" on="1"/>
        <pt x="461" y="682" on="1"/>
        <pt x="461" y="619" on="1"/>
        <pt x="154" y="619" on="1"/>
        <pt x="154" y="401" on="1"/>
        <pt x="394" y="401" on="1"/>
        <pt x="394" y="340" on="1"/>
        <pt x="154" y="340" on="1"/>
        <pt x="154" y="62" on="1"/>
        <pt x="464" y="62" on="1"/>
        <pt x="464" y="0" on="1"/>
      </contour>
    </TTGlyph>
    <TTGlyph name="Eacute" xMin="79" yMin="0" xMax="464" yMax="900">
      <component glyphName="uni02CA" x="148" y="158" flags="0x1004"/>
      <component glyphName="E" x="0" y="0" flags="0x1204"/>
    </TTGlyph>
    <TTGlyph name="Ebreve" xMin="79" yMin="0" xMax="464" yMax="856">
      <component glyphName="uni0306" x="597" y="158" flags="0x1004"/>
      <component glyphName="E" x="0" y="0" flags="0x1204"/>
    </TTGlyph>
    <TTGlyph name="Ecaron" xMin="79" yMin="0" xMax="464" yMax="883">
      <component glyphName="uni030C" x="597" y="158" flags="0x1004"/>
      <component glyphName="E" x="0" y="0" flags="0x1204"/>
    </TTGlyph>
    <TTGlyph name="Ecircumflex" xMin="79" yMin="0" xMax="464" yMax="883">
      <component glyphName="circumflex" x="91" y="158" flags="0x1004"/>
      <component glyphName="E" x="0" y="0" flags="0x1204"/>
    </TTGlyph>
    <TTGlyph name="Edieresis" xMin="79" yMin="0" xMax="464" yMax="825">
      <component glyphName="dieresis" x="76" y="158" flags="0x1004"/>
      <component glyphName="E" x="0" y="0" flags="0x1204"/>
    </TTGlyph>
    <TTGlyph name="Edotaccent" xMin="79" yMin="0" xMax="464" yMax="825">
      <component glyphName="uni0307" x="597" y="158" flags="0x1004"/>
      <component glyphName="E" x="0" y="0" flags="0x1204"/>
    </TTGlyph>
    <TTGlyph name="Egrave" xMin="79" yMin="0" xMax="464" yMax="900">
      <component glyphName="uni02CB" x="55" y="158" flags="0x1004"/>
      <component glyphName="E" x="0" y="0" flags="0x1204"/>
    </TTGlyph>
    <TTGlyph name="Emacron" xMin="79" yMin="0" xMax="464" yMax="789">
      <component glyphName="uni0304" x="597" y="158" flags="0x1004"/>
      <component glyphName="E" x="0" y="0" flags="0x1204"/>
    </TTGlyph>
    <TTGlyph name="Eng" xMin="79" yMin="0" xMax="568" yMax="697">
      <contour>
        <pt x="568" y="305" on="1"/>
        <pt x="568" y="167" on="0"/>
        <pt x="457" y="0" on="0"/>
        <pt x="350" y="0" on="1"/>
        <pt x="322" y="0" on="1"/>
        <pt x="322" y="62" on="1"/>
        <pt x="350" y="62" on="1"/>
        <pt x="414" y="62" on="0"/>
        <pt x="489" y="193" on="0"/>
        <pt x="489" y="305" on="1"/>
        <pt x="489" y="398" on="1"/>
        <pt x="489" y="500" on="0"/>
        <pt x="409" y="629" on="0"/>
        <pt x="239" y="629" on="0"/>
        <pt x="159" y="500" on="0"/>
        <pt x="159" y="398" on="1"/>
        <pt x="159" y="0" on="1"/>
        <pt x="79" y="0" on="1"/>
        <pt x="79" y="682" on="1"/>
        <pt x="154" y="682" on="1"/>
        <pt x="154" y="631" on="1"/>
        <pt x="217" y="697" on="0"/>
        <pt x="324" y="697" on="1"/>
        <pt x="439" y="697" on="0"/>
        <pt x="568" y="541" on="0"/>
        <pt x="568" y="398" on="1"/>
      </contour>
    </TTGlyph>
    <TTGlyph name="Eogonek" xMin="79" yMin="-186" xMax="501" yMax="682">
      <contour>
        <pt x="337" y="-82" on="1"/>
        <pt x="337" y="-150" on="0"/>
        <pt x="440" y="-150" on="1"/>
        <pt x="470" y="-150" on="0"/>
        <pt x="494" y="-144" on="1"/>
        <pt x="501" y="-170" on="1"/>
        <pt x="443" y="-186" on="0"/>
        <pt x="397" y="-186" on="1"/>
        <pt x="340" y="-186" on="0"/>
        <pt x="271" y="-140" on="0"/>
        <pt x="271" y="-91" on="1"/>
        <pt x="271" y="-31" on="0"/>
        <pt x="325" y="0" on="1"/>
        <pt x="79" y="0" on="1"/>
        <pt x="79" y="682" on="1"/>
        <pt x="461" y="682" on="1"/>
        <pt x="461" y="619" on="1"/>
        <pt x="154" y="619" on="1"/>
        <pt x="154" y="401" on="1"/>
        <pt x="394" y="401" on="1"/>
        <pt x="394" y="340" on="1"/>
        <pt x="154" y="340" on="1"/>
        <pt x="154" y="62" on="1"/>
        <pt x="464" y="62" on="1"/>
        <pt x="464" y="0" on="1"/>
        <pt x="403" y="0" on="1"/>
        <pt x="362" y="-13" on="0"/>
        <pt x="337" y="-46" on="0"/>
      </contour>
    </TTGlyph>
    <TTGlyph name="Epsilon" xMin="79" yMin="0" xMax="464" yMax="682">
      <component glyphName="E" x="0" y="0" flags="0x1004"/>
    </TTGlyph>
    <TTGlyph name="Epsilontonos" xMin="-11" yMin="0" xMax="558" yMax="805">
      <contour>
        <pt x="-11" y="616" on="1"/>
        <pt x="78" y="805" on="1"/>
        <pt x="139" y="776" on="1"/>
        <pt x="24" y="600" on="1"/>
      </contour>
      <contour>
        <pt x="173" y="0" on="1"/>
        <pt x="173" y="682" on="1"/>
        <pt x="555" y="682" on="1"/>
        <pt x="555" y="619" on="1"/>
        <pt x="248" y="619" on="1"/>
        <pt x="248" y="401" on="1"/>
        <pt x="488" y="401" on="1"/>
        <pt x="488" y="340" on="1"/>
        <pt x="248" y="340" on="1"/>
        <pt x="248" y="62" on="1"/>
        <pt x="558" y="62" on="1"/>
        <pt x="558" y="0" on="1"/>
      </contour>
    </TTGlyph>
    <TTGlyph name="Eta" xMin="79" yMin="0" xMax="529" yMax="682">
      <component glyphName="H" x="0" y="0" flags="0x1004"/>
    </TTGlyph>
    <TTGlyph name="Etatonos" xMin="-9" yMin="0" xMax="611" yMax="805">
      <contour>
        <pt x="161" y="0" on="1"/>
        <pt x="161" y="682" on="1"/>
        <pt x="236" y="682" on="1"/>
        <pt x="236" y="387" on="1"/>
        <pt x="536" y="387" on="1"/>
        <pt x="536" y="682" on="1"/>
        <pt x="611" y="682" on="1"/>
        <pt x="611" y="0" on="1"/>
        <pt x="536" y="0" on="1"/>
        <pt x="536" y="325" on="1"/>
        <pt x="236" y="325" on="1"/>
        <pt x="236" y="0" on="1"/>
      </contour>
      <contour>
        <pt x="-9" y="616" on="1"/>
        <pt x="80" y="805" on="1"/>
        <pt x="141" y="776" on="1"/>
        <pt x="26" y="600" on="1"/>
      </contour>
    </TTGlyph>
    <TTGlyph name="Eth" xMin="21" yMin="0" xMax="567" yMax="682">
      <contour>
        <pt x="156" y="309" on="1"/>
        <pt x="156" y="68" on="1"/>
        <pt x="208" y="68" on="1"/>
        <pt x="342" y="68" on="0"/>
        <pt x="488" y="202" on="0"/>
        <pt x="488" y="478" on="0"/>
        <pt x="342" y="613" on="0"/>
        <pt x="208" y="613" on="1"/>
        <pt x="156" y="613" on="1"/>
        <pt x="156" y="371" on="1"/>
        <pt x="283" y="371" on="1"/>
        <pt x="283" y="309" on="1"/>
      </contour>
      <contour>
        <pt x="81" y="309" on="1"/>
        <pt x="21" y="309" on="1"/>
        <pt x="21" y="371" on="1"/>
        <pt x="81" y="371" on="1"/>
        <pt x="81" y="682" on="1"/>
        <pt x="230" y="682" on="1"/>
        <pt x="296" y="682" on="0"/>
        <pt x="415" y="641" on="0"/>
        <pt x="511" y="561" on="0"/>
        <pt x="567" y="426" on="0"/>
        <pt x="567" y="254" on="0"/>
        <pt x="511" y="120" on="0"/>
        <pt x="415" y="40" on="0"/>
        <pt x="297" y="0" on="0"/>
        <pt x="230" y="0" on="1"/>
        <pt x="81" y="0" on="1"/>
      </contour>
    </TTGlyph>
    <TTGlyph name="Euro" xMin="38" yMin="-16" xMax="537" yMax="697">
      <contour>
        <pt x="537" y="144" on="1"/>
        <pt x="492" y="66" on="0"/>
        <pt x="393" y="-16" on="0"/>
        <pt x="325" y="-16" on="1"/>
        <pt x="228" y="-16" on="0"/>
        <pt x="89" y="142" on="0"/>
        <pt x="70" y="262" on="1"/>
        <pt x="38" y="262" on="1"/>
        <pt x="38" y="316" on="1"/>
        <pt x="65" y="316" on="1"/>
        <pt x="65" y="320" on="0"/>
        <pt x="64" y="336" on="0"/>
        <pt x="64" y="340" on="1"/>
        <pt x="64" y="366" on="0"/>
        <pt x="67" y="391" on="1"/>
        <pt x="38" y="391" on="1"/>
        <pt x="38" y="445" on="1"/>
        <pt x="75" y="445" on="1"/>
        <pt x="99" y="555" on="0"/>
        <pt x="234" y="697" on="0"/>
        <pt x="325" y="697" on="1"/>
        <pt x="388" y="697" on="0"/>
        <pt x="480" y="627" on="0"/>
        <pt x="525" y="557" on="1"/>
        <pt x="466" y="515" on="1"/>
        <pt x="442" y="554" on="0"/>
        <pt x="411" y="595" on="0"/>
        <pt x="357" y="629" on="0"/>
        <pt x="325" y="629" on="1"/>
        <pt x="259" y="629" on="0"/>
        <pt x="169" y="527" on="0"/>
        <pt x="151" y="445" on="1"/>
        <pt x="307" y="445" on="1"/>
        <pt x="307" y="391" on="1"/>
        <pt x="143" y="391" on="1"/>
        <pt x="140" y="366" on="0"/>
        <pt x="140" y="340" on="1"/>
        <pt x="140" y="336" on="0"/>
        <pt x="141" y="320" on="0"/>
        <pt x="141" y="316" on="1"/>
        <pt x="307" y="316" on="1"/>
        <pt x="307" y="262" on="1"/>
        <pt x="146" y="262" on="1"/>
        <pt x="161" y="170" on="0"/>
        <pt x="254" y="53" on="0"/>
        <pt x="325" y="53" on="1"/>
        <pt x="375" y="53" on="0"/>
        <pt x="438" y="116" on="0"/>
        <pt x="472" y="179" on="1"/>
      </contour>
    </TTGlyph>
    <TTGlyph name="F" xMin="79" yMin="0" xMax="461" yMax="682">
      <contour>
        <pt x="79" y="0" on="1"/>
        <pt x="79" y="682" on="1"/>
        <pt x="461" y="682" on="1"/>
        <pt x="461" y="619" on="1"/>
        <pt x="154" y="619" on="1"/>
        <pt x="154" y="401" on="1"/>
        <pt x="394" y="401" on="1"/>
        <pt x="394" y="340" on="1"/>
        <pt x="154" y="340" on="1"/>
        <pt x="154" y="0" on="1"/>
      </contour>
    </TTGlyph>
    <TTGlyph name="G" xMin="44" yMin="-16" xMax="564" yMax="697">
      <contour>
        <pt x="329" y="291" on="1"/>
        <pt x="329" y="353" on="1"/>
        <pt x="564" y="353" on="1"/>
        <pt x="564" y="291" on="1"/>
        <pt x="564" y="130" on="0"/>
        <pt x="431" y="-16" on="0"/>
        <pt x="305" y="-16" on="1"/>
        <pt x="192" y="-16" on="0"/>
        <pt x="44" y="193" on="0"/>
        <pt x="44" y="487" on="0"/>
        <pt x="202" y="697" on="0"/>
        <pt x="324" y="697" on="1"/>
        <pt x="401" y="697" on="0"/>
        <pt x="498" y="628" on="0"/>
        <pt x="544" y="557" on="1"/>
        <pt x="484" y="515" on="1"/>
        <pt x="450" y="572" on="0"/>
        <pt x="380" y="629" on="0"/>
        <pt x="324" y="629" on="1"/>
        <pt x="232" y="629" on="0"/>
        <pt x="120" y="458" on="0"/>
        <pt x="120" y="340" on="1"/>
        <pt x="120" y="221" on="0"/>
        <pt x="219" y="53" on="0"/>
        <pt x="305" y="53" on="1"/>
        <pt x="350" y="53" on="0"/>
        <pt x="409" y="69" on="0"/>
        <pt x="464" y="117" on="0"/>
        <pt x="490" y="215" on="0"/>
        <pt x="490" y="291" on="1"/>
      </contour>
    </TTGlyph>
    <TTGlyph name="Gamma" xMin="79" yMin="0" xMax="461" yMax="682">
      <contour>
        <pt x="154" y="619" on="1"/>
        <pt x="154" y="0" on="1"/>
        <pt x="79" y="0" on="1"/>
        <pt x="79" y="682" on="1"/>
        <pt x="461" y="682" on="1"/>
        <pt x="461" y="619" on="1"/>
      </contour>
    </TTGlyph>
    <TTGlyph name="Gbreve" xMin="44" yMin="-16" xMax="564" yMax="856">
      <component glyphName="uni0306" x="635" y="158" flags="0x1004"/>
      <component glyphName="G" x="0" y="0" flags="0x1204"/>
    </TTGlyph>
    <TTGlyph name="Gcaron" xMin="44" yMin="-16" xMax="564" yMax="883">
      <component glyphName="uni030C" x="632" y="158" flags="0x1004"/>
      <component glyphName="G" x="0" y="0" flags="0x1204"/>
    </TTGlyph>
    <TTGlyph name="Gcircumflex" xMin="44" yMin="-16" xMax="564" yMax="883">
      <component glyphName="uni0302" x="635" y="158" flags="0x1004"/>
      <component glyphName="G" x="0" y="0" flags="0x1204"/>
    </TTGlyph>
    <TTGlyph name="Gcommaaccent" xMin="44" yMin="-260" xMax="564" yMax="697">
      <component glyphName="uni0326" x="619" y="0" flags="0x1004"/>
      <component glyphName="G" x="0" y="0" flags="0x1204"/>
    </TTGlyph>
    <TTGlyph name="Gdotaccent" xMin="44" yMin="-16" xMax="564" yMax="825">
      <component glyphName="uni0307" x="635" y="158" flags="0x1004"/>
      <component glyphName="G" x="0" y="0" flags="0x1204"/>
    </TTGlyph>
    <TTGlyph name="H" xMin="79" yMin="0" xMax="529" yMax="682">
      <contour>
        <pt x="79" y="0" on="1"/>
        <pt x="79" y="682" on="1"/>
        <pt x="154" y="682" on="1"/>
        <pt x="154" y="387" on="1"/>
        <pt x="454" y="387" on="1"/>
        <pt x="454" y="682" on="1"/>
        <pt x="529" y="682" on="1"/>
        <pt x="529" y="0" on="1"/>
        <pt x="454" y="0" on="1"/>
        <pt x="454" y="325" on="1"/>
        <pt x="154" y="325" on="1"/>
        <pt x="154" y="0" on="1"/>
      </contour>
    </TTGlyph>
    <TTGlyph name="Hbar" xMin="36" yMin="0" xMax="574" yMax="682">
      <contour>
        <pt x="529" y="529" on="1"/>
        <pt x="529" y="0" on="1"/>
        <pt x="454" y="0" on="1"/>
        <pt x="454" y="325" on="1"/>
        <pt x="154" y="325" on="1"/>
        <pt x="154" y="0" on="1"/>
        <pt x="79" y="0" on="1"/>
        <pt x="79" y="529" on="1"/>
        <pt x="36" y="529" on="1"/>
        <pt x="36" y="567" on="1"/>
        <pt x="79" y="567" on="1"/>
        <pt x="79" y="682" on="1"/>
        <pt x="154" y="682" on="1"/>
        <pt x="154" y="567" on="1"/>
        <pt x="454" y="567" on="1"/>
        <pt x="454" y="682" on="1"/>
        <pt x="529" y="682" on="1"/>
        <pt x="529" y="567" on="1"/>
        <pt x="574" y="567" on="1"/>
        <pt x="574" y="529" on="1"/>
      </contour>
      <contour>
        <pt x="454" y="529" on="1"/>
        <pt x="154" y="529" on="1"/>
        <pt x="154" y="387" on="1"/>
        <pt x="454" y="387" on="1"/>
      </contour>
    </TTGlyph>
    <TTGlyph name="Hcircumflex" xMin="79" yMin="0" xMax="529" yMax="883">
      <component glyphName="uni0302" x="619" y="158" flags="0x1004"/>
      <component glyphName="H" x="0" y="0" flags="0x1204"/>
    </TTGlyph>
    <TTGlyph name="I" xMin="53" yMin="0" xMax="200" yMax="682">
      <contour>
        <pt x="164" y="616" on="1"/>
        <pt x="164" y="66" on="1"/>
        <pt x="200" y="66" on="1"/>
        <pt x="200" y="0" on="1"/>
        <pt x="53" y="0" on="1"/>
        <pt x="53" y="66" on="1"/>
        <pt x="89" y="66" on="1"/>
        <pt x="89" y="616" on="1"/>
        <pt x="53" y="616" on="1"/>
        <pt x="53" y="682" on="1"/>
        <pt x="200" y="682" on="1"/>
        <pt x="200" y="616" on="1"/>
      </contour>
    </TTGlyph>
    <TTGlyph name="Iacute" xMin="49" yMin="0" xMax="299" yMax="900">
      <component glyphName="uni02CA" x="-10" y="158" flags="0x1004"/>
      <component glyphName="I" x="0" y="0" flags="0x1204"/>
    </TTGlyph>
    <TTGlyph name="Ibreve" xMin="-8" yMin="0" xMax="263" yMax="856">
      <component glyphName="uni0306" x="439" y="158" flags="0x1004"/>
      <component glyphName="I" x="0" y="0" flags="0x1204"/>
    </TTGlyph>
    <TTGlyph name="Icircumflex" xMin="-9" yMin="0" xMax="262" yMax="883">
      <component glyphName="circumflex" x="-68" y="158" flags="0x1004"/>
      <component glyphName="I" x="0" y="0" flags="0x1204"/>
    </TTGlyph>
    <TTGlyph name="Idieresis" xMin="-24" yMin="0" xMax="280" yMax="825">
      <component glyphName="dieresis" x="-82" y="158" flags="0x1004"/>
      <component glyphName="I" x="0" y="0" flags="0x1204"/>
    </TTGlyph>
    <TTGlyph name="Idotaccent" xMin="53" yMin="0" xMax="200" yMax="825">
      <component glyphName="uni0307" x="439" y="158" flags="0x1004"/>
      <component glyphName="I" x="0" y="0" flags="0x1204"/>
    </TTGlyph>
    <TTGlyph name="Igrave" xMin="-44" yMin="0" xMax="206" yMax="900">
      <component glyphName="uni02CB" x="-103" y="158" flags="0x1004"/>
      <component glyphName="I" x="0" y="0" flags="0x1204"/>
    </TTGlyph>
    <TTGlyph name="Imacron" xMin="-7" yMin="0" xMax="260" yMax="789">
      <component glyphName="uni0304" x="446" y="158" flags="0x1004"/>
      <component glyphName="I" x="0" y="0" flags="0x1204"/>
    </TTGlyph>
    <TTGlyph name="Iogonek" xMin="53" yMin="-186" xMax="298" yMax="682">
      <contour>
        <pt x="134" y="-82" on="1"/>
        <pt x="134" y="-150" on="0"/>
        <pt x="237" y="-150" on="1"/>
        <pt x="267" y="-150" on="0"/>
        <pt x="291" y="-144" on="1"/>
        <pt x="298" y="-170" on="1"/>
        <pt x="240" y="-186" on="0"/>
        <pt x="194" y="-186" on="1"/>
        <pt x="137" y="-186" on="0"/>
        <pt x="68" y="-140" on="0"/>
        <pt x="68" y="-91" on="1"/>
        <pt x="68" y="-31" on="0"/>
        <pt x="123" y="0" on="1"/>
        <pt x="53" y="0" on="1"/>
        <pt x="53" y="66" on="1"/>
        <pt x="89" y="66" on="1"/>
        <pt x="89" y="616" on="1"/>
        <pt x="53" y="616" on="1"/>
        <pt x="53" y="682" on="1"/>
        <pt x="200" y="682" on="1"/>
        <pt x="200" y="616" on="1"/>
        <pt x="164" y="616" on="1"/>
        <pt x="164" y="66" on="1"/>
        <pt x="200" y="66" on="1"/>
        <pt x="200" y="0" on="1"/>
        <pt x="159" y="-13" on="0"/>
        <pt x="134" y="-46" on="0"/>
      </contour>
    </TTGlyph>
    <TTGlyph name="Iota" xMin="53" yMin="0" xMax="200" yMax="682">
      <component glyphName="I" x="0" y="0" flags="0x1004"/>
    </TTGlyph>
    <TTGlyph name="Iotadieresis" xMin="-24" yMin="0" xMax="280" yMax="825">
      <component glyphName="Idieresis" x="0" y="0" flags="0x1004"/>
    </TTGlyph>
    <TTGlyph name="Iotatonos" xMin="-10" yMin="0" xMax="329" yMax="805">
      <contour>
        <pt x="293" y="616" on="1"/>
        <pt x="293" y="66" on="1"/>
        <pt x="329" y="66" on="1"/>
        <pt x="329" y="0" on="1"/>
        <pt x="182" y="0" on="1"/>
        <pt x="182" y="66" on="1"/>
        <pt x="218" y="66" on="1"/>
        <pt x="218" y="616" on="1"/>
        <pt x="182" y="616" on="1"/>
        <pt x="182" y="682" on="1"/>
        <pt x="329" y="682" on="1"/>
        <pt x="329" y="616" on="1"/>
      </contour>
      <contour>
        <pt x="-10" y="616" on="1"/>
        <pt x="79" y="805" on="1"/>
        <pt x="140" y="776" on="1"/>
        <pt x="25" y="600" on="1"/>
      </contour>
    </TTGlyph>
    <TTGlyph name="Itilde" xMin="-43" yMin="0" xMax="300" yMax="855">
      <component glyphName="tildecomb" x="439" y="158" flags="0x1004"/>
      <component glyphName="I" x="0" y="0" flags="0x1204"/>
    </TTGlyph>
    <TTGlyph name="J" xMin="12" yMin="-16" xMax="416" yMax="682">
      <contour>
        <pt x="75" y="157" on="1"/>
        <pt x="90" y="109" on="0"/>
        <pt x="157" y="54" on="0"/>
        <pt x="203" y="54" on="1"/>
        <pt x="341" y="54" on="0"/>
        <pt x="341" y="205" on="1"/>
        <pt x="341" y="682" on="1"/>
        <pt x="416" y="682" on="1"/>
        <pt x="416" y="205" on="1"/>
        <pt x="416" y="105" on="0"/>
        <pt x="294" y="-16" on="0"/>
        <pt x="205" y="-16" on="1"/>
        <pt x="144" y="-16" on="0"/>
        <pt x="39" y="63" on="0"/>
        <pt x="12" y="127" on="1"/>
      </contour>
    </TTGlyph>
    <TTGlyph name="Jcircumflex" xMin="12" yMin="-16" xMax="516" yMax="883">
      <component glyphName="uni0302" x="692" y="158" flags="0x1004"/>
      <component glyphName="J" x="0" y="0" flags="0x1204"/>
    </TTGlyph>
    <TTGlyph name="K" xMin="79" yMin="0" xMax="531" yMax="682">
      <contour>
        <pt x="79" y="0" on="1"/>
        <pt x="79" y="682" on="1"/>
        <pt x="154" y="682" on="1"/>
        <pt x="154" y="361" on="1"/>
        <pt x="423" y="682" on="1"/>
        <pt x="520" y="682" on="1"/>
        <pt x="266" y="379" on="1"/>
        <pt x="531" y="0" on="1"/>
        <pt x="440" y="0" on="1"/>
        <pt x="216" y="320" on="1"/>
        <pt x="154" y="246" on="1"/>
        <pt x="154" y="0" on="1"/>
      </contour>
    </TTGlyph>
    <TTGlyph name="Kappa" xMin="79" yMin="0" xMax="531" yMax="682">
      <component glyphName="K" x="0" y="0" flags="0x1004"/>
    </TTGlyph>
    <TTGlyph name="Kcommaaccent" xMin="79" yMin="-260" xMax="531" yMax="682">
      <component glyphName="uni0326" x="612" y="0" flags="0x1004"/>
      <component glyphName="K" x="0" y="0" flags="0x1204"/>
    </TTGlyph>
    <TTGlyph name="L" xMin="79" yMin="0" xMax="421" yMax="682">
      <contour>
        <pt x="79" y="0" on="1"/>
        <pt x="79" y="682" on="1"/>
        <pt x="154" y="682" on="1"/>
        <pt x="154" y="62" on="1"/>
        <pt x="421" y="62" on="1"/>
        <pt x="421" y="0" on="1"/>
      </contour>
    </TTGlyph>
    <TTGlyph name="Lacute" xMin="39" yMin="0" xMax="421" yMax="900">
      <component glyphName="acutecomb" x="429" y="158" flags="0x1004"/>
      <component glyphName="L" x="0" y="0" flags="0x1204"/>
    </TTGlyph>
    <TTGlyph name="Lambda" xMin="1" yMin="0" xMax="576" yMax="682">
      <contour>
        <pt x="288" y="570" on="1"/>
        <pt x="81" y="0" on="1"/>
        <pt x="1" y="0" on="1"/>
        <pt x="248" y="680" on="1"/>
        <pt x="248" y="682" on="1"/>
        <pt x="329" y="682" on="1"/>
        <pt x="328" y="680" on="1"/>
        <pt x="576" y="0" on="1"/>
        <pt x="496" y="0" on="1"/>
      </contour>
    </TTGlyph>
    <TTGlyph name="Lcaron" xMin="79" yMin="0" xMax="421" yMax="690">
      <component glyphName="comma" x="209" y="589" flags="0x1004"/>
      <component glyphName="L" x="0" y="0" flags="0x1004"/>
    </TTGlyph>
    <TTGlyph name="Lcommaaccent" xMin="79" yMin="-259" xMax="421" yMax="682">
      <component glyphName="uni0326" x="567" y="1" flags="0x1004"/>
      <component glyphName="L" x="0" y="0" flags="0x1204"/>
    </TTGlyph>
    <TTGlyph name="Ldot" xMin="79" yMin="0" xMax="421" yMax="682">
      <component glyphName="periodcentered" x="257" y="94" flags="0x1004"/>
      <component glyphName="L" x="0" y="0" flags="0x1204"/>
    </TTGlyph>
    <TTGlyph name="Lslash" xMin="5" yMin="0" xMax="426" yMax="682">
      <contour>
        <pt x="159" y="392" on="1"/>
        <pt x="159" y="62" on="1"/>
        <pt x="426" y="62" on="1"/>
        <pt x="426" y="0" on="1"/>
        <pt x="84" y="0" on="1"/>
        <pt x="84" y="339" on="1"/>
        <pt x="28" y="300" on="1"/>
        <pt x="5" y="332" on="1"/>
        <pt x="84" y="388" on="1"/>
        <pt x="84" y="682" on="1"/>
        <pt x="159" y="682" on="1"/>
        <pt x="159" y="440" on="1"/>
        <pt x="243" y="499" on="1"/>
        <pt x="266" y="467" on="1"/>
      </contour>
    </TTGlyph>
    <TTGlyph name="M" xMin="79" yMin="0" xMax="714" yMax="682">
      <contour>
        <pt x="79" y="0" on="1"/>
        <pt x="79" y="682" on="1"/>
        <pt x="160" y="682" on="1"/>
        <pt x="397" y="99" on="1"/>
        <pt x="633" y="682" on="1"/>
        <pt x="714" y="682" on="1"/>
        <pt x="714" y="0" on="1"/>
        <pt x="640" y="0" on="1"/>
        <pt x="640" y="503" on="1"/>
        <pt x="437" y="0" on="1"/>
        <pt x="357" y="0" on="1"/>
        <pt x="154" y="502" on="1"/>
        <pt x="154" y="0" on="1"/>
      </contour>
    </TTGlyph>
    <TTGlyph name="Mu" xMin="79" yMin="0" xMax="714" yMax="682">
      <component glyphName="M" x="0" y="0" flags="0x1004"/>
    </TTGlyph>
    <TTGlyph name="N" xMin="79" yMin="0" xMax="550" yMax="682">
      <contour>
        <pt x="79" y="0" on="1"/>
        <pt x="79" y="682" on="1"/>
        <pt x="154" y="682" on="1"/>
        <pt x="476" y="123" on="1"/>
        <pt x="476" y="682" on="1"/>
        <pt x="550" y="682" on="1"/>
        <pt x="550" y="0" on="1"/>
        <pt x="476" y="0" on="1"/>
        <pt x="154" y="557" on="1"/>
        <pt x="154" y="0" on="1"/>
      </contour>
    </TTGlyph>
    <TTGlyph name="Nacute" xMin="79" yMin="0" xMax="550" yMax="900">
      <component glyphName="acutecomb" x="631" y="158" flags="0x1004"/>
      <component glyphName="N" x="0" y="0" flags="0x1204"/>
    </TTGlyph>
    <TTGlyph name="Ncaron" xMin="79" yMin="0" xMax="550" yMax="883">
      <component glyphName="uni030C" x="631" y="158" flags="0x1004"/>
      <component glyphName="N" x="0" y="0" flags="0x1204"/>
    </TTGlyph>
    <TTGlyph name="Ncommaaccent" xMin="79" yMin="-259" xMax="550" yMax="682">
      <component glyphName="uni0326" x="620" y="1" flags="0x1004"/>
      <component glyphName="N" x="0" y="0" flags="0x1204"/>
    </TTGlyph>
    <TTGlyph name="Ntilde" xMin="79" yMin="0" xMax="550" yMax="855">
      <component glyphName="tilde" x="90" y="158" flags="0x1004"/>
      <component glyphName="N" x="0" y="0" flags="0x1204"/>
    </TTGlyph>
    <TTGlyph name="Nu" xMin="79" yMin="0" xMax="550" yMax="682">
      <component glyphName="N" x="0" y="0" flags="0x1004"/>
    </TTGlyph>
    <TTGlyph name="O" xMin="42" yMin="-16" xMax="628" yMax="697">
      <contour>
        <pt x="121" y="340" on="1"/>
        <pt x="121" y="226" on="0"/>
        <pt x="246" y="53" on="0"/>
        <pt x="424" y="53" on="0"/>
        <pt x="549" y="226" on="0"/>
        <pt x="549" y="340" on="1"/>
        <pt x="549" y="455" on="0"/>
        <pt x="423" y="629" on="0"/>
        <pt x="247" y="629" on="0"/>
        <pt x="121" y="455" on="0"/>
      </contour>
      <contour>
        <pt x="42" y="197" on="0"/>
        <pt x="42" y="483" on="0"/>
        <pt x="219" y="697" on="0"/>
        <pt x="451" y="697" on="0"/>
        <pt x="628" y="483" on="0"/>
        <pt x="628" y="197" on="0"/>
        <pt x="451" y="-16" on="0"/>
        <pt x="219" y="-16" on="0"/>
      </contour>
    </TTGlyph>
    <TTGlyph name="OE" xMin="42" yMin="-16" xMax="791" yMax="697">
      <contour>
        <pt x="418" y="0" on="1"/>
        <pt x="375" y="-16" on="0"/>
        <pt x="335" y="-16" on="1"/>
        <pt x="219" y="-16" on="0"/>
        <pt x="42" y="197" on="0"/>
        <pt x="42" y="483" on="0"/>
        <pt x="219" y="697" on="0"/>
        <pt x="335" y="697" on="1"/>
        <pt x="376" y="697" on="0"/>
        <pt x="415" y="682" on="1"/>
        <pt x="788" y="682" on="1"/>
        <pt x="788" y="619" on="1"/>
        <pt x="481" y="619" on="1"/>
        <pt x="481" y="401" on="1"/>
        <pt x="721" y="401" on="1"/>
        <pt x="721" y="340" on="1"/>
        <pt x="481" y="340" on="1"/>
        <pt x="481" y="62" on="1"/>
        <pt x="791" y="62" on="1"/>
        <pt x="791" y="0" on="1"/>
      </contour>
      <contour>
        <pt x="406" y="70" on="1"/>
        <pt x="406" y="613" on="1"/>
        <pt x="374" y="629" on="0"/>
        <pt x="335" y="629" on="1"/>
        <pt x="247" y="629" on="0"/>
        <pt x="121" y="455" on="0"/>
        <pt x="121" y="340" on="1"/>
        <pt x="121" y="226" on="0"/>
        <pt x="246" y="53" on="0"/>
        <pt x="335" y="53" on="1"/>
        <pt x="372" y="53" on="0"/>
      </contour>
    </TTGlyph>
    <TTGlyph name="Oacute" xMin="42" yMin="-16" xMax="628" yMax="900">
      <component glyphName="uni02CA" x="198" y="158" flags="0x1004"/>
      <component glyphName="O" x="0" y="0" flags="0x1204"/>
    </TTGlyph>
    <TTGlyph name="Obreve" xMin="42" yMin="-16" xMax="628" yMax="856">
      <component glyphName="uni0306" x="647" y="158" flags="0x1004"/>
      <component glyphName="O" x="0" y="0" flags="0x1204"/>
    </TTGlyph>
    <TTGlyph name="Ocircumflex" xMin="42" yMin="-16" xMax="628" yMax="883">
      <component glyphName="circumflex" x="141" y="158" flags="0x1004"/>
      <component glyphName="O" x="0" y="0" flags="0x1204"/>
    </TTGlyph>
    <TTGlyph name="Odieresis" xMin="42" yMin="-16" xMax="628" yMax="825">
      <component glyphName="dieresis" x="126" y="158" flags="0x1004"/>
      <component glyphName="O" x="0" y="0" flags="0x1204"/>
    </TTGlyph>
    <TTGlyph name="Ograve" xMin="42" yMin="-16" xMax="628" yMax="900">
      <component glyphName="uni02CB" x="105" y="158" flags="0x1004"/>
      <component glyphName="O" x="0" y="0" flags="0x1204"/>
    </TTGlyph>
    <TTGlyph name="Ohungarumlaut" xMin="42" yMin="-16" xMax="628" yMax="937">
      <component glyphName="uni030B" x="647" y="158" flags="0x1004"/>
      <component glyphName="O" x="0" y="0" flags="0x1204"/>
    </TTGlyph>
    <TTGlyph name="Omacron" xMin="42" yMin="-16" xMax="628" yMax="789">
      <component glyphName="uni0304" x="654" y="158" flags="0x1004"/>
      <component glyphName="O" x="0" y="0" flags="0x1204"/>
    </TTGlyph>
    <TTGlyph name="Omega" xMin="47" yMin="0" xMax="633" yMax="698">
      <contour>
        <pt x="528" y="55" on="1"/>
        <pt x="598" y="55" on="1"/>
        <pt x="598" y="0" on="1"/>
        <pt x="440" y="0" on="1"/>
        <pt x="440" y="52" on="0"/>
        <pt x="463" y="129" on="0"/>
        <pt x="497" y="180" on="0"/>
        <pt x="531" y="233" on="0"/>
        <pt x="554" y="317" on="0"/>
        <pt x="554" y="374" on="1"/>
        <pt x="554" y="485" on="0"/>
        <pt x="431" y="629" on="0"/>
        <pt x="249" y="629" on="0"/>
        <pt x="126" y="485" on="0"/>
        <pt x="126" y="374" on="1"/>
        <pt x="126" y="317" on="0"/>
        <pt x="149" y="233" on="0"/>
        <pt x="183" y="180" on="0"/>
        <pt x="217" y="129" on="0"/>
        <pt x="240" y="52" on="0"/>
        <pt x="240" y="0" on="1"/>
        <pt x="82" y="0" on="1"/>
        <pt x="82" y="55" on="1"/>
        <pt x="152" y="55" on="1"/>
        <pt x="147" y="89" on="0"/>
        <pt x="93" y="185" on="0"/>
        <pt x="47" y="303" on="0"/>
        <pt x="47" y="374" on="1"/>
        <pt x="47" y="514" on="0"/>
        <pt x="222" y="698" on="0"/>
        <pt x="458" y="698" on="0"/>
        <pt x="633" y="514" on="0"/>
        <pt x="633" y="374" on="1"/>
        <pt x="633" y="303" on="0"/>
        <pt x="587" y="185" on="0"/>
        <pt x="533" y="89" on="0"/>
      </contour>
    </TTGlyph>
    <TTGlyph name="Omegatonos" xMin="8" yMin="0" xMax="688" yMax="805">
      <contour>
        <pt x="8" y="616" on="1"/>
        <pt x="97" y="805" on="1"/>
        <pt x="158" y="776" on="1"/>
        <pt x="43" y="600" on="1"/>
      </contour>
      <contour>
        <pt x="583" y="55" on="1"/>
        <pt x="653" y="55" on="1"/>
        <pt x="653" y="0" on="1"/>
        <pt x="495" y="0" on="1"/>
        <pt x="495" y="52" on="0"/>
        <pt x="518" y="129" on="0"/>
        <pt x="552" y="180" on="0"/>
        <pt x="586" y="233" on="0"/>
        <pt x="609" y="317" on="0"/>
        <pt x="609" y="374" on="1"/>
        <pt x="609" y="485" on="0"/>
        <pt x="486" y="629" on="0"/>
        <pt x="304" y="629" on="0"/>
        <pt x="181" y="485" on="0"/>
        <pt x="181" y="374" on="1"/>
        <pt x="181" y="317" on="0"/>
        <pt x="204" y="233" on="0"/>
        <pt x="238" y="180" on="0"/>
        <pt x="272" y="129" on="0"/>
        <pt x="295" y="52" on="0"/>
        <pt x="295" y="0" on="1"/>
        <pt x="137" y="0" on="1"/>
        <pt x="137" y="55" on="1"/>
        <pt x="207" y="55" on="1"/>
        <pt x="202" y="89" on="0"/>
        <pt x="148" y="185" on="0"/>
        <pt x="102" y="303" on="0"/>
        <pt x="102" y="374" on="1"/>
        <pt x="102" y="514" on="0"/>
        <pt x="277" y="698" on="0"/>
        <pt x="513" y="698" on="0"/>
        <pt x="688" y="514" on="0"/>
        <pt x="688" y="374" on="1"/>
        <pt x="688" y="303" on="0"/>
        <pt x="642" y="185" on="0"/>
        <pt x="588" y="89" on="0"/>
      </contour>
    </TTGlyph>
    <TTGlyph name="Omicron" xMin="42" yMin="-16" xMax="628" yMax="697">
      <component glyphName="O" x="0" y="0" flags="0x1004"/>
    </TTGlyph>
    <TTGlyph name="Omicrontonos" xMin="12" yMin="-16" xMax="662" yMax="805">
      <contour>
        <pt x="12" y="616" on="1"/>
        <pt x="101" y="805" on="1"/>
        <pt x="162" y="776" on="1"/>
        <pt x="47" y="600" on="1"/>
      </contour>
      <contour>
        <pt x="155" y="340" on="1"/>
        <pt x="155" y="226" on="0"/>
        <pt x="280" y="53" on="0"/>
        <pt x="458" y="53" on="0"/>
        <pt x="583" y="226" on="0"/>
        <pt x="583" y="340" on="1"/>
        <pt x="583" y="455" on="0"/>
        <pt x="457" y="629" on="0"/>
        <pt x="281" y="629" on="0"/>
        <pt x="155" y="455" on="0"/>
      </contour>
      <contour>
        <pt x="76" y="197" on="0"/>
        <pt x="76" y="483" on="0"/>
        <pt x="253" y="697" on="0"/>
        <pt x="485" y="697" on="0"/>
        <pt x="662" y="483" on="0"/>
        <pt x="662" y="197" on="0"/>
        <pt x="485" y="-16" on="0"/>
        <pt x="253" y="-16" on="0"/>
      </contour>
    </TTGlyph>
    <TTGlyph name="Oslash" xMin="24" yMin="-16" xMax="647" yMax="697">
      <contour>
        <pt x="507" y="511" on="1"/>
        <pt x="192" y="129" on="1"/>
        <pt x="253" y="53" on="0"/>
        <pt x="336" y="53" on="1"/>
        <pt x="425" y="53" on="0"/>
        <pt x="550" y="226" on="0"/>
        <pt x="550" y="340" on="1"/>
        <pt x="550" y="433" on="0"/>
      </contour>
      <contour>
        <pt x="478" y="553" on="1"/>
        <pt x="415" y="629" on="0"/>
        <pt x="336" y="629" on="1"/>
        <pt x="248" y="629" on="0"/>
        <pt x="122" y="455" on="0"/>
        <pt x="122" y="340" on="1"/>
        <pt x="122" y="246" on="0"/>
        <pt x="164" y="171" on="1"/>
      </contour>
      <contour>
        <pt x="43" y="340" on="1"/>
        <pt x="43" y="483" on="0"/>
        <pt x="220" y="697" on="0"/>
        <pt x="336" y="697" on="1"/>
        <pt x="441" y="697" on="0"/>
        <pt x="524" y="609" on="1"/>
        <pt x="584" y="682" on="1"/>
        <pt x="647" y="682" on="1"/>
        <pt x="555" y="571" on="1"/>
        <pt x="629" y="467" on="0"/>
        <pt x="629" y="340" on="1"/>
        <pt x="629" y="197" on="0"/>
        <pt x="452" y="-16" on="0"/>
        <pt x="336" y="-16" on="1"/>
        <pt x="232" y="-16" on="0"/>
        <pt x="147" y="74" on="1"/>
        <pt x="86" y="0" on="1"/>
        <pt x="24" y="0" on="1"/>
        <pt x="116" y="111" on="1"/>
        <pt x="43" y="212" on="0"/>
      </contour>
    </TTGlyph>
    <TTGlyph name="Oslashacute" xMin="24" yMin="-16" xMax="647" yMax="900">
      <component glyphName="acutecomb" x="648" y="158" flags="0x1004"/>
      <component glyphName="Oslash" x="0" y="0" flags="0x1204"/>
    </TTGlyph>
    <TTGlyph name="Otilde" xMin="42" yMin="-16" xMax="628" yMax="855">
      <component glyphName="tilde" x="106" y="158" flags="0x1004"/>
      <component glyphName="O" x="0" y="0" flags="0x1204"/>
    </TTGlyph>
    <TTGlyph name="P" xMin="79" yMin="0" xMax="536" yMax="682">
      <contour>
        <pt x="79" y="0" on="1"/>
        <pt x="79" y="682" on="1"/>
        <pt x="297" y="682" on="1"/>
        <pt x="358" y="682" on="0"/>
        <pt x="463" y="641" on="0"/>
        <pt x="536" y="547" on="0"/>
        <pt x="536" y="415" on="0"/>
        <pt x="464" y="322" on="0"/>
        <pt x="360" y="281" on="0"/>
        <pt x="299" y="281" on="1"/>
        <pt x="154" y="281" on="1"/>
        <pt x="154" y="0" on="1"/>
      </contour>
      <contour>
        <pt x="154" y="619" on="1"/>
        <pt x="154" y="344" on="1"/>
        <pt x="297" y="344" on="1"/>
        <pt x="365" y="344" on="0"/>
        <pt x="454" y="415" on="0"/>
        <pt x="454" y="547" on="0"/>
        <pt x="365" y="619" on="0"/>
        <pt x="297" y="619" on="1"/>
      </contour>
    </TTGlyph>
    <TTGlyph name="Phi" xMin="26" yMin="0" xMax="612" yMax="682">
      <contour>
        <pt x="358" y="76" on="1"/>
        <pt x="358" y="0" on="1"/>
        <pt x="283" y="0" on="1"/>
        <pt x="283" y="75" on="1"/>
        <pt x="178" y="88" on="0"/>
        <pt x="26" y="242" on="0"/>
        <pt x="26" y="340" on="1"/>
        <pt x="26" y="439" on="0"/>
        <pt x="178" y="593" on="0"/>
        <pt x="283" y="606" on="1"/>
        <pt x="283" y="682" on="1"/>
        <pt x="358" y="682" on="1"/>
        <pt x="358" y="605" on="1"/>
        <pt x="462" y="591" on="0"/>
        <pt x="612" y="438" on="0"/>
        <pt x="612" y="242" on="0"/>
        <pt x="462" y="90" on="0"/>
      </contour>
      <contour>
        <pt x="358" y="536" on="1"/>
        <pt x="358" y="146" on="1"/>
        <pt x="431" y="160" on="0"/>
        <pt x="533" y="270" on="0"/>
        <pt x="533" y="410" on="0"/>
        <pt x="431" y="522" on="0"/>
      </contour>
      <contour>
        <pt x="283" y="537" on="1"/>
        <pt x="210" y="524" on="0"/>
        <pt x="105" y="411" on="0"/>
        <pt x="105" y="269" on="0"/>
        <pt x="209" y="158" on="0"/>
        <pt x="283" y="145" on="1"/>
      </contour>
    </TTGlyph>
    <TTGlyph name="Pi" xMin="79" yMin="0" xMax="529" yMax="682">
      <contour>
        <pt x="79" y="0" on="1"/>
        <pt x="79" y="682" on="1"/>
        <pt x="154" y="682" on="1"/>
        <pt x="454" y="682" on="1"/>
        <pt x="529" y="682" on="1"/>
        <pt x="529" y="0" on="1"/>
        <pt x="454" y="0" on="1"/>
        <pt x="454" y="620" on="1"/>
        <pt x="154" y="620" on="1"/>
        <pt x="154" y="0" on="1"/>
      </contour>
    </TTGlyph>
    <TTGlyph name="Psi" xMin="32" yMin="0" xMax="571" yMax="682">
      <contour>
        <pt x="32" y="539" on="1"/>
        <pt x="32" y="682" on="1"/>
        <pt x="112" y="682" on="1"/>
        <pt x="112" y="539" on="1"/>
        <pt x="112" y="453" on="0"/>
        <pt x="194" y="327" on="0"/>
        <pt x="265" y="313" on="1"/>
        <pt x="265" y="682" on="1"/>
        <pt x="340" y="682" on="1"/>
        <pt x="340" y="313" on="1"/>
        <pt x="411" y="328" on="0"/>
        <pt x="492" y="453" on="0"/>
        <pt x="492" y="539" on="1"/>
        <pt x="492" y="682" on="1"/>
        <pt x="571" y="682" on="1"/>
        <pt x="571" y="539" on="1"/>
        <pt x="571" y="410" on="0"/>
        <pt x="444" y="254" on="0"/>
        <pt x="340" y="242" on="1"/>
        <pt x="340" y="0" on="1"/>
        <pt x="265" y="0" on="1"/>
        <pt x="265" y="242" on="1"/>
        <pt x="161" y="254" on="0"/>
        <pt x="32" y="411" on="0"/>
      </contour>
    </TTGlyph>
    <TTGlyph name="Q" xMin="42" yMin="-29" xMax="628" yMax="697">
      <contour>
        <pt x="42" y="197" on="0"/>
        <pt x="42" y="483" on="0"/>
        <pt x="219" y="697" on="0"/>
        <pt x="451" y="697" on="0"/>
        <pt x="628" y="483" on="0"/>
        <pt x="628" y="340" on="1"/>
        <pt x="628" y="193" on="0"/>
        <pt x="536" y="86" on="1"/>
        <pt x="608" y="14" on="1"/>
        <pt x="564" y="-29" on="1"/>
        <pt x="491" y="43" on="1"/>
        <pt x="418" y="-16" on="0"/>
        <pt x="335" y="-16" on="1"/>
        <pt x="219" y="-16" on="0"/>
      </contour>
      <contour>
        <pt x="121" y="340" on="1"/>
        <pt x="121" y="226" on="0"/>
        <pt x="246" y="53" on="0"/>
        <pt x="335" y="53" on="1"/>
        <pt x="394" y="53" on="0"/>
        <pt x="442" y="92" on="1"/>
        <pt x="366" y="167" on="1"/>
        <pt x="410" y="211" on="1"/>
        <pt x="485" y="137" on="1"/>
        <pt x="549" y="222" on="0"/>
        <pt x="549" y="340" on="1"/>
        <pt x="549" y="455" on="0"/>
        <pt x="423" y="629" on="0"/>
        <pt x="247" y="629" on="0"/>
        <pt x="121" y="455" on="0"/>
      </contour>
    </TTGlyph>
    <TTGlyph name="R" xMin="79" yMin="0" xMax="545" yMax="682">
      <contour>
        <pt x="79" y="0" on="1"/>
        <pt x="79" y="682" on="1"/>
        <pt x="297" y="682" on="1"/>
        <pt x="358" y="682" on="0"/>
        <pt x="463" y="641" on="0"/>
        <pt x="536" y="547" on="0"/>
        <pt x="536" y="481" on="1"/>
        <pt x="536" y="405" on="0"/>
        <pt x="447" y="309" on="0"/>
        <pt x="377" y="291" on="1"/>
        <pt x="545" y="0" on="1"/>
        <pt x="462" y="0" on="1"/>
        <pt x="300" y="281" on="1"/>
        <pt x="299" y="281" on="1"/>
        <pt x="154" y="281" on="1"/>
        <pt x="154" y="0" on="1"/>
      </contour>
      <contour>
        <pt x="154" y="619" on="1"/>
        <pt x="154" y="344" on="1"/>
        <pt x="297" y="344" on="1"/>
        <pt x="365" y="344" on="0"/>
        <pt x="454" y="415" on="0"/>
        <pt x="454" y="547" on="0"/>
        <pt x="365" y="619" on="0"/>
        <pt x="297" y="619" on="1"/>
      </contour>
    </TTGlyph>
    <TTGlyph name="Racute" xMin="79" yMin="0" xMax="545" yMax="900">
      <component glyphName="acutecomb" x="611" y="158" flags="0x1004"/>
      <component glyphName="R" x="0" y="0" flags="0x1204"/>
    </TTGlyph>
    <TTGlyph name="Rcaron" xMin="79" yMin="0" xMax="545" yMax="883">
      <component glyphName="uni030C" x="611" y="158" flags="0x1004"/>
      <component glyphName="R" x="0" y="0" flags="0x1204"/>
    </TTGlyph>
    <TTGlyph name="Rcommaaccent" xMin="79" yMin="-259" xMax="545" yMax="682">
      <component glyphName="uni0326" x="608" y="1" flags="0x1004"/>
      <component glyphName="R" x="0" y="0" flags="0x1204"/>
    </TTGlyph>
    <TTGlyph name="Rho" xMin="79" yMin="0" xMax="536" yMax="682">
      <component glyphName="P" x="0" y="0" flags="0x1004"/>
    </TTGlyph>
    <TTGlyph name="S" xMin="31" yMin="-16" xMax="514" yMax="697">
      <contour>
        <pt x="278" y="307" on="1"/>
        <pt x="170" y="336" on="0"/>
        <pt x="57" y="430" on="0"/>
        <pt x="57" y="512" on="1"/>
        <pt x="57" y="602" on="0"/>
        <pt x="171" y="697" on="0"/>
        <pt x="276" y="697" on="1"/>
        <pt x="403" y="697" on="0"/>
        <pt x="494" y="580" on="1"/>
        <pt x="438" y="533" on="1"/>
        <pt x="367" y="629" on="0"/>
        <pt x="276" y="629" on="1"/>
        <pt x="199" y="629" on="0"/>
        <pt x="133" y="573" on="0"/>
        <pt x="133" y="512" on="1"/>
        <pt x="133" y="489" on="0"/>
        <pt x="148" y="452" on="0"/>
        <pt x="165" y="430" on="0"/>
        <pt x="205" y="410" on="0"/>
        <pt x="228" y="401" on="0"/>
        <pt x="284" y="384" on="0"/>
        <pt x="294" y="381" on="1"/>
        <pt x="396" y="346" on="0"/>
        <pt x="427" y="328" on="1"/>
        <pt x="514" y="277" on="0"/>
        <pt x="514" y="170" on="1"/>
        <pt x="514" y="81" on="0"/>
        <pt x="380" y="-16" on="0"/>
        <pt x="263" y="-16" on="1"/>
        <pt x="197" y="-16" on="0"/>
        <pt x="73" y="60" on="0"/>
        <pt x="31" y="125" on="1"/>
        <pt x="90" y="167" on="1"/>
        <pt x="120" y="117" on="0"/>
        <pt x="214" y="53" on="0"/>
        <pt x="263" y="53" on="1"/>
        <pt x="353" y="53" on="0"/>
        <pt x="438" y="110" on="0"/>
        <pt x="438" y="170" on="1"/>
        <pt x="438" y="229" on="0"/>
        <pt x="365" y="284" on="0"/>
      </contour>
    </TTGlyph>
    <TTGlyph name="Sacute" xMin="31" yMin="-16" xMax="514" yMax="900">
      <component glyphName="acutecomb" x="591" y="158" flags="0x1004"/>
      <component glyphName="S" x="0" y="0" flags="0x1204"/>
    </TTGlyph>
    <TTGlyph name="Scaron" xMin="31" yMin="-16" xMax="514" yMax="883">
      <component glyphName="uni030C" x="591" y="158" flags="0x1004"/>
      <component glyphName="S" x="0" y="0" flags="0x1204"/>
    </TTGlyph>
    <TTGlyph name="Scedilla" xMin="32" yMin="-200" xMax="515" yMax="697">
      <contour>
        <pt x="279" y="307" on="1"/>
        <pt x="171" y="336" on="0"/>
        <pt x="58" y="430" on="0"/>
        <pt x="58" y="512" on="1"/>
        <pt x="58" y="602" on="0"/>
        <pt x="172" y="697" on="0"/>
        <pt x="277" y="697" on="1"/>
        <pt x="404" y="697" on="0"/>
        <pt x="495" y="580" on="1"/>
        <pt x="439" y="533" on="1"/>
        <pt x="368" y="629" on="0"/>
        <pt x="277" y="629" on="1"/>
        <pt x="200" y="629" on="0"/>
        <pt x="134" y="573" on="0"/>
        <pt x="134" y="512" on="1"/>
        <pt x="134" y="489" on="0"/>
        <pt x="149" y="452" on="0"/>
        <pt x="166" y="430" on="0"/>
        <pt x="206" y="410" on="0"/>
        <pt x="229" y="401" on="0"/>
        <pt x="285" y="384" on="0"/>
        <pt x="295" y="381" on="1"/>
        <pt x="397" y="346" on="0"/>
        <pt x="428" y="328" on="1"/>
        <pt x="515" y="277" on="0"/>
        <pt x="515" y="170" on="1"/>
        <pt x="515" y="87" on="0"/>
        <pt x="399" y="-8" on="0"/>
        <pt x="296" y="-15" on="1"/>
        <pt x="270" y="-68" on="1"/>
        <pt x="324" y="-68" on="0"/>
        <pt x="377" y="-104" on="0"/>
        <pt x="377" y="-125" on="1"/>
        <pt x="377" y="-200" on="0"/>
        <pt x="172" y="-200" on="1"/>
        <pt x="172" y="-173" on="1"/>
        <pt x="222" y="-173" on="0"/>
        <pt x="312" y="-150" on="0"/>
        <pt x="312" y="-131" on="1"/>
        <pt x="312" y="-121" on="0"/>
        <pt x="298" y="-110" on="0"/>
        <pt x="250" y="-103" on="0"/>
        <pt x="204" y="-103" on="1"/>
        <pt x="245" y="-15" on="1"/>
        <pt x="184" y="-10" on="0"/>
        <pt x="71" y="65" on="0"/>
        <pt x="32" y="125" on="1"/>
        <pt x="91" y="167" on="1"/>
        <pt x="121" y="117" on="0"/>
        <pt x="215" y="53" on="0"/>
        <pt x="264" y="53" on="1"/>
        <pt x="354" y="53" on="0"/>
        <pt x="439" y="110" on="0"/>
        <pt x="439" y="170" on="1"/>
        <pt x="439" y="229" on="0"/>
        <pt x="366" y="284" on="0"/>
      </contour>
    </TTGlyph>
    <TTGlyph name="Scircumflex" xMin="31" yMin="-16" xMax="514" yMax="883">
      <component glyphName="uni0302" x="591" y="158" flags="0x1004"/>
      <component glyphName="S" x="0" y="0" flags="0x1204"/>
    </TTGlyph>
    <TTGlyph name="Scommaaccent" xMin="31" yMin="-259" xMax="514" yMax="697">
      <component glyphName="uni0326" x="585" y="1" flags="0x1004"/>
      <component glyphName="S" x="0" y="0" flags="0x1204"/>
    </TTGlyph>
    <TTGlyph name="Sigma" xMin="43" yMin="0" xMax="469" yMax="682">
      <contour>
        <pt x="299" y="336" on="1"/>
        <pt x="128" y="62" on="1"/>
        <pt x="469" y="62" on="1"/>
        <pt x="469" y="0" on="1"/>
        <pt x="43" y="0" on="1"/>
        <pt x="43" y="63" on="1"/>
        <pt x="213" y="336" on="1"/>
        <pt x="43" y="607" on="1"/>
        <pt x="43" y="682" on="1"/>
        <pt x="469" y="682" on="1"/>
        <pt x="469" y="620" on="1"/>
        <pt x="122" y="620" on="1"/>
      </contour>
    </TTGlyph>
    <TTGlyph name="T" xMin="19" yMin="0" xMax="483" yMax="682">
      <contour>
        <pt x="19" y="620" on="1"/>
        <pt x="19" y="682" on="1"/>
        <pt x="483" y="682" on="1"/>
        <pt x="483" y="620" on="1"/>
        <pt x="288" y="620" on="1"/>
        <pt x="288" y="0" on="1"/>
        <pt x="214" y="0" on="1"/>
        <pt x="214" y="620" on="1"/>
      </contour>
    </TTGlyph>
    <TTGlyph name="Tau" xMin="19" yMin="0" xMax="483" yMax="682">
      <component glyphName="T" x="0" y="0" flags="0x1004"/>
    </TTGlyph>
    <TTGlyph name="Tbar" xMin="19" yMin="0" xMax="483" yMax="682">
      <contour>
        <pt x="19" y="620" on="1"/>
        <pt x="19" y="682" on="1"/>
        <pt x="483" y="682" on="1"/>
        <pt x="483" y="620" on="1"/>
        <pt x="288" y="620" on="1"/>
        <pt x="288" y="468" on="1"/>
        <pt x="360" y="468" on="1"/>
        <pt x="360" y="424" on="1"/>
        <pt x="288" y="424" on="1"/>
        <pt x="288" y="0" on="1"/>
        <pt x="214" y="0" on="1"/>
        <pt x="214" y="424" on="1"/>
        <pt x="142" y="424" on="1"/>
        <pt x="142" y="468" on="1"/>
        <pt x="214" y="468" on="1"/>
        <pt x="214" y="620" on="1"/>
      </contour>
    </TTGlyph>
    <TTGlyph name="Tcaron" xMin="19" yMin="0" xMax="483" yMax="883">
      <component glyphName="uni030C" x="562" y="158" flags="0x1004"/>
      <component glyphName="T" x="0" y="0" flags="0x1204"/>
    </TTGlyph>
    <TTGlyph name="Tcommaaccent" xMin="19" yMin="-259" xMax="483" yMax="682">
      <component glyphName="uni0326" x="568" y="1" flags="0x1004"/>
      <component glyphName="T" x="0" y="0" flags="0x1204"/>
    </TTGlyph>
    <TTGlyph name="Theta" xMin="42" yMin="-16" xMax="628" yMax="697">
      <contour>
        <pt x="121" y="340" on="1"/>
        <pt x="121" y="226" on="0"/>
        <pt x="246" y="53" on="0"/>
        <pt x="424" y="53" on="0"/>
        <pt x="549" y="226" on="0"/>
        <pt x="549" y="340" on="1"/>
        <pt x="549" y="455" on="0"/>
        <pt x="423" y="629" on="0"/>
        <pt x="247" y="629" on="0"/>
        <pt x="121" y="455" on="0"/>
      </contour>
      <contour>
        <pt x="42" y="197" on="0"/>
        <pt x="42" y="483" on="0"/>
        <pt x="219" y="697" on="0"/>
        <pt x="451" y="697" on="0"/>
        <pt x="628" y="483" on="0"/>
        <pt x="628" y="197" on="0"/>
        <pt x="451" y="-16" on="0"/>
        <pt x="219" y="-16" on="0"/>
      </contour>
      <contour>
        <pt x="186" y="368" on="1"/>
        <pt x="482" y="368" on="1"/>
        <pt x="482" y="313" on="1"/>
        <pt x="186" y="313" on="1"/>
      </contour>
    </TTGlyph>
    <TTGlyph name="Thorn" xMin="79" yMin="0" xMax="495" yMax="682">
      <contour>
        <pt x="79" y="0" on="1"/>
        <pt x="79" y="682" on="1"/>
        <pt x="154" y="682" on="1"/>
        <pt x="154" y="513" on="1"/>
        <pt x="286" y="513" on="1"/>
        <pt x="374" y="513" on="0"/>
        <pt x="495" y="417" on="0"/>
        <pt x="495" y="267" on="0"/>
        <pt x="376" y="171" on="0"/>
        <pt x="288" y="171" on="1"/>
        <pt x="154" y="171" on="1"/>
        <pt x="154" y="0" on="1"/>
      </contour>
      <contour>
        <pt x="154" y="450" on="1"/>
        <pt x="154" y="232" on="1"/>
        <pt x="286" y="232" on="1"/>
        <pt x="346" y="232" on="0"/>
        <pt x="413" y="298" on="0"/>
        <pt x="413" y="386" on="0"/>
        <pt x="347" y="450" on="0"/>
        <pt x="286" y="450" on="1"/>
      </contour>
    </TTGlyph>
    <TTGlyph name="U" xMin="73" yMin="-16" xMax="562" yMax="682">
      <contour>
        <pt x="73" y="283" on="1"/>
        <pt x="73" y="682" on="1"/>
        <pt x="153" y="682" on="1"/>
        <pt x="153" y="283" on="1"/>
        <pt x="153" y="181" on="0"/>
        <pt x="233" y="53" on="0"/>
        <pt x="403" y="53" on="0"/>
        <pt x="483" y="181" on="0"/>
        <pt x="483" y="283" on="1"/>
        <pt x="483" y="682" on="1"/>
        <pt x="562" y="682" on="1"/>
        <pt x="562" y="283" on="1"/>
        <pt x="562" y="140" on="0"/>
        <pt x="433" y="-16" on="0"/>
        <pt x="318" y="-16" on="1"/>
        <pt x="202" y="-16" on="0"/>
        <pt x="73" y="140" on="0"/>
      </contour>
    </TTGlyph>
    <TTGlyph name="Uacute" xMin="73" yMin="-16" xMax="562" yMax="900">
      <component glyphName="uni02CA" x="180" y="158" flags="0x1004"/>
      <component glyphName="U" x="0" y="0" flags="0x1204"/>
    </TTGlyph>
    <TTGlyph name="Ubreve" xMin="73" yMin="-16" xMax="562" yMax="856">
      <component glyphName="uni0306" x="629" y="158" flags="0x1004"/>
      <component glyphName="U" x="0" y="0" flags="0x1204"/>
    </TTGlyph>
    <TTGlyph name="Ucircumflex" xMin="73" yMin="-16" xMax="562" yMax="883">
      <component glyphName="circumflex" x="123" y="158" flags="0x1004"/>
      <component glyphName="U" x="0" y="0" flags="0x1204"/>
    </TTGlyph>
    <TTGlyph name="Udieresis" xMin="73" yMin="-16" xMax="562" yMax="825">
      <component glyphName="dieresis" x="108" y="158" flags="0x1004"/>
      <component glyphName="U" x="0" y="0" flags="0x1204"/>
    </TTGlyph>
    <TTGlyph name="Ugrave" xMin="73" yMin="-16" xMax="562" yMax="900">
      <component glyphName="uni02CB" x="87" y="158" flags="0x1004"/>
      <component glyphName="U" x="0" y="0" flags="0x1204"/>
    </TTGlyph>
    <TTGlyph name="Uhungarumlaut" xMin="73" yMin="-16" xMax="591" yMax="937">
      <component glyphName="uni030B" x="629" y="158" flags="0x1004"/>
      <component glyphName="U" x="0" y="0" flags="0x1204"/>
    </TTGlyph>
    <TTGlyph name="Umacron" xMin="73" yMin="-16" xMax="562" yMax="789">
      <component glyphName="uni0304" x="636" y="158" flags="0x1004"/>
      <component glyphName="U" x="0" y="0" flags="0x1204"/>
    </TTGlyph>
    <TTGlyph name="Uogonek" xMin="73" yMin="-186" xMax="562" yMax="682">
      <contour>
        <pt x="340" y="-82" on="1"/>
        <pt x="340" y="-150" on="0"/>
        <pt x="443" y="-150" on="1"/>
        <pt x="473" y="-150" on="0"/>
        <pt x="497" y="-144" on="1"/>
        <pt x="504" y="-170" on="1"/>
        <pt x="446" y="-186" on="0"/>
        <pt x="400" y="-186" on="1"/>
        <pt x="343" y="-186" on="0"/>
        <pt x="274" y="-140" on="0"/>
        <pt x="274" y="-91" on="1"/>
        <pt x="274" y="-46" on="0"/>
        <pt x="307" y="-16" on="1"/>
        <pt x="197" y="-12" on="0"/>
        <pt x="73" y="144" on="0"/>
        <pt x="73" y="283" on="1"/>
        <pt x="73" y="682" on="1"/>
        <pt x="153" y="682" on="1"/>
        <pt x="153" y="283" on="1"/>
        <pt x="153" y="181" on="0"/>
        <pt x="233" y="53" on="0"/>
        <pt x="403" y="53" on="0"/>
        <pt x="483" y="181" on="0"/>
        <pt x="483" y="283" on="1"/>
        <pt x="483" y="682" on="1"/>
        <pt x="562" y="682" on="1"/>
        <pt x="562" y="283" on="1"/>
        <pt x="562" y="162" on="0"/>
        <pt x="468" y="11" on="0"/>
        <pt x="382" y="-9" on="1"/>
        <pt x="357" y="-21" on="0"/>
        <pt x="340" y="-52" on="0"/>
      </contour>
    </TTGlyph>
    <TTGlyph name="Upsilon" xMin="0" yMin="0" xMax="474" yMax="682">
      <component glyphName="Y" x="0" y="0" flags="0x1004"/>
    </TTGlyph>
    <TTGlyph name="Upsilondieresis" xMin="0" yMin="0" xMax="474" yMax="825">
      <component glyphName="Ydieresis" x="0" y="0" flags="0x1004"/>
    </TTGlyph>
    <TTGlyph name="Upsilontonos" xMin="20" yMin="0" xMax="660" yMax="805">
      <contour>
        <pt x="423" y="432" on="1"/>
        <pt x="573" y="682" on="1"/>
        <pt x="660" y="682" on="1"/>
        <pt x="459" y="347" on="1"/>
        <pt x="459" y="0" on="1"/>
        <pt x="385" y="0" on="1"/>
        <pt x="385" y="350" on="1"/>
        <pt x="186" y="682" on="1"/>
        <pt x="273" y="682" on="1"/>
      </contour>
      <contour>
        <pt x="20" y="616" on="1"/>
        <pt x="109" y="805" on="1"/>
        <pt x="170" y="776" on="1"/>
        <pt x="55" y="600" on="1"/>
      </contour>
    </TTGlyph>
    <TTGlyph name="Uring" xMin="73" yMin="-16" xMax="562" yMax="917">
      <component glyphName="uni030A" x="629" y="158" flags="0x1004"/>
      <component glyphName="U" x="0" y="0" flags="0x1204"/>
    </TTGlyph>
    <TTGlyph name="Utilde" xMin="73" yMin="-16" xMax="562" yMax="855">
      <component glyphName="tildecomb" x="629" y="158" flags="0x1004"/>
      <component glyphName="U" x="0" y="0" flags="0x1204"/>
    </TTGlyph>
    <TTGlyph name="V" xMin="-1" yMin="0" xMax="574" yMax="682">
      <contour>
        <pt x="246" y="1" on="1"/>
        <pt x="-1" y="682" on="1"/>
        <pt x="79" y="682" on="1"/>
        <pt x="286" y="111" on="1"/>
        <pt x="494" y="682" on="1"/>
        <pt x="574" y="682" on="1"/>
        <pt x="326" y="1" on="1"/>
        <pt x="327" y="0" on="1"/>
        <pt x="246" y="0" on="1"/>
      </contour>
    </TTGlyph>
    <TTGlyph name="W" xMin="22" yMin="0" xMax="829" yMax="682">
      <contour>
        <pt x="281" y="0" on="1"/>
        <pt x="204" y="0" on="1"/>
        <pt x="22" y="682" on="1"/>
        <pt x="99" y="682" on="1"/>
        <pt x="243" y="144" on="1"/>
        <pt x="387" y="682" on="1"/>
        <pt x="464" y="682" on="1"/>
        <pt x="608" y="145" on="1"/>
        <pt x="752" y="682" on="1"/>
        <pt x="829" y="682" on="1"/>
        <pt x="647" y="0" on="1"/>
        <pt x="569" y="0" on="1"/>
        <pt x="425" y="538" on="1"/>
      </contour>
    </TTGlyph>
    <TTGlyph name="Wacute" xMin="22" yMin="0" xMax="829" yMax="900">
      <component glyphName="acutecomb" x="757" y="158" flags="0x1004"/>
      <component glyphName="W" x="0" y="0" flags="0x1204"/>
    </TTGlyph>
    <TTGlyph name="Wcircumflex" xMin="22" yMin="0" xMax="829" yMax="883">
      <component glyphName="uni0302" x="738" y="158" flags="0x1004"/>
      <component glyphName="W" x="0" y="0" flags="0x1204"/>
    </TTGlyph>
    <TTGlyph name="Wdieresis" xMin="22" yMin="0" xMax="829" yMax="819">
      <component glyphName="uni0308" x="737" y="152" flags="0x1004"/>
      <component glyphName="W" x="0" y="0" flags="0x1204"/>
    </TTGlyph>
    <TTGlyph name="Wgrave" xMin="22" yMin="0" xMax="829" yMax="900">
      <component glyphName="gravecomb" x="720" y="158" flags="0x1004"/>
      <component glyphName="W" x="0" y="0" flags="0x1204"/>
    </TTGlyph>
    <TTGlyph name="X" xMin="21" yMin="0" xMax="476" yMax="682">
      <contour>
        <pt x="290" y="349" on="1"/>
        <pt x="476" y="0" on="1"/>
        <pt x="392" y="0" on="1"/>
        <pt x="248" y="270" on="1"/>
        <pt x="105" y="0" on="1"/>
        <pt x="21" y="0" on="1"/>
        <pt x="206" y="349" on="1"/>
        <pt x="29" y="682" on="1"/>
        <pt x="113" y="682" on="1"/>
        <pt x="248" y="427" on="1"/>
        <pt x="384" y="682" on="1"/>
        <pt x="468" y="682" on="1"/>
      </contour>
    </TTGlyph>
    <TTGlyph name="Xi" xMin="40" yMin="0" xMax="493" yMax="682">
      <contour>
        <pt x="110" y="396" on="1"/>
        <pt x="423" y="396" on="1"/>
        <pt x="423" y="334" on="1"/>
        <pt x="110" y="334" on="1"/>
      </contour>
      <contour>
        <pt x="40" y="682" on="1"/>
        <pt x="493" y="682" on="1"/>
        <pt x="493" y="620" on="1"/>
        <pt x="40" y="620" on="1"/>
      </contour>
      <contour>
        <pt x="40" y="62" on="1"/>
        <pt x="493" y="62" on="1"/>
        <pt x="493" y="0" on="1"/>
        <pt x="40" y="0" on="1"/>
      </contour>
    </TTGlyph>
    <TTGlyph name="Y" xMin="0" yMin="0" xMax="474" yMax="682">
      <contour>
        <pt x="237" y="432" on="1"/>
        <pt x="387" y="682" on="1"/>
        <pt x="474" y="682" on="1"/>
        <pt x="273" y="347" on="1"/>
        <pt x="273" y="0" on="1"/>
        <pt x="199" y="0" on="1"/>
        <pt x="199" y="350" on="1"/>
        <pt x="0" y="682" on="1"/>
        <pt x="87" y="682" on="1"/>
      </contour>
    </TTGlyph>
    <TTGlyph name="Yacute" xMin="0" yMin="0" xMax="474" yMax="900">
      <component glyphName="uni02CA" x="99" y="158" flags="0x1004"/>
      <component glyphName="Y" x="0" y="0" flags="0x1204"/>
    </TTGlyph>
    <TTGlyph name="Ycircumflex" xMin="0" yMin="0" xMax="474" yMax="883">
      <component glyphName="uni0302" x="548" y="158" flags="0x1004"/>
      <component glyphName="Y" x="0" y="0" flags="0x1204"/>
    </TTGlyph>
    <TTGlyph name="Ydieresis" xMin="0" yMin="0" xMax="474" yMax="825">
      <component glyphName="uni0308" x="548" y="158" flags="0x1004"/>
      <component glyphName="Y" x="0" y="0" flags="0x1204"/>
    </TTGlyph>
    <TTGlyph name="Ygrave" xMin="0" yMin="0" xMax="474" yMax="900">
      <component glyphName="gravecomb" x="516" y="158" flags="0x1004"/>
      <component glyphName="Y" x="0" y="0" flags="0x1204"/>
    </TTGlyph>
    <TTGlyph name="Z" xMin="38" yMin="0" xMax="464" yMax="682">
      <contour>
        <pt x="38" y="620" on="1"/>
        <pt x="38" y="682" on="1"/>
        <pt x="464" y="682" on="1"/>
        <pt x="464" y="607" on="1"/>
        <pt x="123" y="62" on="1"/>
        <pt x="464" y="62" on="1"/>
        <pt x="464" y="0" on="1"/>
        <pt x="38" y="0" on="1"/>
        <pt x="38" y="63" on="1"/>
        <pt x="385" y="620" on="1"/>
      </contour>
    </TTGlyph>
    <TTGlyph name="Zacute" xMin="38" yMin="0" xMax="464" yMax="900">
      <component glyphName="acutecomb" x="572" y="158" flags="0x1004"/>
      <component glyphName="Z" x="0" y="0" flags="0x1204"/>
    </TTGlyph>
    <TTGlyph name="Zcaron" xMin="38" yMin="0" xMax="464" yMax="883">
      <component glyphName="uni030C" x="572" y="158" flags="0x1004"/>
      <component glyphName="Z" x="0" y="0" flags="0x1204"/>
    </TTGlyph>
    <TTGlyph name="Zdotaccent" xMin="38" yMin="0" xMax="464" yMax="825">
      <component glyphName="uni0307" x="572" y="158" flags="0x1004"/>
      <component glyphName="Z" x="0" y="0" flags="0x1204"/>
    </TTGlyph>
    <TTGlyph name="Zeta" xMin="38" yMin="0" xMax="464" yMax="682">
      <component glyphName="Z" x="0" y="0" flags="0x1004"/>
    </TTGlyph>
    <TTGlyph name="a" xMin="34" yMin="-16" xMax="498" yMax="484">
      <contour>
        <pt x="34" y="133" on="0"/>
        <pt x="34" y="335" on="0"/>
        <pt x="177" y="484" on="0"/>
        <pt x="266" y="484" on="1"/>
        <pt x="358" y="484" on="0"/>
        <pt x="430" y="406" on="1"/>
        <pt x="430" y="468" on="1"/>
        <pt x="498" y="468" on="1"/>
        <pt x="498" y="0" on="1"/>
        <pt x="430" y="0" on="1"/>
        <pt x="430" y="61" on="1"/>
        <pt x="359" y="-16" on="0"/>
        <pt x="268" y="-16" on="1"/>
        <pt x="179" y="-16" on="0"/>
      </contour>
      <contour>
        <pt x="102" y="311" on="0"/>
        <pt x="102" y="157" on="0"/>
        <pt x="201" y="46" on="0"/>
        <pt x="331" y="46" on="0"/>
        <pt x="430" y="157" on="0"/>
        <pt x="430" y="311" on="0"/>
        <pt x="331" y="422" on="0"/>
        <pt x="201" y="422" on="0"/>
      </contour>
    </TTGlyph>
    <TTGlyph name="aacute" xMin="34" yMin="-16" xMax="498" yMax="742">
      <component glyphName="uni02CA" x="138" y="0" flags="0x1004"/>
      <component glyphName="a" x="0" y="0" flags="0x1204"/>
    </TTGlyph>
    <TTGlyph name="abreve" xMin="34" yMin="-16" xMax="498" yMax="698">
      <component glyphName="uni0306" x="587" y="0" flags="0x1004"/>
      <component glyphName="a" x="0" y="0" flags="0x1204"/>
    </TTGlyph>
    <TTGlyph name="acircumflex" xMin="34" yMin="-16" xMax="498" yMax="725">
      <component glyphName="uni0302" x="587" y="0" flags="0x1004"/>
      <component glyphName="a" x="0" y="0" flags="0x1204"/>
    </TTGlyph>
    <TTGlyph name="acute" xMin="58" yMin="567" xMax="308" yMax="742">
      <contour>
        <pt x="58" y="601" on="1"/>
        <pt x="274" y="742" on="1"/>
        <pt x="308" y="684" on="1"/>
        <pt x="78" y="567" on="1"/>
      </contour>
    </TTGlyph>
    <TTGlyph name="acutecomb" xMin="-390" yMin="567" xMax="-140" yMax="742">
      <contour>
        <pt x="-390" y="601" on="1"/>
        <pt x="-174" y="742" on="1"/>
        <pt x="-140" y="684" on="1"/>
        <pt x="-370" y="567" on="1"/>
      </contour>
    </TTGlyph>
    <TTGlyph name="adieresis" xMin="34" yMin="-16" xMax="498" yMax="667">
      <component glyphName="dieresis" x="66" y="0" flags="0x1004"/>
      <component glyphName="a" x="0" y="0" flags="0x1204"/>
    </TTGlyph>
    <TTGlyph name="ae" xMin="27" yMin="-16" xMax="839" yMax="483">
      <contour>
        <pt x="111" y="356" on="1"/>
        <pt x="58" y="389" on="1"/>
        <pt x="83" y="421" on="0"/>
        <pt x="119" y="455" on="0"/>
        <pt x="190" y="483" on="0"/>
        <pt x="237" y="483" on="1"/>
        <pt x="362" y="483" on="0"/>
        <pt x="413" y="366" on="1"/>
        <pt x="446" y="419" on="0"/>
        <pt x="551" y="483" on="0"/>
        <pt x="607" y="483" on="1"/>
        <pt x="696" y="483" on="0"/>
        <pt x="839" y="335" on="0"/>
        <pt x="839" y="234" on="1"/>
        <pt x="443" y="234" on="1"/>
        <pt x="443" y="157" on="0"/>
        <pt x="542" y="46" on="0"/>
        <pt x="607" y="46" on="1"/>
        <pt x="679" y="46" on="0"/>
        <pt x="744" y="86" on="0"/>
        <pt x="770" y="130" on="1"/>
        <pt x="824" y="95" on="1"/>
        <pt x="787" y="39" on="0"/>
        <pt x="693" y="-16" on="0"/>
        <pt x="609" y="-16" on="1"/>
        <pt x="519" y="-16" on="0"/>
        <pt x="449" y="56" on="1"/>
        <pt x="362" y="-16" on="0"/>
        <pt x="208" y="-16" on="1"/>
        <pt x="129" y="-16" on="0"/>
        <pt x="27" y="62" on="0"/>
        <pt x="27" y="128" on="1"/>
        <pt x="27" y="198" on="0"/>
        <pt x="156" y="290" on="0"/>
        <pt x="294" y="290" on="1"/>
        <pt x="334" y="290" on="0"/>
        <pt x="373" y="278" on="1"/>
        <pt x="367" y="333" on="0"/>
        <pt x="296" y="421" on="0"/>
        <pt x="237" y="421" on="1"/>
        <pt x="187" y="421" on="0"/>
        <pt x="138" y="391" on="0"/>
      </contour>
      <contour>
        <pt x="453" y="296" on="1"/>
        <pt x="761" y="296" on="1"/>
        <pt x="744" y="351" on="0"/>
        <pt x="658" y="421" on="0"/>
        <pt x="556" y="421" on="0"/>
        <pt x="470" y="351" on="0"/>
      </contour>
      <contour>
        <pt x="408" y="110" on="1"/>
        <pt x="377" y="164" on="0"/>
        <pt x="374" y="219" on="1"/>
        <pt x="324" y="231" on="0"/>
        <pt x="295" y="231" on="1"/>
        <pt x="201" y="231" on="0"/>
        <pt x="102" y="177" on="0"/>
        <pt x="102" y="127" on="1"/>
        <pt x="102" y="96" on="0"/>
        <pt x="142" y="57" on="0"/>
        <pt x="187" y="46" on="0"/>
        <pt x="211" y="46" on="1"/>
        <pt x="329" y="46" on="0"/>
      </contour>
    </TTGlyph>
    <TTGlyph name="aeacute" xMin="27" yMin="-16" xMax="839" yMax="742">
      <component glyphName="uni02CA" x="343" y="0" flags="0x1004"/>
      <component glyphName="ae" x="0" y="0" flags="0x1204"/>
    </TTGlyph>
    <TTGlyph name="afii10017" xMin="1" yMin="0" xMax="576" yMax="682">
      <component glyphName="A" x="0" y="0" flags="0x1004"/>
    </TTGlyph>
    <TTGlyph name="afii10018" xMin="79" yMin="0" xMax="536" yMax="682">
      <contour>
        <pt x="79" y="0" on="1"/>
        <pt x="79" y="682" on="1"/>
        <pt x="481" y="682" on="1"/>
        <pt x="481" y="619" on="1"/>
        <pt x="154" y="619" on="1"/>
        <pt x="154" y="400" on="1"/>
        <pt x="297" y="400" on="1"/>
        <pt x="358" y="400" on="0"/>
        <pt x="463" y="359" on="0"/>
        <pt x="536" y="266" on="0"/>
        <pt x="536" y="134" on="0"/>
        <pt x="464" y="41" on="0"/>
        <pt x="360" y="0" on="0"/>
        <pt x="299" y="0" on="1"/>
      </contour>
      <contour>
        <pt x="154" y="338" on="1"/>
        <pt x="154" y="62" on="1"/>
        <pt x="297" y="62" on="1"/>
        <pt x="365" y="62" on="0"/>
        <pt x="454" y="134" on="0"/>
        <pt x="454" y="266" on="0"/>
        <pt x="365" y="338" on="0"/>
        <pt x="297" y="338" on="1"/>
      </contour>
    </TTGlyph>
    <TTGlyph name="afii10019" xMin="79" yMin="0" xMax="536" yMax="682">
      <component glyphName="B" x="0" y="0" flags="0x1004"/>
    </TTGlyph>
    <TTGlyph name="afii10020" xMin="79" yMin="0" xMax="461" yMax="682">
      <component glyphName="Gamma" x="0" y="0" flags="0x1004"/>
    </TTGlyph>
    <TTGlyph name="afii10021" xMin="8" yMin="-82" xMax="585" yMax="682">
      <contour>
        <pt x="83" y="0" on="1"/>
        <pt x="83" y="-82" on="1"/>
        <pt x="8" y="-82" on="1"/>
        <pt x="8" y="62" on="1"/>
        <pt x="73" y="62" on="1"/>
        <pt x="118" y="170" on="0"/>
        <pt x="182" y="502" on="0"/>
        <pt x="182" y="682" on="1"/>
        <pt x="547" y="682" on="1"/>
        <pt x="547" y="62" on="1"/>
        <pt x="585" y="62" on="1"/>
        <pt x="585" y="-82" on="1"/>
        <pt x="510" y="-82" on="1"/>
        <pt x="510" y="0" on="1"/>
        <pt x="472" y="0" on="1"/>
      </contour>
      <contour>
        <pt x="156" y="62" on="1"/>
        <pt x="472" y="62" on="1"/>
        <pt x="472" y="620" on="1"/>
        <pt x="257" y="620" on="1"/>
        <pt x="257" y="318" on="0"/>
      </contour>
    </TTGlyph>
    <TTGlyph name="afii10022" xMin="79" yMin="0" xMax="464" yMax="682">
      <component glyphName="E" x="0" y="0" flags="0x1004"/>
    </TTGlyph>
    <TTGlyph name="afii10023" xMin="79" yMin="0" xMax="464" yMax="825">
      <component glyphName="Edieresis" x="0" y="0" flags="0x1004"/>
    </TTGlyph>
    <TTGlyph name="afii10024" xMin="22" yMin="0" xMax="851" yMax="682">
      <contour>
        <pt x="42" y="608" on="1"/>
        <pt x="42" y="624" on="0"/>
        <pt x="44" y="667" on="0"/>
        <pt x="44" y="682" on="1"/>
        <pt x="101" y="682" on="0"/>
        <pt x="184" y="626" on="0"/>
        <pt x="236" y="543" on="0"/>
        <pt x="284" y="458" on="0"/>
        <pt x="354" y="388" on="0"/>
        <pt x="399" y="378" on="1"/>
        <pt x="399" y="682" on="1"/>
        <pt x="474" y="682" on="1"/>
        <pt x="474" y="378" on="1"/>
        <pt x="519" y="388" on="0"/>
        <pt x="589" y="458" on="0"/>
        <pt x="637" y="543" on="0"/>
        <pt x="689" y="626" on="0"/>
        <pt x="772" y="682" on="0"/>
        <pt x="829" y="682" on="1"/>
        <pt x="829" y="667" on="0"/>
        <pt x="831" y="624" on="0"/>
        <pt x="831" y="608" on="1"/>
        <pt x="793" y="608" on="0"/>
        <pt x="730" y="558" on="0"/>
        <pt x="692" y="492" on="0"/>
        <pt x="633" y="400" on="0"/>
        <pt x="606" y="372" on="1"/>
        <pt x="706" y="289" on="0"/>
        <pt x="851" y="73" on="0"/>
        <pt x="851" y="0" on="1"/>
        <pt x="760" y="0" on="1"/>
        <pt x="760" y="65" on="0"/>
        <pt x="651" y="244" on="0"/>
        <pt x="544" y="326" on="1"/>
        <pt x="511" y="309" on="0"/>
        <pt x="474" y="304" on="1"/>
        <pt x="474" y="0" on="1"/>
        <pt x="399" y="0" on="1"/>
        <pt x="399" y="304" on="1"/>
        <pt x="362" y="309" on="0"/>
        <pt x="329" y="326" on="1"/>
        <pt x="222" y="244" on="0"/>
        <pt x="113" y="65" on="0"/>
        <pt x="113" y="0" on="1"/>
        <pt x="22" y="0" on="1"/>
        <pt x="22" y="73" on="0"/>
        <pt x="167" y="289" on="0"/>
        <pt x="267" y="372" on="1"/>
        <pt x="240" y="400" on="0"/>
        <pt x="181" y="492" on="0"/>
        <pt x="143" y="558" on="0"/>
        <pt x="80" y="608" on="0"/>
      </contour>
    </TTGlyph>
    <TTGlyph name="afii10025" xMin="10" yMin="-16" xMax="470" yMax="697">
      <contour>
        <pt x="369" y="365" on="1"/>
        <pt x="470" y="319" on="0"/>
        <pt x="470" y="202" on="1"/>
        <pt x="470" y="98" on="0"/>
        <pt x="339" y="-16" on="0"/>
        <pt x="234" y="-16" on="1"/>
        <pt x="149" y="-16" on="0"/>
        <pt x="47" y="32" on="0"/>
        <pt x="10" y="79" on="1"/>
        <pt x="63" y="121" on="1"/>
        <pt x="112" y="52" on="0"/>
        <pt x="234" y="52" on="1"/>
        <pt x="302" y="52" on="0"/>
        <pt x="395" y="131" on="0"/>
        <pt x="395" y="186" on="1"/>
        <pt x="395" y="248" on="0"/>
        <pt x="298" y="327" on="0"/>
        <pt x="212" y="327" on="1"/>
        <pt x="212" y="394" on="1"/>
        <pt x="296" y="394" on="0"/>
        <pt x="372" y="460" on="0"/>
        <pt x="372" y="511" on="1"/>
        <pt x="372" y="559" on="0"/>
        <pt x="303" y="630" on="0"/>
        <pt x="249" y="630" on="1"/>
        <pt x="209" y="630" on="0"/>
        <pt x="124" y="606" on="0"/>
        <pt x="100" y="578" on="1"/>
        <pt x="50" y="625" on="1"/>
        <pt x="84" y="662" on="0"/>
        <pt x="197" y="697" on="0"/>
        <pt x="249" y="697" on="1"/>
        <pt x="335" y="697" on="0"/>
        <pt x="447" y="604" on="0"/>
        <pt x="447" y="511" on="1"/>
        <pt x="447" y="414" on="0"/>
      </contour>
    </TTGlyph>
    <TTGlyph name="afii10026" xMin="79" yMin="0" xMax="550" yMax="682">
      <contour>
        <pt x="550" y="0" on="1"/>
        <pt x="475" y="0" on="1"/>
        <pt x="475" y="557" on="1"/>
        <pt x="153" y="0" on="1"/>
        <pt x="79" y="0" on="1"/>
        <pt x="79" y="682" on="1"/>
        <pt x="153" y="682" on="1"/>
        <pt x="153" y="123" on="1"/>
        <pt x="475" y="682" on="1"/>
        <pt x="550" y="682" on="1"/>
      </contour>
    </TTGlyph>
    <TTGlyph name="afii10027" xMin="79" yMin="0" xMax="550" yMax="828">
      <contour>
        <pt x="333" y="719" on="1"/>
        <pt x="307" y="719" on="1"/>
        <pt x="247" y="719" on="0"/>
        <pt x="171" y="755" on="0"/>
        <pt x="171" y="784" on="1"/>
        <pt x="171" y="804" on="0"/>
        <pt x="192" y="828" on="1"/>
        <pt x="231" y="828" on="1"/>
        <pt x="225" y="812" on="0"/>
        <pt x="225" y="801" on="1"/>
        <pt x="225" y="764" on="0"/>
        <pt x="307" y="764" on="1"/>
        <pt x="333" y="764" on="1"/>
        <pt x="415" y="764" on="0"/>
        <pt x="415" y="801" on="1"/>
        <pt x="415" y="812" on="0"/>
        <pt x="409" y="828" on="1"/>
        <pt x="448" y="828" on="1"/>
        <pt x="469" y="804" on="0"/>
        <pt x="469" y="784" on="1"/>
        <pt x="469" y="755" on="0"/>
        <pt x="393" y="719" on="0"/>
      </contour>
      <contour>
        <pt x="550" y="0" on="1"/>
        <pt x="475" y="0" on="1"/>
        <pt x="475" y="557" on="1"/>
        <pt x="153" y="0" on="1"/>
        <pt x="79" y="0" on="1"/>
        <pt x="79" y="682" on="1"/>
        <pt x="153" y="682" on="1"/>
        <pt x="153" y="123" on="1"/>
        <pt x="475" y="682" on="1"/>
        <pt x="550" y="682" on="1"/>
      </contour>
    </TTGlyph>
    <TTGlyph name="afii10028" xMin="79" yMin="0" xMax="531" yMax="682">
      <contour>
        <pt x="79" y="0" on="1"/>
        <pt x="79" y="682" on="1"/>
        <pt x="154" y="682" on="1"/>
        <pt x="154" y="378" on="1"/>
        <pt x="199" y="388" on="0"/>
        <pt x="269" y="458" on="0"/>
        <pt x="317" y="543" on="0"/>
        <pt x="369" y="626" on="0"/>
        <pt x="452" y="682" on="0"/>
        <pt x="509" y="682" on="1"/>
        <pt x="509" y="667" on="0"/>
        <pt x="511" y="624" on="0"/>
        <pt x="511" y="608" on="1"/>
        <pt x="473" y="608" on="0"/>
        <pt x="410" y="558" on="0"/>
        <pt x="372" y="492" on="0"/>
        <pt x="313" y="400" on="0"/>
        <pt x="286" y="372" on="1"/>
        <pt x="386" y="289" on="0"/>
        <pt x="531" y="73" on="0"/>
        <pt x="531" y="0" on="1"/>
        <pt x="440" y="0" on="1"/>
        <pt x="440" y="65" on="0"/>
        <pt x="331" y="244" on="0"/>
        <pt x="224" y="326" on="1"/>
        <pt x="191" y="309" on="0"/>
        <pt x="154" y="304" on="1"/>
        <pt x="154" y="0" on="1"/>
      </contour>
    </TTGlyph>
    <TTGlyph name="afii10029" xMin="0" yMin="0" xMax="560" yMax="682">
      <contour>
        <pt x="216" y="148" on="1"/>
        <pt x="216" y="86" on="0"/>
        <pt x="130" y="0" on="0"/>
        <pt x="68" y="0" on="1"/>
        <pt x="0" y="0" on="1"/>
        <pt x="0" y="62" on="1"/>
        <pt x="61" y="62" on="1"/>
        <pt x="95" y="62" on="0"/>
        <pt x="141" y="113" on="0"/>
        <pt x="141" y="148" on="1"/>
        <pt x="141" y="682" on="1"/>
        <pt x="560" y="682" on="1"/>
        <pt x="560" y="0" on="1"/>
        <pt x="485" y="0" on="1"/>
        <pt x="485" y="620" on="1"/>
        <pt x="216" y="620" on="1"/>
      </contour>
    </TTGlyph>
    <TTGlyph name="afii10030" xMin="79" yMin="0" xMax="714" yMax="682">
      <component glyphName="M" x="0" y="0" flags="0x1004"/>
    </TTGlyph>
    <TTGlyph name="afii10031" xMin="79" yMin="0" xMax="529" yMax="682">
      <component glyphName="H" x="0" y="0" flags="0x1004"/>
    </TTGlyph>
    <TTGlyph name="afii10032" xMin="42" yMin="-16" xMax="628" yMax="697">
      <component glyphName="O" x="0" y="0" flags="0x1004"/>
    </TTGlyph>
    <TTGlyph name="afii10033" xMin="79" yMin="0" xMax="529" yMax="682">
      <component glyphName="Pi" x="0" y="0" flags="0x1004"/>
    </TTGlyph>
    <TTGlyph name="afii10034" xMin="79" yMin="0" xMax="536" yMax="682">
      <component glyphName="P" x="0" y="0" flags="0x1004"/>
    </TTGlyph>
    <TTGlyph name="afii10035" xMin="44" yMin="-16" xMax="546" yMax="697">
      <component glyphName="C" x="0" y="0" flags="0x1004"/>
    </TTGlyph>
    <TTGlyph name="afii10036" xMin="19" yMin="0" xMax="483" yMax="682">
      <component glyphName="T" x="0" y="0" flags="0x1004"/>
    </TTGlyph>
    <TTGlyph name="afii10037" xMin="18" yMin="0" xMax="446" yMax="682">
      <contour>
        <pt x="446" y="682" on="1"/>
        <pt x="264" y="152" on="1"/>
        <pt x="212" y="0" on="0"/>
        <pt x="52" y="0" on="1"/>
        <pt x="52" y="62" on="1"/>
        <pt x="152" y="62" on="0"/>
        <pt x="186" y="159" on="1"/>
        <pt x="206" y="216" on="1"/>
        <pt x="18" y="682" on="1"/>
        <pt x="99" y="682" on="1"/>
        <pt x="243" y="323" on="1"/>
        <pt x="367" y="682" on="1"/>
      </contour>
    </TTGlyph>
    <TTGlyph name="afii10038" xMin="26" yMin="0" xMax="612" yMax="682">
      <component glyphName="Phi" x="0" y="0" flags="0x1004"/>
    </TTGlyph>
    <TTGlyph name="afii10039" xMin="21" yMin="0" xMax="476" yMax="682">
      <component glyphName="X" x="0" y="0" flags="0x1004"/>
    </TTGlyph>
    <TTGlyph name="afii10040" xMin="79" yMin="-82" xMax="640" yMax="682">
      <contour>
        <pt x="640" y="62" on="1"/>
        <pt x="640" y="-82" on="1"/>
        <pt x="565" y="-82" on="1"/>
        <pt x="565" y="0" on="1"/>
        <pt x="79" y="0" on="1"/>
        <pt x="79" y="682" on="1"/>
        <pt x="154" y="682" on="1"/>
        <pt x="154" y="62" on="1"/>
        <pt x="494" y="62" on="1"/>
        <pt x="494" y="682" on="1"/>
        <pt x="569" y="682" on="1"/>
        <pt x="569" y="62" on="1"/>
      </contour>
    </TTGlyph>
    <TTGlyph name="afii10041" xMin="32" yMin="0" xMax="506" yMax="682">
      <contour>
        <pt x="430" y="524" on="1"/>
        <pt x="430" y="682" on="1"/>
        <pt x="506" y="682" on="1"/>
        <pt x="506" y="0" on="1"/>
        <pt x="430" y="0" on="1"/>
        <pt x="430" y="326" on="1"/>
        <pt x="366" y="262" on="0"/>
        <pt x="269" y="262" on="1"/>
        <pt x="163" y="262" on="0"/>
        <pt x="32" y="412" on="0"/>
        <pt x="32" y="524" on="1"/>
        <pt x="32" y="682" on="1"/>
        <pt x="107" y="682" on="1"/>
        <pt x="107" y="524" on="1"/>
        <pt x="107" y="442" on="0"/>
        <pt x="194" y="325" on="0"/>
        <pt x="344" y="325" on="0"/>
        <pt x="430" y="441" on="0"/>
      </contour>
    </TTGlyph>
    <TTGlyph name="afii10042" xMin="79" yMin="0" xMax="804" yMax="682">
      <contour>
        <pt x="804" y="682" on="1"/>
        <pt x="804" y="0" on="1"/>
        <pt x="79" y="0" on="1"/>
        <pt x="79" y="682" on="1"/>
        <pt x="154" y="682" on="1"/>
        <pt x="154" y="62" on="1"/>
        <pt x="404" y="62" on="1"/>
        <pt x="404" y="682" on="1"/>
        <pt x="479" y="682" on="1"/>
        <pt x="479" y="62" on="1"/>
        <pt x="729" y="62" on="1"/>
        <pt x="729" y="682" on="1"/>
      </contour>
    </TTGlyph>
    <TTGlyph name="afii10043" xMin="79" yMin="-82" xMax="876" yMax="682">
      <contour>
        <pt x="876" y="62" on="1"/>
        <pt x="876" y="-82" on="1"/>
        <pt x="801" y="-82" on="1"/>
        <pt x="801" y="0" on="1"/>
        <pt x="79" y="0" on="1"/>
        <pt x="79" y="682" on="1"/>
        <pt x="154" y="682" on="1"/>
        <pt x="154" y="62" on="1"/>
        <pt x="404" y="62" on="1"/>
        <pt x="404" y="682" on="1"/>
        <pt x="479" y="682" on="1"/>
        <pt x="479" y="62" on="1"/>
        <pt x="729" y="62" on="1"/>
        <pt x="729" y="682" on="1"/>
        <pt x="804" y="682" on="1"/>
        <pt x="804" y="62" on="1"/>
      </contour>
    </TTGlyph>
    <TTGlyph name="afii10044" xMin="9" yMin="0" xMax="607" yMax="682">
      <contour>
        <pt x="225" y="338" on="1"/>
        <pt x="225" y="62" on="1"/>
        <pt x="368" y="62" on="1"/>
        <pt x="436" y="62" on="0"/>
        <pt x="525" y="134" on="0"/>
        <pt x="525" y="266" on="0"/>
        <pt x="436" y="338" on="0"/>
        <pt x="368" y="338" on="1"/>
      </contour>
      <contour>
        <pt x="370" y="0" on="1"/>
        <pt x="150" y="0" on="1"/>
        <pt x="150" y="619" on="1"/>
        <pt x="9" y="619" on="1"/>
        <pt x="9" y="682" on="1"/>
        <pt x="225" y="682" on="1"/>
        <pt x="225" y="400" on="1"/>
        <pt x="368" y="400" on="1"/>
        <pt x="429" y="400" on="0"/>
        <pt x="534" y="359" on="0"/>
        <pt x="607" y="266" on="0"/>
        <pt x="607" y="134" on="0"/>
        <pt x="535" y="41" on="0"/>
        <pt x="431" y="0" on="0"/>
      </contour>
    </TTGlyph>
    <TTGlyph name="afii10045" xMin="79" yMin="0" xMax="730" yMax="682">
      <contour>
        <pt x="694" y="616" on="1"/>
        <pt x="694" y="66" on="1"/>
        <pt x="730" y="66" on="1"/>
        <pt x="730" y="0" on="1"/>
        <pt x="583" y="0" on="1"/>
        <pt x="583" y="66" on="1"/>
        <pt x="619" y="66" on="1"/>
        <pt x="619" y="616" on="1"/>
        <pt x="583" y="616" on="1"/>
        <pt x="583" y="682" on="1"/>
        <pt x="730" y="682" on="1"/>
        <pt x="730" y="616" on="1"/>
      </contour>
      <contour>
        <pt x="79" y="0" on="1"/>
        <pt x="79" y="682" on="1"/>
        <pt x="154" y="682" on="1"/>
        <pt x="154" y="400" on="1"/>
        <pt x="297" y="400" on="1"/>
        <pt x="358" y="400" on="0"/>
        <pt x="463" y="359" on="0"/>
        <pt x="536" y="266" on="0"/>
        <pt x="536" y="134" on="0"/>
        <pt x="464" y="41" on="0"/>
        <pt x="360" y="0" on="0"/>
        <pt x="299" y="0" on="1"/>
      </contour>
      <contour>
        <pt x="154" y="338" on="1"/>
        <pt x="154" y="62" on="1"/>
        <pt x="297" y="62" on="1"/>
        <pt x="365" y="62" on="0"/>
        <pt x="454" y="134" on="0"/>
        <pt x="454" y="266" on="0"/>
        <pt x="365" y="338" on="0"/>
        <pt x="297" y="338" on="1"/>
      </contour>
    </TTGlyph>
    <TTGlyph name="afii10046" xMin="79" yMin="0" xMax="536" yMax="682">
      <contour>
        <pt x="79" y="0" on="1"/>
        <pt x="79" y="682" on="1"/>
        <pt x="154" y="682" on="1"/>
        <pt x="154" y="400" on="1"/>
        <pt x="297" y="400" on="1"/>
        <pt x="358" y="400" on="0"/>
        <pt x="463" y="359" on="0"/>
        <pt x="536" y="266" on="0"/>
        <pt x="536" y="134" on="0"/>
        <pt x="464" y="41" on="0"/>
        <pt x="360" y="0" on="0"/>
        <pt x="299" y="0" on="1"/>
      </contour>
      <contour>
        <pt x="154" y="338" on="1"/>
        <pt x="154" y="62" on="1"/>
        <pt x="297" y="62" on="1"/>
        <pt x="365" y="62" on="0"/>
        <pt x="454" y="134" on="0"/>
        <pt x="454" y="266" on="0"/>
        <pt x="365" y="338" on="0"/>
        <pt x="297" y="338" on="1"/>
      </contour>
    </TTGlyph>
    <TTGlyph name="afii10047" xMin="27" yMin="-16" xMax="529" yMax="697">
      <contour>
        <pt x="27" y="144" on="1"/>
        <pt x="92" y="179" on="1"/>
        <pt x="160" y="53" on="0"/>
        <pt x="254" y="53" on="1"/>
        <pt x="335" y="53" on="0"/>
        <pt x="444" y="202" on="0"/>
        <pt x="452" y="310" on="1"/>
        <pt x="187" y="310" on="1"/>
        <pt x="187" y="372" on="1"/>
        <pt x="452" y="372" on="1"/>
        <pt x="444" y="479" on="0"/>
        <pt x="335" y="629" on="0"/>
        <pt x="254" y="629" on="1"/>
        <pt x="167" y="629" on="0"/>
        <pt x="98" y="515" on="1"/>
        <pt x="39" y="557" on="1"/>
        <pt x="130" y="697" on="0"/>
        <pt x="254" y="697" on="1"/>
        <pt x="368" y="697" on="0"/>
        <pt x="529" y="485" on="0"/>
        <pt x="529" y="195" on="0"/>
        <pt x="368" y="-16" on="0"/>
        <pt x="254" y="-16" on="1"/>
        <pt x="120" y="-16" on="0"/>
      </contour>
    </TTGlyph>
    <TTGlyph name="afii10048" xMin="79" yMin="-16" xMax="849" yMax="697">
      <contour>
        <pt x="79" y="0" on="1"/>
        <pt x="79" y="682" on="1"/>
        <pt x="154" y="682" on="1"/>
        <pt x="154" y="372" on="1"/>
        <pt x="264" y="372" on="1"/>
        <pt x="274" y="505" on="0"/>
        <pt x="448" y="697" on="0"/>
        <pt x="556" y="697" on="1"/>
        <pt x="672" y="697" on="0"/>
        <pt x="849" y="483" on="0"/>
        <pt x="849" y="197" on="0"/>
        <pt x="672" y="-16" on="0"/>
        <pt x="556" y="-16" on="1"/>
        <pt x="447" y="-16" on="0"/>
        <pt x="274" y="176" on="0"/>
        <pt x="264" y="310" on="1"/>
        <pt x="154" y="310" on="1"/>
        <pt x="154" y="0" on="1"/>
      </contour>
      <contour>
        <pt x="342" y="340" on="1"/>
        <pt x="342" y="226" on="0"/>
        <pt x="467" y="53" on="0"/>
        <pt x="645" y="53" on="0"/>
        <pt x="770" y="226" on="0"/>
        <pt x="770" y="340" on="1"/>
        <pt x="770" y="455" on="0"/>
        <pt x="644" y="629" on="0"/>
        <pt x="468" y="629" on="0"/>
        <pt x="342" y="455" on="0"/>
      </contour>
    </TTGlyph>
    <TTGlyph name="afii10049" xMin="26" yMin="0" xMax="483" yMax="682">
      <contour>
        <pt x="408" y="619" on="1"/>
        <pt x="306" y="619" on="1"/>
        <pt x="238" y="619" on="0"/>
        <pt x="149" y="547" on="0"/>
        <pt x="149" y="415" on="0"/>
        <pt x="238" y="344" on="0"/>
        <pt x="306" y="344" on="1"/>
        <pt x="408" y="344" on="1"/>
      </contour>
      <contour>
        <pt x="483" y="0" on="1"/>
        <pt x="408" y="0" on="1"/>
        <pt x="408" y="281" on="1"/>
        <pt x="382" y="281" on="1"/>
        <pt x="326" y="281" on="0"/>
        <pt x="223" y="234" on="0"/>
        <pt x="206" y="185" on="1"/>
        <pt x="173" y="88" on="0"/>
        <pt x="100" y="0" on="0"/>
        <pt x="26" y="0" on="1"/>
        <pt x="26" y="62" on="1"/>
        <pt x="47" y="62" on="0"/>
        <pt x="77" y="78" on="0"/>
        <pt x="99" y="114" on="0"/>
        <pt x="113" y="148" on="0"/>
        <pt x="123" y="177" on="1"/>
        <pt x="126" y="187" on="0"/>
        <pt x="128" y="192" on="1"/>
        <pt x="151" y="257" on="0"/>
        <pt x="209" y="296" on="1"/>
        <pt x="145" y="317" on="0"/>
        <pt x="67" y="410" on="0"/>
        <pt x="67" y="481" on="1"/>
        <pt x="67" y="547" on="0"/>
        <pt x="140" y="641" on="0"/>
        <pt x="245" y="682" on="0"/>
        <pt x="306" y="682" on="1"/>
        <pt x="483" y="682" on="1"/>
      </contour>
    </TTGlyph>
    <TTGlyph name="afii10050" xMin="79" yMin="0" xMax="461" yMax="763">
      <contour>
        <pt x="154" y="619" on="1"/>
        <pt x="154" y="0" on="1"/>
        <pt x="79" y="0" on="1"/>
        <pt x="79" y="682" on="1"/>
        <pt x="386" y="682" on="1"/>
        <pt x="386" y="763" on="1"/>
        <pt x="461" y="763" on="1"/>
        <pt x="461" y="619" on="1"/>
      </contour>
    </TTGlyph>
    <TTGlyph name="afii10051" xMin="19" yMin="-95" xMax="672" yMax="682">
      <contour>
        <pt x="19" y="620" on="1"/>
        <pt x="19" y="682" on="1"/>
        <pt x="483" y="682" on="1"/>
        <pt x="483" y="620" on="1"/>
        <pt x="288" y="620" on="1"/>
        <pt x="288" y="420" on="1"/>
        <pt x="344" y="478" on="0"/>
        <pt x="443" y="478" on="1"/>
        <pt x="559" y="478" on="0"/>
        <pt x="672" y="346" on="0"/>
        <pt x="672" y="204" on="1"/>
        <pt x="672" y="48" on="0"/>
        <pt x="559" y="-95" on="0"/>
        <pt x="426" y="-95" on="1"/>
        <pt x="426" y="-33" on="1"/>
        <pt x="517" y="-33" on="0"/>
        <pt x="593" y="73" on="0"/>
        <pt x="593" y="204" on="1"/>
        <pt x="593" y="306" on="0"/>
        <pt x="528" y="410" on="0"/>
        <pt x="443" y="410" on="1"/>
        <pt x="288" y="410" on="0"/>
        <pt x="288" y="179" on="1"/>
        <pt x="288" y="0" on="1"/>
        <pt x="214" y="0" on="1"/>
        <pt x="214" y="620" on="1"/>
      </contour>
    </TTGlyph>
    <TTGlyph name="afii10052" xMin="79" yMin="0" xMax="461" yMax="900">
      <component glyphName="uni02CA" x="148" y="158" flags="0x1004"/>
      <component glyphName="afii10020" x="0" y="0" flags="0x1204"/>
    </TTGlyph>
    <TTGlyph name="afii10053" xMin="44" yMin="-16" xMax="546" yMax="697">
      <contour>
        <pt x="546" y="144" on="1"/>
        <pt x="453" y="-16" on="0"/>
        <pt x="319" y="-16" on="1"/>
        <pt x="205" y="-16" on="0"/>
        <pt x="44" y="195" on="0"/>
        <pt x="44" y="485" on="0"/>
        <pt x="205" y="697" on="0"/>
        <pt x="319" y="697" on="1"/>
        <pt x="443" y="697" on="0"/>
        <pt x="534" y="557" on="1"/>
        <pt x="475" y="515" on="1"/>
        <pt x="406" y="629" on="0"/>
        <pt x="319" y="629" on="1"/>
        <pt x="238" y="629" on="0"/>
        <pt x="129" y="479" on="0"/>
        <pt x="121" y="372" on="1"/>
        <pt x="385" y="372" on="1"/>
        <pt x="385" y="310" on="1"/>
        <pt x="121" y="310" on="1"/>
        <pt x="129" y="202" on="0"/>
        <pt x="238" y="53" on="0"/>
        <pt x="319" y="53" on="1"/>
        <pt x="413" y="53" on="0"/>
        <pt x="481" y="179" on="1"/>
      </contour>
    </TTGlyph>
    <TTGlyph name="afii10054" xMin="31" yMin="-16" xMax="514" yMax="697">
      <component glyphName="S" x="0" y="0" flags="0x1004"/>
    </TTGlyph>
    <TTGlyph name="afii10055" xMin="53" yMin="0" xMax="200" yMax="682">
      <component glyphName="I" x="0" y="0" flags="0x1004"/>
    </TTGlyph>
    <TTGlyph name="afii10056" xMin="-24" yMin="0" xMax="280" yMax="825">
      <component glyphName="Idieresis" x="0" y="0" flags="0x1004"/>
    </TTGlyph>
    <TTGlyph name="afii10057" xMin="12" yMin="-16" xMax="416" yMax="682">
      <component glyphName="J" x="0" y="0" flags="0x1004"/>
    </TTGlyph>
    <TTGlyph name="afii10058" xMin="0" yMin="0" xMax="863" yMax="682">
      <contour>
        <pt x="216" y="148" on="1"/>
        <pt x="216" y="86" on="0"/>
        <pt x="130" y="0" on="0"/>
        <pt x="68" y="0" on="1"/>
        <pt x="0" y="0" on="1"/>
        <pt x="0" y="62" on="1"/>
        <pt x="61" y="62" on="1"/>
        <pt x="95" y="62" on="0"/>
        <pt x="141" y="113" on="0"/>
        <pt x="141" y="148" on="1"/>
        <pt x="141" y="682" on="1"/>
        <pt x="481" y="682" on="1"/>
        <pt x="481" y="400" on="1"/>
        <pt x="624" y="400" on="1"/>
        <pt x="685" y="400" on="0"/>
        <pt x="790" y="359" on="0"/>
        <pt x="863" y="266" on="0"/>
        <pt x="863" y="134" on="0"/>
        <pt x="791" y="41" on="0"/>
        <pt x="687" y="0" on="0"/>
        <pt x="626" y="0" on="1"/>
        <pt x="406" y="0" on="1"/>
        <pt x="406" y="620" on="1"/>
        <pt x="216" y="620" on="1"/>
      </contour>
      <contour>
        <pt x="481" y="62" on="1"/>
        <pt x="624" y="62" on="1"/>
        <pt x="692" y="62" on="0"/>
        <pt x="781" y="134" on="0"/>
        <pt x="781" y="266" on="0"/>
        <pt x="692" y="338" on="0"/>
        <pt x="624" y="338" on="1"/>
        <pt x="481" y="338" on="1"/>
      </contour>
    </TTGlyph>
    <TTGlyph name="afii10059" xMin="79" yMin="0" xMax="878" yMax="682">
      <contour>
        <pt x="79" y="0" on="1"/>
        <pt x="79" y="682" on="1"/>
        <pt x="154" y="682" on="1"/>
        <pt x="154" y="400" on="1"/>
        <pt x="421" y="400" on="1"/>
        <pt x="421" y="682" on="1"/>
        <pt x="497" y="682" on="1"/>
        <pt x="497" y="400" on="1"/>
        <pt x="639" y="400" on="1"/>
        <pt x="700" y="400" on="0"/>
        <pt x="805" y="359" on="0"/>
        <pt x="878" y="266" on="0"/>
        <pt x="878" y="134" on="0"/>
        <pt x="806" y="41" on="0"/>
        <pt x="702" y="0" on="0"/>
        <pt x="641" y="0" on="1"/>
        <pt x="421" y="0" on="1"/>
        <pt x="421" y="338" on="1"/>
        <pt x="154" y="338" on="1"/>
        <pt x="154" y="0" on="1"/>
      </contour>
      <contour>
        <pt x="497" y="338" on="1"/>
        <pt x="497" y="62" on="1"/>
        <pt x="639" y="62" on="1"/>
        <pt x="707" y="62" on="0"/>
        <pt x="796" y="134" on="0"/>
        <pt x="796" y="266" on="0"/>
        <pt x="707" y="338" on="0"/>
        <pt x="639" y="338" on="1"/>
      </contour>
    </TTGlyph>
    <TTGlyph name="afii10060" xMin="19" yMin="0" xMax="667" yMax="682">
      <contour>
        <pt x="593" y="0" on="1"/>
        <pt x="593" y="179" on="1"/>
        <pt x="593" y="410" on="0"/>
        <pt x="443" y="410" on="1"/>
        <pt x="288" y="410" on="0"/>
        <pt x="288" y="179" on="1"/>
        <pt x="288" y="0" on="1"/>
        <pt x="214" y="0" on="1"/>
        <pt x="214" y="620" on="1"/>
        <pt x="19" y="620" on="1"/>
        <pt x="19" y="682" on="1"/>
        <pt x="483" y="682" on="1"/>
        <pt x="483" y="620" on="1"/>
        <pt x="288" y="620" on="1"/>
        <pt x="288" y="420" on="1"/>
        <pt x="344" y="478" on="0"/>
        <pt x="443" y="478" on="1"/>
        <pt x="667" y="478" on="0"/>
        <pt x="667" y="179" on="1"/>
        <pt x="667" y="0" on="1"/>
      </contour>
    </TTGlyph>
    <TTGlyph name="afii10061" xMin="79" yMin="0" xMax="531" yMax="902">
      <component glyphName="uni02CA" x="175" y="160" flags="0x1004"/>
      <component glyphName="afii10028" x="0" y="0" flags="0x1204"/>
    </TTGlyph>
    <TTGlyph name="afii10062" xMin="18" yMin="0" xMax="446" yMax="828">
      <contour>
        <pt x="246" y="719" on="1"/>
        <pt x="220" y="719" on="1"/>
        <pt x="160" y="719" on="0"/>
        <pt x="84" y="755" on="0"/>
        <pt x="84" y="784" on="1"/>
        <pt x="84" y="804" on="0"/>
        <pt x="105" y="828" on="1"/>
        <pt x="144" y="828" on="1"/>
        <pt x="138" y="812" on="0"/>
        <pt x="138" y="801" on="1"/>
        <pt x="138" y="764" on="0"/>
        <pt x="220" y="764" on="1"/>
        <pt x="246" y="764" on="1"/>
        <pt x="328" y="764" on="0"/>
        <pt x="328" y="801" on="1"/>
        <pt x="328" y="812" on="0"/>
        <pt x="322" y="828" on="1"/>
        <pt x="361" y="828" on="1"/>
        <pt x="382" y="804" on="0"/>
        <pt x="382" y="784" on="1"/>
        <pt x="382" y="755" on="0"/>
        <pt x="306" y="719" on="0"/>
      </contour>
      <contour>
        <pt x="446" y="682" on="1"/>
        <pt x="264" y="152" on="1"/>
        <pt x="212" y="0" on="0"/>
        <pt x="52" y="0" on="1"/>
        <pt x="52" y="62" on="1"/>
        <pt x="152" y="62" on="0"/>
        <pt x="186" y="159" on="1"/>
        <pt x="206" y="216" on="1"/>
        <pt x="18" y="682" on="1"/>
        <pt x="99" y="682" on="1"/>
        <pt x="243" y="323" on="1"/>
        <pt x="367" y="682" on="1"/>
      </contour>
    </TTGlyph>
    <TTGlyph name="afii10065" xMin="34" yMin="-16" xMax="498" yMax="484">
      <component glyphName="a" x="0" y="0" flags="0x1004"/>
    </TTGlyph>
    <TTGlyph name="afii10066" xMin="52" yMin="-16" xMax="486" yMax="726">
      <contour>
        <pt x="439" y="726" on="1"/>
        <pt x="439" y="681" on="0"/>
        <pt x="370" y="626" on="0"/>
        <pt x="301" y="626" on="1"/>
        <pt x="170" y="626" on="0"/>
        <pt x="134" y="428" on="1"/>
        <pt x="195" y="484" on="0"/>
        <pt x="269" y="484" on="1"/>
        <pt x="356" y="484" on="0"/>
        <pt x="486" y="337" on="0"/>
        <pt x="486" y="131" on="0"/>
        <pt x="358" y="-16" on="0"/>
        <pt x="184" y="-16" on="0"/>
        <pt x="52" y="132" on="0"/>
        <pt x="52" y="234" on="1"/>
        <pt x="52" y="315" on="0"/>
        <pt x="64" y="442" on="0"/>
        <pt x="98" y="559" on="0"/>
        <pt x="152" y="636" on="0"/>
        <pt x="241" y="682" on="0"/>
        <pt x="301" y="682" on="1"/>
        <pt x="371" y="682" on="0"/>
        <pt x="371" y="726" on="1"/>
      </contour>
      <contour>
        <pt x="120" y="313" on="0"/>
        <pt x="120" y="155" on="0"/>
        <pt x="205" y="46" on="0"/>
        <pt x="333" y="46" on="0"/>
        <pt x="418" y="155" on="0"/>
        <pt x="418" y="313" on="0"/>
        <pt x="333" y="422" on="0"/>
        <pt x="205" y="422" on="0"/>
      </contour>
    </TTGlyph>
    <TTGlyph name="afii10067" xMin="63" yMin="0" xMax="433" yMax="468">
      <contour>
        <pt x="63" y="0" on="1"/>
        <pt x="63" y="468" on="1"/>
        <pt x="197" y="468" on="1"/>
        <pt x="305" y="468" on="0"/>
        <pt x="395" y="410" on="0"/>
        <pt x="395" y="345" on="1"/>
        <pt x="395" y="291" on="0"/>
        <pt x="357" y="261" on="1"/>
        <pt x="433" y="227" on="0"/>
        <pt x="433" y="146" on="1"/>
        <pt x="433" y="72" on="0"/>
        <pt x="318" y="0" on="0"/>
        <pt x="219" y="0" on="1"/>
      </contour>
      <contour>
        <pt x="131" y="62" on="1"/>
        <pt x="217" y="62" on="1"/>
        <pt x="357" y="62" on="0"/>
        <pt x="357" y="146" on="1"/>
        <pt x="357" y="190" on="0"/>
        <pt x="288" y="222" on="0"/>
        <pt x="217" y="222" on="1"/>
        <pt x="131" y="222" on="1"/>
      </contour>
      <contour>
        <pt x="131" y="406" on="1"/>
        <pt x="131" y="284" on="1"/>
        <pt x="194" y="284" on="1"/>
        <pt x="267" y="284" on="0"/>
        <pt x="319" y="308" on="0"/>
        <pt x="319" y="345" on="1"/>
        <pt x="319" y="383" on="0"/>
        <pt x="270" y="406" on="0"/>
        <pt x="197" y="406" on="1"/>
      </contour>
    </TTGlyph>
    <TTGlyph name="afii10068" xMin="63" yMin="0" xMax="365" yMax="468">
      <contour>
        <pt x="63" y="0" on="1"/>
        <pt x="63" y="468" on="1"/>
        <pt x="365" y="468" on="1"/>
        <pt x="365" y="406" on="1"/>
        <pt x="131" y="406" on="1"/>
        <pt x="131" y="0" on="1"/>
      </contour>
    </TTGlyph>
    <TTGlyph name="afii10069" xMin="4" yMin="-82" xMax="547" yMax="468">
      <contour>
        <pt x="79" y="0" on="1"/>
        <pt x="79" y="-82" on="1"/>
        <pt x="4" y="-82" on="1"/>
        <pt x="4" y="62" on="1"/>
        <pt x="75" y="62" on="1"/>
        <pt x="123" y="145" on="0"/>
        <pt x="178" y="330" on="0"/>
        <pt x="178" y="468" on="1"/>
        <pt x="470" y="468" on="1"/>
        <pt x="470" y="62" on="1"/>
        <pt x="547" y="62" on="1"/>
        <pt x="547" y="-82" on="1"/>
        <pt x="472" y="-82" on="1"/>
        <pt x="472" y="0" on="1"/>
        <pt x="470" y="0" on="1"/>
        <pt x="402" y="0" on="1"/>
      </contour>
      <contour>
        <pt x="156" y="62" on="1"/>
        <pt x="402" y="62" on="1"/>
        <pt x="402" y="406" on="1"/>
        <pt x="246" y="406" on="1"/>
        <pt x="246" y="211" on="0"/>
      </contour>
    </TTGlyph>
    <TTGlyph name="afii10070" xMin="34" yMin="-16" xMax="498" yMax="484">
      <component glyphName="e" x="0" y="0" flags="0x1004"/>
    </TTGlyph>
    <TTGlyph name="afii10071" xMin="34" yMin="-16" xMax="498" yMax="667">
      <component glyphName="edieresis" x="0" y="0" flags="0x1004"/>
    </TTGlyph>
    <TTGlyph name="afii10072" xMin="25" yMin="0" xMax="701" yMax="468">
      <contour>
        <pt x="47" y="394" on="1"/>
        <pt x="47" y="410" on="0"/>
        <pt x="48" y="453" on="0"/>
        <pt x="48" y="468" on="1"/>
        <pt x="101" y="468" on="0"/>
        <pt x="169" y="428" on="0"/>
        <pt x="204" y="370" on="0"/>
        <pt x="235" y="309" on="0"/>
        <pt x="288" y="260" on="0"/>
        <pt x="328" y="254" on="1"/>
        <pt x="328" y="468" on="1"/>
        <pt x="398" y="468" on="1"/>
        <pt x="398" y="254" on="1"/>
        <pt x="438" y="260" on="0"/>
        <pt x="491" y="309" on="0"/>
        <pt x="522" y="370" on="0"/>
        <pt x="557" y="428" on="0"/>
        <pt x="625" y="468" on="0"/>
        <pt x="678" y="468" on="1"/>
        <pt x="678" y="453" on="0"/>
        <pt x="679" y="410" on="0"/>
        <pt x="679" y="394" on="1"/>
        <pt x="647" y="394" on="0"/>
        <pt x="601" y="362" on="0"/>
        <pt x="577" y="322" on="0"/>
        <pt x="540" y="260" on="0"/>
        <pt x="523" y="241" on="1"/>
        <pt x="608" y="194" on="0"/>
        <pt x="701" y="50" on="0"/>
        <pt x="701" y="0" on="1"/>
        <pt x="620" y="0" on="1"/>
        <pt x="620" y="14" on="0"/>
        <pt x="607" y="55" on="0"/>
        <pt x="576" y="114" on="0"/>
        <pt x="508" y="174" on="0"/>
        <pt x="461" y="196" on="1"/>
        <pt x="429" y="183" on="0"/>
        <pt x="398" y="181" on="1"/>
        <pt x="398" y="0" on="1"/>
        <pt x="328" y="0" on="1"/>
        <pt x="328" y="181" on="1"/>
        <pt x="297" y="183" on="0"/>
        <pt x="265" y="196" on="1"/>
        <pt x="218" y="174" on="0"/>
        <pt x="150" y="114" on="0"/>
        <pt x="119" y="55" on="0"/>
        <pt x="106" y="14" on="0"/>
        <pt x="106" y="0" on="1"/>
        <pt x="25" y="0" on="1"/>
        <pt x="25" y="50" on="0"/>
        <pt x="118" y="194" on="0"/>
        <pt x="203" y="241" on="1"/>
        <pt x="186" y="260" on="0"/>
        <pt x="149" y="322" on="0"/>
        <pt x="125" y="362" on="0"/>
        <pt x="79" y="394" on="0"/>
      </contour>
    </TTGlyph>
    <TTGlyph name="afii10073" xMin="19" yMin="-10" xMax="391" yMax="478">
      <contour>
        <pt x="175" y="222" on="1"/>
        <pt x="175" y="284" on="1"/>
        <pt x="277" y="292" on="0"/>
        <pt x="277" y="345" on="1"/>
        <pt x="277" y="383" on="0"/>
        <pt x="239" y="416" on="0"/>
        <pt x="199" y="416" on="1"/>
        <pt x="154" y="416" on="0"/>
        <pt x="93" y="342" on="1"/>
        <pt x="46" y="382" on="1"/>
        <pt x="49" y="386" on="0"/>
        <pt x="74" y="416" on="0"/>
        <pt x="84" y="426" on="0"/>
        <pt x="107" y="450" on="0"/>
        <pt x="125" y="460" on="0"/>
        <pt x="151" y="473" on="0"/>
        <pt x="182" y="478" on="0"/>
        <pt x="199" y="478" on="1"/>
        <pt x="268" y="478" on="0"/>
        <pt x="353" y="407" on="0"/>
        <pt x="353" y="345" on="1"/>
        <pt x="353" y="293" on="0"/>
        <pt x="299" y="260" on="1"/>
        <pt x="391" y="220" on="0"/>
        <pt x="391" y="134" on="1"/>
        <pt x="391" y="68" on="0"/>
        <pt x="281" y="-10" on="0"/>
        <pt x="211" y="-10" on="1"/>
        <pt x="160" y="-10" on="0"/>
        <pt x="79" y="20" on="0"/>
        <pt x="46" y="47" on="0"/>
        <pt x="19" y="74" on="1"/>
        <pt x="63" y="118" on="1"/>
        <pt x="129" y="52" on="0"/>
        <pt x="209" y="52" on="1"/>
        <pt x="252" y="52" on="0"/>
        <pt x="315" y="99" on="0"/>
        <pt x="315" y="134" on="1"/>
        <pt x="315" y="222" on="0"/>
      </contour>
    </TTGlyph>
    <TTGlyph name="afii10074" xMin="63" yMin="0" xMax="467" yMax="468">
      <contour>
        <pt x="63" y="0" on="1"/>
        <pt x="63" y="468" on="1"/>
        <pt x="131" y="468" on="1"/>
        <pt x="131" y="77" on="1"/>
        <pt x="383" y="468" on="1"/>
        <pt x="467" y="468" on="1"/>
        <pt x="467" y="0" on="1"/>
        <pt x="399" y="0" on="1"/>
        <pt x="399" y="386" on="1"/>
        <pt x="150" y="0" on="1"/>
      </contour>
    </TTGlyph>
    <TTGlyph name="afii10075" xMin="63" yMin="0" xMax="467" yMax="676">
      <contour>
        <pt x="277" y="567" on="1"/>
        <pt x="251" y="567" on="1"/>
        <pt x="191" y="567" on="0"/>
        <pt x="115" y="603" on="0"/>
        <pt x="115" y="632" on="1"/>
        <pt x="115" y="652" on="0"/>
        <pt x="136" y="676" on="1"/>
        <pt x="175" y="676" on="1"/>
        <pt x="169" y="660" on="0"/>
        <pt x="169" y="649" on="1"/>
        <pt x="169" y="612" on="0"/>
        <pt x="251" y="612" on="1"/>
        <pt x="277" y="612" on="1"/>
        <pt x="359" y="612" on="0"/>
        <pt x="359" y="649" on="1"/>
        <pt x="359" y="660" on="0"/>
        <pt x="353" y="676" on="1"/>
        <pt x="392" y="676" on="1"/>
        <pt x="413" y="652" on="0"/>
        <pt x="413" y="632" on="1"/>
        <pt x="413" y="603" on="0"/>
        <pt x="337" y="567" on="0"/>
      </contour>
      <contour>
        <pt x="63" y="0" on="1"/>
        <pt x="63" y="468" on="1"/>
        <pt x="131" y="468" on="1"/>
        <pt x="131" y="77" on="1"/>
        <pt x="383" y="468" on="1"/>
        <pt x="467" y="468" on="1"/>
        <pt x="467" y="0" on="1"/>
        <pt x="399" y="0" on="1"/>
        <pt x="399" y="386" on="1"/>
        <pt x="150" y="0" on="1"/>
      </contour>
    </TTGlyph>
    <TTGlyph name="afii10076" xMin="63" yMin="0" xMax="435" yMax="468">
      <contour>
        <pt x="63" y="0" on="1"/>
        <pt x="63" y="468" on="1"/>
        <pt x="131" y="468" on="1"/>
        <pt x="131" y="254" on="1"/>
        <pt x="166" y="259" on="0"/>
        <pt x="215" y="296" on="0"/>
        <pt x="240" y="343" on="0"/>
        <pt x="271" y="396" on="0"/>
        <pt x="303" y="439" on="0"/>
        <pt x="367" y="468" on="0"/>
        <pt x="412" y="468" on="1"/>
        <pt x="412" y="453" on="0"/>
        <pt x="413" y="410" on="0"/>
        <pt x="413" y="394" on="1"/>
        <pt x="381" y="394" on="0"/>
        <pt x="335" y="362" on="0"/>
        <pt x="311" y="322" on="0"/>
        <pt x="274" y="260" on="0"/>
        <pt x="257" y="241" on="1"/>
        <pt x="342" y="194" on="0"/>
        <pt x="435" y="50" on="0"/>
        <pt x="435" y="0" on="1"/>
        <pt x="354" y="0" on="1"/>
        <pt x="354" y="14" on="0"/>
        <pt x="341" y="55" on="0"/>
        <pt x="310" y="114" on="0"/>
        <pt x="242" y="174" on="0"/>
        <pt x="195" y="196" on="1"/>
        <pt x="163" y="184" on="0"/>
        <pt x="131" y="181" on="1"/>
        <pt x="131" y="0" on="1"/>
      </contour>
    </TTGlyph>
    <TTGlyph name="afii10077" xMin="5" yMin="0" xMax="451" yMax="468">
      <contour>
        <pt x="214" y="148" on="1"/>
        <pt x="214" y="86" on="0"/>
        <pt x="134" y="0" on="0"/>
        <pt x="73" y="0" on="1"/>
        <pt x="5" y="0" on="1"/>
        <pt x="5" y="62" on="1"/>
        <pt x="66" y="62" on="1"/>
        <pt x="100" y="62" on="0"/>
        <pt x="146" y="113" on="0"/>
        <pt x="146" y="148" on="1"/>
        <pt x="146" y="468" on="1"/>
        <pt x="451" y="468" on="1"/>
        <pt x="451" y="0" on="1"/>
        <pt x="383" y="0" on="1"/>
        <pt x="383" y="406" on="1"/>
        <pt x="214" y="406" on="1"/>
      </contour>
    </TTGlyph>
    <TTGlyph name="afii10078" xMin="45" yMin="0" xMax="568" yMax="468">
      <contour>
        <pt x="519" y="468" on="1"/>
        <pt x="568" y="0" on="1"/>
        <pt x="500" y="0" on="1"/>
        <pt x="465" y="336" on="1"/>
        <pt x="342" y="0" on="1"/>
        <pt x="270" y="0" on="1"/>
        <pt x="148" y="336" on="1"/>
        <pt x="113" y="0" on="1"/>
        <pt x="45" y="0" on="1"/>
        <pt x="94" y="468" on="1"/>
        <pt x="172" y="468" on="1"/>
        <pt x="306" y="99" on="1"/>
        <pt x="440" y="468" on="1"/>
      </contour>
    </TTGlyph>
    <TTGlyph name="afii10079" xMin="63" yMin="0" xMax="467" yMax="468">
      <contour>
        <pt x="63" y="0" on="1"/>
        <pt x="63" y="468" on="1"/>
        <pt x="131" y="468" on="1"/>
        <pt x="131" y="274" on="1"/>
        <pt x="399" y="274" on="1"/>
        <pt x="399" y="468" on="1"/>
        <pt x="467" y="468" on="1"/>
        <pt x="467" y="0" on="1"/>
        <pt x="399" y="0" on="1"/>
        <pt x="399" y="212" on="1"/>
        <pt x="131" y="212" on="1"/>
        <pt x="131" y="0" on="1"/>
      </contour>
    </TTGlyph>
    <TTGlyph name="afii10080" xMin="34" yMin="-16" xMax="498" yMax="484">
      <component glyphName="o" x="0" y="0" flags="0x1004"/>
    </TTGlyph>
    <TTGlyph name="afii10081" xMin="63" yMin="0" xMax="467" yMax="468">
      <contour>
        <pt x="63" y="0" on="1"/>
        <pt x="63" y="468" on="1"/>
        <pt x="467" y="468" on="1"/>
        <pt x="467" y="0" on="1"/>
        <pt x="399" y="0" on="1"/>
        <pt x="399" y="406" on="1"/>
        <pt x="131" y="406" on="1"/>
        <pt x="131" y="0" on="1"/>
      </contour>
    </TTGlyph>
    <TTGlyph name="afii10082" xMin="63" yMin="-199" xMax="527" yMax="484">
      <component glyphName="p" x="0" y="0" flags="0x1004"/>
    </TTGlyph>
    <TTGlyph name="afii10083" xMin="34" yMin="-16" xMax="454" yMax="484">
      <component glyphName="c" x="0" y="0" flags="0x1004"/>
    </TTGlyph>
    <TTGlyph name="afii10084" xMin="13" yMin="0" xMax="443" yMax="468">
      <component glyphName="tau" x="0" y="0" flags="0x1004"/>
    </TTGlyph>
    <TTGlyph name="afii10085" xMin="1" yMin="-200" xMax="455" yMax="468">
      <component glyphName="y" x="0" y="0" flags="0x1004"/>
    </TTGlyph>
    <TTGlyph name="afii10086" xMin="34" yMin="-200" xMax="782" yMax="567">
      <contour>
        <pt x="374" y="95" on="1"/>
        <pt x="374" y="361" on="1"/>
        <pt x="329" y="422" on="0"/>
        <pt x="256" y="422" on="1"/>
        <pt x="192" y="422" on="0"/>
        <pt x="102" y="312" on="0"/>
        <pt x="102" y="234" on="1"/>
        <pt x="102" y="157" on="0"/>
        <pt x="201" y="46" on="0"/>
        <pt x="266" y="46" on="1"/>
        <pt x="325" y="46" on="0"/>
      </contour>
      <contour>
        <pt x="374" y="447" on="1"/>
        <pt x="374" y="567" on="1"/>
        <pt x="442" y="567" on="1"/>
        <pt x="442" y="447" on="1"/>
        <pt x="491" y="484" on="0"/>
        <pt x="560" y="484" on="1"/>
        <pt x="648" y="484" on="0"/>
        <pt x="782" y="336" on="0"/>
        <pt x="782" y="234" on="1"/>
        <pt x="782" y="133" on="0"/>
        <pt x="637" y="-16" on="0"/>
        <pt x="548" y="-16" on="1"/>
        <pt x="493" y="-16" on="0"/>
        <pt x="442" y="15" on="1"/>
        <pt x="442" y="-200" on="1"/>
        <pt x="374" y="-200" on="1"/>
        <pt x="374" y="15" on="1"/>
        <pt x="323" y="-16" on="0"/>
        <pt x="268" y="-16" on="1"/>
        <pt x="179" y="-16" on="0"/>
        <pt x="34" y="133" on="0"/>
        <pt x="34" y="234" on="1"/>
        <pt x="34" y="336" on="0"/>
        <pt x="168" y="484" on="0"/>
        <pt x="256" y="484" on="1"/>
        <pt x="325" y="484" on="0"/>
      </contour>
      <contour>
        <pt x="442" y="361" on="1"/>
        <pt x="442" y="95" on="1"/>
        <pt x="491" y="46" on="0"/>
        <pt x="550" y="46" on="1"/>
        <pt x="615" y="46" on="0"/>
        <pt x="714" y="157" on="0"/>
        <pt x="714" y="234" on="1"/>
        <pt x="714" y="312" on="0"/>
        <pt x="624" y="422" on="0"/>
        <pt x="560" y="422" on="1"/>
        <pt x="487" y="422" on="0"/>
      </contour>
    </TTGlyph>
    <TTGlyph name="afii10087" xMin="15" yMin="0" xMax="400" yMax="468">
      <component glyphName="x" x="0" y="0" flags="0x1004"/>
    </TTGlyph>
    <TTGlyph name="afii10088" xMin="63" yMin="-82" xMax="524" yMax="468">
      <contour>
        <pt x="524" y="62" on="1"/>
        <pt x="524" y="-82" on="1"/>
        <pt x="456" y="-82" on="1"/>
        <pt x="456" y="0" on="1"/>
        <pt x="63" y="0" on="1"/>
        <pt x="63" y="468" on="1"/>
        <pt x="131" y="468" on="1"/>
        <pt x="131" y="62" on="1"/>
        <pt x="399" y="62" on="1"/>
        <pt x="399" y="468" on="1"/>
        <pt x="467" y="468" on="1"/>
        <pt x="467" y="62" on="1"/>
      </contour>
    </TTGlyph>
    <TTGlyph name="afii10089" xMin="27" yMin="0" xMax="411" yMax="468">
      <contour>
        <pt x="27" y="347" on="1"/>
        <pt x="27" y="468" on="1"/>
        <pt x="94" y="468" on="1"/>
        <pt x="94" y="347" on="1"/>
        <pt x="94" y="292" on="0"/>
        <pt x="158" y="221" on="0"/>
        <pt x="280" y="221" on="0"/>
        <pt x="342" y="325" on="0"/>
        <pt x="342" y="408" on="1"/>
        <pt x="342" y="468" on="1"/>
        <pt x="411" y="468" on="1"/>
        <pt x="411" y="0" on="1"/>
        <pt x="342" y="0" on="1"/>
        <pt x="342" y="207" on="1"/>
        <pt x="293" y="158" on="0"/>
        <pt x="219" y="158" on="1"/>
        <pt x="131" y="158" on="0"/>
        <pt x="27" y="258" on="0"/>
      </contour>
    </TTGlyph>
    <TTGlyph name="afii10090" xMin="63" yMin="0" xMax="627" yMax="468">
      <contour>
        <pt x="627" y="468" on="1"/>
        <pt x="627" y="0" on="1"/>
        <pt x="63" y="0" on="1"/>
        <pt x="63" y="468" on="1"/>
        <pt x="131" y="468" on="1"/>
        <pt x="131" y="62" on="1"/>
        <pt x="311" y="62" on="1"/>
        <pt x="311" y="468" on="1"/>
        <pt x="379" y="468" on="1"/>
        <pt x="379" y="62" on="1"/>
        <pt x="559" y="62" on="1"/>
        <pt x="559" y="468" on="1"/>
      </contour>
    </TTGlyph>
    <TTGlyph name="afii10091" xMin="63" yMin="-82" xMax="684" yMax="468">
      <contour>
        <pt x="684" y="62" on="1"/>
        <pt x="684" y="-82" on="1"/>
        <pt x="616" y="-82" on="1"/>
        <pt x="616" y="0" on="1"/>
        <pt x="379" y="0" on="1"/>
        <pt x="63" y="0" on="1"/>
        <pt x="63" y="468" on="1"/>
        <pt x="131" y="468" on="1"/>
        <pt x="131" y="62" on="1"/>
        <pt x="311" y="62" on="1"/>
        <pt x="311" y="468" on="1"/>
        <pt x="379" y="468" on="1"/>
        <pt x="379" y="62" on="1"/>
        <pt x="559" y="62" on="1"/>
        <pt x="559" y="468" on="1"/>
        <pt x="627" y="468" on="1"/>
        <pt x="627" y="62" on="1"/>
      </contour>
    </TTGlyph>
    <TTGlyph name="afii10092" xMin="9" yMin="0" xMax="502" yMax="468">
      <contour>
        <pt x="200" y="248" on="1"/>
        <pt x="200" y="62" on="1"/>
        <pt x="286" y="62" on="1"/>
        <pt x="352" y="62" on="0"/>
        <pt x="426" y="109" on="0"/>
        <pt x="426" y="201" on="0"/>
        <pt x="352" y="248" on="0"/>
        <pt x="286" y="248" on="1"/>
      </contour>
      <contour>
        <pt x="132" y="406" on="1"/>
        <pt x="9" y="406" on="1"/>
        <pt x="9" y="468" on="1"/>
        <pt x="200" y="468" on="1"/>
        <pt x="200" y="310" on="1"/>
        <pt x="286" y="310" on="1"/>
        <pt x="384" y="310" on="0"/>
        <pt x="502" y="230" on="0"/>
        <pt x="502" y="80" on="0"/>
        <pt x="386" y="0" on="0"/>
        <pt x="288" y="0" on="1"/>
        <pt x="132" y="0" on="1"/>
      </contour>
    </TTGlyph>
    <TTGlyph name="afii10093" xMin="63" yMin="0" xMax="565" yMax="468">
      <contour>
        <pt x="497" y="0" on="1"/>
        <pt x="497" y="468" on="1"/>
        <pt x="565" y="468" on="1"/>
        <pt x="565" y="0" on="1"/>
      </contour>
      <contour>
        <pt x="63" y="0" on="1"/>
        <pt x="63" y="468" on="1"/>
        <pt x="131" y="468" on="1"/>
        <pt x="131" y="310" on="1"/>
        <pt x="217" y="310" on="1"/>
        <pt x="315" y="310" on="0"/>
        <pt x="433" y="230" on="0"/>
        <pt x="433" y="80" on="0"/>
        <pt x="317" y="0" on="0"/>
        <pt x="219" y="0" on="1"/>
      </contour>
      <contour>
        <pt x="131" y="248" on="1"/>
        <pt x="131" y="62" on="1"/>
        <pt x="217" y="62" on="1"/>
        <pt x="283" y="62" on="0"/>
        <pt x="357" y="109" on="0"/>
        <pt x="357" y="201" on="0"/>
        <pt x="283" y="248" on="0"/>
        <pt x="217" y="248" on="1"/>
      </contour>
    </TTGlyph>
    <TTGlyph name="afii10094" xMin="63" yMin="0" xMax="433" yMax="468">
      <contour>
        <pt x="63" y="0" on="1"/>
        <pt x="63" y="468" on="1"/>
        <pt x="131" y="468" on="1"/>
        <pt x="131" y="310" on="1"/>
        <pt x="217" y="310" on="1"/>
        <pt x="315" y="310" on="0"/>
        <pt x="433" y="230" on="0"/>
        <pt x="433" y="80" on="0"/>
        <pt x="317" y="0" on="0"/>
        <pt x="219" y="0" on="1"/>
      </contour>
      <contour>
        <pt x="131" y="248" on="1"/>
        <pt x="131" y="62" on="1"/>
        <pt x="217" y="62" on="1"/>
        <pt x="283" y="62" on="0"/>
        <pt x="357" y="109" on="0"/>
        <pt x="357" y="201" on="0"/>
        <pt x="283" y="248" on="0"/>
        <pt x="217" y="248" on="1"/>
      </contour>
    </TTGlyph>
    <TTGlyph name="afii10095" xMin="19" yMin="-16" xMax="439" yMax="484">
      <contour>
        <pt x="19" y="74" on="1"/>
        <pt x="72" y="111" on="1"/>
        <pt x="98" y="77" on="0"/>
        <pt x="155" y="46" on="0"/>
        <pt x="207" y="46" on="1"/>
        <pt x="267" y="46" on="0"/>
        <pt x="363" y="142" on="0"/>
        <pt x="370" y="212" on="1"/>
        <pt x="130" y="212" on="1"/>
        <pt x="130" y="274" on="1"/>
        <pt x="367" y="274" on="1"/>
        <pt x="354" y="338" on="0"/>
        <pt x="263" y="422" on="0"/>
        <pt x="207" y="422" on="1"/>
        <pt x="130" y="422" on="0"/>
        <pt x="80" y="351" on="1"/>
        <pt x="30" y="390" on="1"/>
        <pt x="64" y="433" on="0"/>
        <pt x="158" y="484" on="0"/>
        <pt x="207" y="484" on="1"/>
        <pt x="296" y="484" on="0"/>
        <pt x="439" y="335" on="0"/>
        <pt x="439" y="133" on="0"/>
        <pt x="294" y="-16" on="0"/>
        <pt x="205" y="-16" on="1"/>
        <pt x="140" y="-16" on="0"/>
        <pt x="55" y="29" on="0"/>
      </contour>
    </TTGlyph>
    <TTGlyph name="afii10096" xMin="63" yMin="-16" xMax="687" yMax="484">
      <contour>
        <pt x="291" y="311" on="0"/>
        <pt x="291" y="157" on="0"/>
        <pt x="390" y="46" on="0"/>
        <pt x="520" y="46" on="0"/>
        <pt x="619" y="157" on="0"/>
        <pt x="619" y="311" on="0"/>
        <pt x="520" y="422" on="0"/>
        <pt x="390" y="422" on="0"/>
      </contour>
      <contour>
        <pt x="63" y="0" on="1"/>
        <pt x="63" y="468" on="1"/>
        <pt x="131" y="468" on="1"/>
        <pt x="131" y="274" on="1"/>
        <pt x="226" y="274" on="1"/>
        <pt x="241" y="362" on="0"/>
        <pt x="376" y="484" on="0"/>
        <pt x="455" y="484" on="1"/>
        <pt x="544" y="484" on="0"/>
        <pt x="687" y="335" on="0"/>
        <pt x="687" y="133" on="0"/>
        <pt x="545" y="-16" on="0"/>
        <pt x="457" y="-16" on="1"/>
        <pt x="374" y="-16" on="0"/>
        <pt x="233" y="118" on="0"/>
        <pt x="224" y="212" on="1"/>
        <pt x="131" y="212" on="1"/>
        <pt x="131" y="0" on="1"/>
      </contour>
    </TTGlyph>
    <TTGlyph name="afii10097" xMin="38" yMin="0" xMax="408" yMax="468">
      <contour>
        <pt x="340" y="220" on="1"/>
        <pt x="340" y="406" on="1"/>
        <pt x="254" y="406" on="1"/>
        <pt x="188" y="406" on="0"/>
        <pt x="114" y="359" on="0"/>
        <pt x="114" y="267" on="0"/>
        <pt x="188" y="220" on="0"/>
        <pt x="254" y="220" on="1"/>
      </contour>
      <contour>
        <pt x="408" y="468" on="1"/>
        <pt x="408" y="0" on="1"/>
        <pt x="340" y="0" on="1"/>
        <pt x="340" y="158" on="1"/>
        <pt x="254" y="158" on="1"/>
        <pt x="234" y="158" on="1"/>
        <pt x="123" y="0" on="1"/>
        <pt x="40" y="0" on="1"/>
        <pt x="159" y="170" on="1"/>
        <pt x="38" y="204" on="0"/>
        <pt x="38" y="313" on="1"/>
        <pt x="38" y="388" on="0"/>
        <pt x="154" y="468" on="0"/>
        <pt x="252" y="468" on="1"/>
      </contour>
    </TTGlyph>
    <TTGlyph name="afii10098" xMin="63" yMin="0" xMax="365" yMax="550">
      <contour>
        <pt x="63" y="0" on="1"/>
        <pt x="63" y="468" on="1"/>
        <pt x="290" y="468" on="1"/>
        <pt x="290" y="550" on="1"/>
        <pt x="365" y="550" on="1"/>
        <pt x="365" y="406" on="1"/>
        <pt x="131" y="406" on="1"/>
        <pt x="131" y="0" on="1"/>
      </contour>
    </TTGlyph>
    <TTGlyph name="afii10099" xMin="17" yMin="-170" xMax="477" yMax="726">
      <contour>
        <pt x="477" y="-21" on="1"/>
        <pt x="477" y="-83" on="0"/>
        <pt x="390" y="-170" on="0"/>
        <pt x="329" y="-170" on="1"/>
        <pt x="249" y="-170" on="1"/>
        <pt x="249" y="-107" on="1"/>
        <pt x="329" y="-107" on="1"/>
        <pt x="363" y="-107" on="0"/>
        <pt x="409" y="-56" on="0"/>
        <pt x="409" y="-21" on="1"/>
        <pt x="409" y="296" on="1"/>
        <pt x="409" y="349" on="0"/>
        <pt x="333" y="422" on="0"/>
        <pt x="207" y="422" on="0"/>
        <pt x="131" y="314" on="0"/>
        <pt x="131" y="234" on="1"/>
        <pt x="131" y="0" on="1"/>
        <pt x="63" y="0" on="1"/>
        <pt x="63" y="619" on="1"/>
        <pt x="17" y="619" on="1"/>
        <pt x="17" y="682" on="1"/>
        <pt x="63" y="682" on="1"/>
        <pt x="63" y="726" on="1"/>
        <pt x="131" y="726" on="1"/>
        <pt x="131" y="682" on="1"/>
        <pt x="299" y="682" on="1"/>
        <pt x="299" y="619" on="1"/>
        <pt x="131" y="619" on="1"/>
        <pt x="131" y="425" on="1"/>
        <pt x="188" y="484" on="0"/>
        <pt x="270" y="484" on="1"/>
        <pt x="359" y="484" on="0"/>
        <pt x="477" y="383" on="0"/>
        <pt x="477" y="296" on="1"/>
      </contour>
    </TTGlyph>
    <TTGlyph name="afii10100" xMin="63" yMin="0" xMax="406" yMax="745">
      <component glyphName="uni02CA" x="97" y="3" flags="0x1004"/>
      <component glyphName="afii10068" x="0" y="0" flags="0x1204"/>
    </TTGlyph>
    <TTGlyph name="afii10101" xMin="34" yMin="-16" xMax="454" yMax="484">
      <contour>
        <pt x="454" y="74" on="1"/>
        <pt x="418" y="29" on="0"/>
        <pt x="333" y="-16" on="0"/>
        <pt x="268" y="-16" on="1"/>
        <pt x="179" y="-16" on="0"/>
        <pt x="34" y="133" on="0"/>
        <pt x="34" y="335" on="0"/>
        <pt x="177" y="484" on="0"/>
        <pt x="266" y="484" on="1"/>
        <pt x="315" y="484" on="0"/>
        <pt x="409" y="433" on="0"/>
        <pt x="443" y="390" on="1"/>
        <pt x="393" y="351" on="1"/>
        <pt x="343" y="422" on="0"/>
        <pt x="266" y="422" on="1"/>
        <pt x="210" y="422" on="0"/>
        <pt x="119" y="338" on="0"/>
        <pt x="106" y="274" on="1"/>
        <pt x="339" y="274" on="1"/>
        <pt x="339" y="212" on="1"/>
        <pt x="103" y="212" on="1"/>
        <pt x="110" y="142" on="0"/>
        <pt x="206" y="46" on="0"/>
        <pt x="266" y="46" on="1"/>
        <pt x="318" y="46" on="0"/>
        <pt x="375" y="77" on="0"/>
        <pt x="401" y="111" on="1"/>
      </contour>
    </TTGlyph>
    <TTGlyph name="afii10102" xMin="30" yMin="-16" xMax="433" yMax="484">
      <component glyphName="s" x="0" y="0" flags="0x1004"/>
    </TTGlyph>
    <TTGlyph name="afii10103" xMin="43" yMin="0" xMax="151" yMax="667">
      <component glyphName="i" x="0" y="0" flags="0x1004"/>
    </TTGlyph>
    <TTGlyph name="afii10104" xMin="-55" yMin="0" xMax="249" yMax="667">
      <component glyphName="idieresis" x="0" y="0" flags="0x1004"/>
    </TTGlyph>
    <TTGlyph name="afii10105" xMin="-45" yMin="-200" xMax="151" yMax="667">
      <component glyphName="j" x="0" y="0" flags="0x1004"/>
    </TTGlyph>
    <TTGlyph name="afii10106" xMin="5" yMin="0" xMax="752" yMax="468">
      <contour>
        <pt x="214" y="148" on="1"/>
        <pt x="214" y="86" on="0"/>
        <pt x="134" y="0" on="0"/>
        <pt x="73" y="0" on="1"/>
        <pt x="5" y="0" on="1"/>
        <pt x="5" y="62" on="1"/>
        <pt x="66" y="62" on="1"/>
        <pt x="100" y="62" on="0"/>
        <pt x="146" y="113" on="0"/>
        <pt x="146" y="148" on="1"/>
        <pt x="146" y="468" on="1"/>
        <pt x="451" y="468" on="1"/>
        <pt x="451" y="310" on="1"/>
        <pt x="536" y="310" on="1"/>
        <pt x="634" y="310" on="0"/>
        <pt x="752" y="230" on="0"/>
        <pt x="752" y="80" on="0"/>
        <pt x="636" y="0" on="0"/>
        <pt x="538" y="0" on="1"/>
        <pt x="382" y="0" on="1"/>
        <pt x="382" y="406" on="1"/>
        <pt x="214" y="406" on="1"/>
      </contour>
      <contour>
        <pt x="451" y="248" on="1"/>
        <pt x="451" y="62" on="1"/>
        <pt x="536" y="62" on="1"/>
        <pt x="602" y="62" on="0"/>
        <pt x="676" y="109" on="0"/>
        <pt x="676" y="201" on="0"/>
        <pt x="602" y="248" on="0"/>
        <pt x="536" y="248" on="1"/>
      </contour>
    </TTGlyph>
    <TTGlyph name="afii10107" xMin="63" yMin="0" xMax="768" yMax="468">
      <contour>
        <pt x="63" y="0" on="1"/>
        <pt x="63" y="468" on="1"/>
        <pt x="131" y="468" on="1"/>
        <pt x="131" y="274" on="1"/>
        <pt x="398" y="274" on="1"/>
        <pt x="398" y="468" on="1"/>
        <pt x="467" y="468" on="1"/>
        <pt x="467" y="310" on="1"/>
        <pt x="552" y="310" on="1"/>
        <pt x="650" y="310" on="0"/>
        <pt x="768" y="230" on="0"/>
        <pt x="768" y="80" on="0"/>
        <pt x="652" y="0" on="0"/>
        <pt x="554" y="0" on="1"/>
        <pt x="398" y="0" on="1"/>
        <pt x="398" y="212" on="1"/>
        <pt x="131" y="212" on="1"/>
        <pt x="131" y="0" on="1"/>
      </contour>
      <contour>
        <pt x="467" y="248" on="1"/>
        <pt x="467" y="62" on="1"/>
        <pt x="552" y="62" on="1"/>
        <pt x="618" y="62" on="0"/>
        <pt x="692" y="109" on="0"/>
        <pt x="692" y="201" on="0"/>
        <pt x="618" y="248" on="0"/>
        <pt x="552" y="248" on="1"/>
      </contour>
    </TTGlyph>
    <TTGlyph name="afii10108" xMin="17" yMin="0" xMax="477" yMax="726">
      <contour>
        <pt x="409" y="0" on="1"/>
        <pt x="409" y="296" on="1"/>
        <pt x="409" y="349" on="0"/>
        <pt x="333" y="422" on="0"/>
        <pt x="207" y="422" on="0"/>
        <pt x="131" y="314" on="0"/>
        <pt x="131" y="234" on="1"/>
        <pt x="131" y="0" on="1"/>
        <pt x="63" y="0" on="1"/>
        <pt x="63" y="619" on="1"/>
        <pt x="17" y="619" on="1"/>
        <pt x="17" y="682" on="1"/>
        <pt x="63" y="682" on="1"/>
        <pt x="63" y="726" on="1"/>
        <pt x="131" y="726" on="1"/>
        <pt x="131" y="682" on="1"/>
        <pt x="299" y="682" on="1"/>
        <pt x="299" y="619" on="1"/>
        <pt x="131" y="619" on="1"/>
        <pt x="131" y="425" on="1"/>
        <pt x="188" y="484" on="0"/>
        <pt x="270" y="484" on="1"/>
        <pt x="359" y="484" on="0"/>
        <pt x="477" y="383" on="0"/>
        <pt x="477" y="296" on="1"/>
        <pt x="477" y="0" on="1"/>
      </contour>
    </TTGlyph>
    <TTGlyph name="afii10109" xMin="63" yMin="0" xMax="435" yMax="743">
      <component glyphName="uni02CA" x="115" y="1" flags="0x1004"/>
      <component glyphName="afii10076" x="0" y="0" flags="0x1204"/>
    </TTGlyph>
    <TTGlyph name="afii10110" xMin="1" yMin="-200" xMax="455" yMax="676">
      <contour>
        <pt x="248" y="567" on="1"/>
        <pt x="222" y="567" on="1"/>
        <pt x="162" y="567" on="0"/>
        <pt x="86" y="603" on="0"/>
        <pt x="86" y="632" on="1"/>
        <pt x="86" y="652" on="0"/>
        <pt x="107" y="676" on="1"/>
        <pt x="146" y="676" on="1"/>
        <pt x="140" y="660" on="0"/>
        <pt x="140" y="649" on="1"/>
        <pt x="140" y="612" on="0"/>
        <pt x="222" y="612" on="1"/>
        <pt x="248" y="612" on="1"/>
        <pt x="330" y="612" on="0"/>
        <pt x="330" y="649" on="1"/>
        <pt x="330" y="660" on="0"/>
        <pt x="324" y="676" on="1"/>
        <pt x="363" y="676" on="1"/>
        <pt x="384" y="652" on="0"/>
        <pt x="384" y="632" on="1"/>
        <pt x="384" y="603" on="0"/>
        <pt x="308" y="567" on="0"/>
      </contour>
      <contour>
        <pt x="228" y="88" on="1"/>
        <pt x="381" y="468" on="1"/>
        <pt x="455" y="468" on="1"/>
        <pt x="184" y="-200" on="1"/>
        <pt x="111" y="-200" on="1"/>
        <pt x="191" y="-1" on="1"/>
        <pt x="1" y="468" on="1"/>
        <pt x="75" y="468" on="1"/>
      </contour>
    </TTGlyph>
    <TTGlyph name="afii10145" xMin="79" yMin="-82" xMax="549" yMax="682">
      <contour>
        <pt x="355" y="0" on="1"/>
        <pt x="355" y="-82" on="1"/>
        <pt x="280" y="-82" on="1"/>
        <pt x="280" y="0" on="1"/>
        <pt x="79" y="0" on="1"/>
        <pt x="79" y="682" on="1"/>
        <pt x="154" y="682" on="1"/>
        <pt x="154" y="62" on="1"/>
        <pt x="474" y="62" on="1"/>
        <pt x="474" y="682" on="1"/>
        <pt x="549" y="682" on="1"/>
        <pt x="549" y="0" on="1"/>
      </contour>
    </TTGlyph>
    <TTGlyph name="afii10193" xMin="63" yMin="-82" xMax="467" yMax="468">
      <contour>
        <pt x="467" y="468" on="1"/>
        <pt x="467" y="0" on="1"/>
        <pt x="300" y="0" on="1"/>
        <pt x="300" y="-82" on="1"/>
        <pt x="232" y="-82" on="1"/>
        <pt x="232" y="0" on="1"/>
        <pt x="63" y="0" on="1"/>
        <pt x="63" y="468" on="1"/>
        <pt x="131" y="468" on="1"/>
        <pt x="131" y="62" on="1"/>
        <pt x="399" y="62" on="1"/>
        <pt x="399" y="468" on="1"/>
      </contour>
    </TTGlyph>
    <TTGlyph name="afii10846" xMin="29" yMin="-16" xMax="493" yMax="484">
      <contour>
        <pt x="426" y="234" on="1"/>
        <pt x="426" y="311" on="0"/>
        <pt x="327" y="423" on="0"/>
        <pt x="262" y="423" on="1"/>
        <pt x="190" y="423" on="0"/>
        <pt x="125" y="383" on="0"/>
        <pt x="99" y="338" on="1"/>
        <pt x="44" y="374" on="1"/>
        <pt x="80" y="430" on="0"/>
        <pt x="176" y="484" on="0"/>
        <pt x="260" y="484" on="1"/>
        <pt x="349" y="484" on="0"/>
        <pt x="493" y="335" on="0"/>
        <pt x="493" y="133" on="0"/>
        <pt x="350" y="-16" on="0"/>
        <pt x="262" y="-16" on="1"/>
        <pt x="173" y="-16" on="0"/>
        <pt x="29" y="133" on="0"/>
        <pt x="29" y="234" on="1"/>
      </contour>
      <contour>
        <pt x="417" y="173" on="1"/>
        <pt x="107" y="173" on="1"/>
        <pt x="124" y="118" on="0"/>
        <pt x="211" y="47" on="0"/>
        <pt x="313" y="47" on="0"/>
        <pt x="400" y="118" on="0"/>
      </contour>
    </TTGlyph>
    <TTGlyph name="afii57929" xMin="58" yMin="560" xMax="166" yMax="781">
      <component glyphName="uni0313" x="424" y="0" flags="0x1004"/>
    </TTGlyph>
    <TTGlyph name="afii61352" xMin="79" yMin="0" xMax="881" yMax="696">
      <contour>
        <pt x="794" y="387" on="0"/>
        <pt x="680" y="387" on="0"/>
        <pt x="593" y="482" on="0"/>
        <pt x="593" y="602" on="0"/>
        <pt x="680" y="696" on="0"/>
        <pt x="794" y="696" on="0"/>
        <pt x="881" y="602" on="0"/>
        <pt x="881" y="482" on="0"/>
      </contour>
      <contour>
        <pt x="735" y="649" on="1"/>
        <pt x="697" y="649" on="0"/>
        <pt x="643" y="583" on="0"/>
        <pt x="643" y="499" on="0"/>
        <pt x="699" y="434" on="0"/>
        <pt x="775" y="434" on="0"/>
        <pt x="830" y="501" on="0"/>
        <pt x="830" y="585" on="0"/>
        <pt x="774" y="649" on="0"/>
      </contour>
      <contour>
        <pt x="881" y="285" on="1"/>
        <pt x="593" y="285" on="1"/>
        <pt x="593" y="336" on="1"/>
        <pt x="881" y="336" on="1"/>
      </contour>
      <contour>
        <pt x="79" y="0" on="1"/>
        <pt x="79" y="682" on="1"/>
        <pt x="154" y="682" on="1"/>
        <pt x="476" y="123" on="1"/>
        <pt x="476" y="682" on="1"/>
        <pt x="550" y="682" on="1"/>
        <pt x="550" y="0" on="1"/>
        <pt x="476" y="0" on="1"/>
        <pt x="154" y="557" on="1"/>
        <pt x="154" y="0" on="1"/>
      </contour>
    </TTGlyph>
    <TTGlyph name="agrave" xMin="34" yMin="-16" xMax="498" yMax="742">
      <component glyphName="uni02CB" x="45" y="0" flags="0x1004"/>
      <component glyphName="a" x="0" y="0" flags="0x1204"/>
    </TTGlyph>
    <TTGlyph name="alpha" xMin="35" yMin="-16" xMax="594" yMax="484">
      <contour>
        <pt x="474" y="468" on="1"/>
        <pt x="545" y="468" on="1"/>
        <pt x="483" y="252" on="1"/>
        <pt x="483" y="234" on="1"/>
        <pt x="483" y="120" on="0"/>
        <pt x="499" y="47" on="0"/>
        <pt x="524" y="47" on="1"/>
        <pt x="536" y="47" on="0"/>
        <pt x="554" y="62" on="1"/>
        <pt x="594" y="14" on="1"/>
        <pt x="580" y="2" on="0"/>
        <pt x="567" y="-7" on="0"/>
        <pt x="538" y="-16" on="0"/>
        <pt x="519" y="-16" on="1"/>
        <pt x="475" y="-16" on="0"/>
        <pt x="432" y="24" on="0"/>
        <pt x="423" y="83" on="1"/>
        <pt x="361" y="-16" on="0"/>
        <pt x="258" y="-16" on="1"/>
        <pt x="154" y="-16" on="0"/>
        <pt x="35" y="119" on="0"/>
        <pt x="35" y="234" on="1"/>
        <pt x="35" y="337" on="0"/>
        <pt x="165" y="484" on="0"/>
        <pt x="252" y="484" on="1"/>
        <pt x="312" y="484" on="0"/>
        <pt x="417" y="430" on="0"/>
        <pt x="448" y="377" on="1"/>
      </contour>
      <contour>
        <pt x="414" y="258" on="1"/>
        <pt x="407" y="334" on="0"/>
        <pt x="314" y="422" on="0"/>
        <pt x="252" y="422" on="1"/>
        <pt x="188" y="422" on="0"/>
        <pt x="103" y="313" on="0"/>
        <pt x="103" y="234" on="1"/>
        <pt x="103" y="147" on="0"/>
        <pt x="182" y="46" on="0"/>
        <pt x="256" y="46" on="1"/>
        <pt x="307" y="46" on="0"/>
        <pt x="378" y="132" on="0"/>
        <pt x="390" y="174" on="1"/>
      </contour>
    </TTGlyph>
    <TTGlyph name="alphatonos" xMin="35" yMin="-16" xMax="594" yMax="759">
      <component glyphName="tonos" x="176" y="-49" flags="0x1004"/>
      <component glyphName="alpha" x="0" y="0" flags="0x1204"/>
    </TTGlyph>
    <TTGlyph name="amacron" xMin="34" yMin="-16" xMax="498" yMax="631">
      <component glyphName="uni0304" x="594" y="0" flags="0x1004"/>
      <component glyphName="a" x="0" y="0" flags="0x1204"/>
    </TTGlyph>
    <TTGlyph name="ampersand" xMin="30" yMin="-12" xMax="522" yMax="693">
      <contour>
        <pt x="210" y="446" on="1"/>
        <pt x="283" y="524" on="0"/>
        <pt x="283" y="576" on="1"/>
        <pt x="283" y="596" on="0"/>
        <pt x="249" y="625" on="0"/>
        <pt x="232" y="625" on="1"/>
        <pt x="214" y="625" on="0"/>
        <pt x="170" y="590" on="0"/>
        <pt x="170" y="570" on="1"/>
        <pt x="170" y="510" on="0"/>
      </contour>
      <contour>
        <pt x="436" y="123" on="1"/>
        <pt x="522" y="0" on="1"/>
        <pt x="431" y="0" on="1"/>
        <pt x="389" y="60" on="1"/>
        <pt x="320" y="-12" on="0"/>
        <pt x="226" y="-12" on="1"/>
        <pt x="145" y="-12" on="0"/>
        <pt x="30" y="107" on="0"/>
        <pt x="30" y="191" on="1"/>
        <pt x="30" y="224" on="0"/>
        <pt x="71" y="299" on="0"/>
        <pt x="117" y="351" on="0"/>
        <pt x="157" y="391" on="1"/>
        <pt x="132" y="427" on="1"/>
        <pt x="94" y="481" on="0"/>
        <pt x="94" y="572" on="1"/>
        <pt x="94" y="627" on="0"/>
        <pt x="179" y="693" on="0"/>
        <pt x="232" y="693" on="1"/>
        <pt x="284" y="693" on="0"/>
        <pt x="359" y="633" on="0"/>
        <pt x="359" y="578" on="1"/>
        <pt x="359" y="499" on="0"/>
        <pt x="250" y="388" on="1"/>
        <pt x="386" y="194" on="1"/>
        <pt x="410" y="246" on="0"/>
        <pt x="427" y="319" on="1"/>
        <pt x="502" y="303" on="1"/>
        <pt x="483" y="203" on="0"/>
      </contour>
      <contour>
        <pt x="197" y="335" on="1"/>
        <pt x="152" y="289" on="0"/>
        <pt x="106" y="224" on="0"/>
        <pt x="106" y="193" on="1"/>
        <pt x="106" y="137" on="0"/>
        <pt x="176" y="57" on="0"/>
        <pt x="226" y="57" on="1"/>
        <pt x="291" y="57" on="0"/>
        <pt x="344" y="125" on="1"/>
      </contour>
    </TTGlyph>
    <TTGlyph name="anoteleia" xMin="56" yMin="199" xMax="164" yMax="308">
      <contour>
        <pt x="56" y="254" on="1"/>
        <pt x="56" y="276" on="0"/>
        <pt x="88" y="308" on="0"/>
        <pt x="132" y="308" on="0"/>
        <pt x="164" y="276" on="0"/>
        <pt x="164" y="254" on="1"/>
        <pt x="164" y="231" on="0"/>
        <pt x="132" y="199" on="0"/>
        <pt x="88" y="199" on="0"/>
        <pt x="56" y="231" on="0"/>
      </contour>
    </TTGlyph>
    <TTGlyph name="aogonek" xMin="34" yMin="-186" xMax="596" yMax="484">
      <contour>
        <pt x="432" y="-82" on="1"/>
        <pt x="432" y="-150" on="0"/>
        <pt x="535" y="-150" on="1"/>
        <pt x="565" y="-150" on="0"/>
        <pt x="589" y="-144" on="1"/>
        <pt x="596" y="-170" on="1"/>
        <pt x="538" y="-186" on="0"/>
        <pt x="492" y="-186" on="1"/>
        <pt x="435" y="-186" on="0"/>
        <pt x="366" y="-140" on="0"/>
        <pt x="366" y="-91" on="1"/>
        <pt x="366" y="-26" on="0"/>
        <pt x="430" y="5" on="1"/>
        <pt x="430" y="61" on="1"/>
        <pt x="359" y="-16" on="0"/>
        <pt x="268" y="-16" on="1"/>
        <pt x="179" y="-16" on="0"/>
        <pt x="34" y="133" on="0"/>
        <pt x="34" y="335" on="0"/>
        <pt x="177" y="484" on="0"/>
        <pt x="266" y="484" on="1"/>
        <pt x="358" y="484" on="0"/>
        <pt x="430" y="406" on="1"/>
        <pt x="430" y="468" on="1"/>
        <pt x="498" y="468" on="1"/>
        <pt x="498" y="0" on="1"/>
        <pt x="457" y="-13" on="0"/>
        <pt x="432" y="-46" on="0"/>
      </contour>
      <contour>
        <pt x="102" y="311" on="0"/>
        <pt x="102" y="157" on="0"/>
        <pt x="201" y="46" on="0"/>
        <pt x="331" y="46" on="0"/>
        <pt x="430" y="157" on="0"/>
        <pt x="430" y="311" on="0"/>
        <pt x="331" y="422" on="0"/>
        <pt x="201" y="422" on="0"/>
      </contour>
    </TTGlyph>
    <TTGlyph name="aring" xMin="34" yMin="-16" xMax="498" yMax="759">
      <component glyphName="uni030A" x="587" y="0" flags="0x1004"/>
      <component glyphName="a" x="0" y="0" flags="0x1204"/>
    </TTGlyph>
    <TTGlyph name="asciicircum" xMin="45" yMin="190" xMax="412" yMax="476">
      <contour>
        <pt x="229" y="476" on="1"/>
        <pt x="412" y="231" on="1"/>
        <pt x="355" y="190" on="1"/>
        <pt x="228" y="361" on="1"/>
        <pt x="100" y="190" on="1"/>
        <pt x="45" y="231" on="1"/>
      </contour>
    </TTGlyph>
    <TTGlyph name="asciitilde" xMin="52" yMin="255" xMax="462" yMax="385">
      <contour>
        <pt x="334" y="321" on="1"/>
        <pt x="362" y="321" on="0"/>
        <pt x="412" y="364" on="0"/>
        <pt x="416" y="385" on="1"/>
        <pt x="462" y="385" on="1"/>
        <pt x="457" y="340" on="0"/>
        <pt x="377" y="255" on="0"/>
        <pt x="334" y="255" on="1"/>
        <pt x="301" y="255" on="0"/>
        <pt x="196" y="318" on="0"/>
        <pt x="180" y="318" on="1"/>
        <pt x="152" y="318" on="0"/>
        <pt x="101" y="276" on="0"/>
        <pt x="97" y="255" on="1"/>
        <pt x="52" y="255" on="1"/>
        <pt x="57" y="300" on="0"/>
        <pt x="137" y="385" on="0"/>
        <pt x="180" y="385" on="1"/>
        <pt x="213" y="385" on="0"/>
        <pt x="318" y="321" on="0"/>
      </contour>
    </TTGlyph>
    <TTGlyph name="asterisk" xMin="46" yMin="444" xMax="302" yMax="689">
      <contour>
        <pt x="216" y="591" on="1"/>
        <pt x="302" y="591" on="1"/>
        <pt x="302" y="544" on="1"/>
        <pt x="215" y="544" on="1"/>
        <pt x="259" y="468" on="1"/>
        <pt x="218" y="444" on="1"/>
        <pt x="175" y="519" on="1"/>
        <pt x="131" y="444" on="1"/>
        <pt x="90" y="468" on="1"/>
        <pt x="134" y="544" on="1"/>
        <pt x="46" y="544" on="1"/>
        <pt x="46" y="591" on="1"/>
        <pt x="133" y="591" on="1"/>
        <pt x="90" y="666" on="1"/>
        <pt x="131" y="689" on="1"/>
        <pt x="175" y="614" on="1"/>
        <pt x="218" y="689" on="1"/>
        <pt x="259" y="666" on="1"/>
      </contour>
    </TTGlyph>
    <TTGlyph name="at" xMin="40" yMin="-146" xMax="717" yMax="695">
      <contour>
        <pt x="375" y="55" on="1"/>
        <pt x="297" y="55" on="0"/>
        <pt x="214" y="173" on="0"/>
        <pt x="214" y="278" on="1"/>
        <pt x="214" y="381" on="0"/>
        <pt x="296" y="496" on="0"/>
        <pt x="373" y="496" on="1"/>
        <pt x="429" y="496" on="0"/>
        <pt x="470" y="458" on="1"/>
        <pt x="470" y="479" on="1"/>
        <pt x="532" y="479" on="1"/>
        <pt x="532" y="187" on="1"/>
        <pt x="532" y="155" on="0"/>
        <pt x="566" y="124" on="0"/>
        <pt x="583" y="124" on="1"/>
        <pt x="614" y="124" on="0"/>
        <pt x="648" y="214" on="0"/>
        <pt x="648" y="287" on="1"/>
        <pt x="648" y="451" on="0"/>
        <pt x="513" y="633" on="0"/>
        <pt x="373" y="633" on="1"/>
        <pt x="280" y="633" on="0"/>
        <pt x="108" y="439" on="0"/>
        <pt x="108" y="312" on="1"/>
        <pt x="108" y="130" on="0"/>
        <pt x="270" y="-84" on="0"/>
        <pt x="409" y="-84" on="1"/>
        <pt x="471" y="-84" on="0"/>
        <pt x="541" y="-58" on="1"/>
        <pt x="568" y="-116" on="1"/>
        <pt x="486" y="-146" on="0"/>
        <pt x="409" y="-146" on="1"/>
        <pt x="244" y="-146" on="0"/>
        <pt x="40" y="102" on="0"/>
        <pt x="40" y="309" on="1"/>
        <pt x="40" y="386" on="0"/>
        <pt x="101" y="532" on="0"/>
        <pt x="196" y="634" on="0"/>
        <pt x="315" y="695" on="0"/>
        <pt x="373" y="695" on="1"/>
        <pt x="543" y="695" on="0"/>
        <pt x="717" y="469" on="0"/>
        <pt x="717" y="271" on="1"/>
        <pt x="717" y="184" on="0"/>
        <pt x="653" y="56" on="0"/>
        <pt x="583" y="56" on="1"/>
        <pt x="512" y="56" on="0"/>
        <pt x="485" y="109" on="1"/>
        <pt x="443" y="55" on="0"/>
      </contour>
      <contour>
        <pt x="470" y="275" on="1"/>
        <pt x="470" y="340" on="0"/>
        <pt x="417" y="434" on="0"/>
        <pt x="329" y="434" on="0"/>
        <pt x="275" y="340" on="0"/>
        <pt x="275" y="275" on="1"/>
        <pt x="275" y="208" on="0"/>
        <pt x="328" y="116" on="0"/>
        <pt x="373" y="116" on="1"/>
        <pt x="417" y="116" on="0"/>
        <pt x="470" y="207" on="0"/>
      </contour>
    </TTGlyph>
    <TTGlyph name="atilde" xMin="34" yMin="-16" xMax="498" yMax="697">
      <component glyphName="tildecomb" x="587" y="0" flags="0x1004"/>
      <component glyphName="a" x="0" y="0" flags="0x1204"/>
    </TTGlyph>
    <TTGlyph name="b" xMin="63" yMin="-16" xMax="527" yMax="726">
      <contour>
        <pt x="131" y="63" on="1"/>
        <pt x="131" y="0" on="1"/>
        <pt x="63" y="0" on="1"/>
        <pt x="63" y="726" on="1"/>
        <pt x="131" y="726" on="1"/>
        <pt x="131" y="406" on="1"/>
        <pt x="202" y="484" on="0"/>
        <pt x="295" y="484" on="1"/>
        <pt x="384" y="484" on="0"/>
        <pt x="527" y="335" on="0"/>
        <pt x="527" y="133" on="0"/>
        <pt x="385" y="-16" on="0"/>
        <pt x="297" y="-16" on="1"/>
        <pt x="204" y="-16" on="0"/>
      </contour>
      <contour>
        <pt x="131" y="311" on="0"/>
        <pt x="131" y="157" on="0"/>
        <pt x="230" y="46" on="0"/>
        <pt x="360" y="46" on="0"/>
        <pt x="459" y="157" on="0"/>
        <pt x="459" y="311" on="0"/>
        <pt x="360" y="422" on="0"/>
        <pt x="230" y="422" on="0"/>
      </contour>
    </TTGlyph>
    <TTGlyph name="backslash" xMin="33" yMin="0" xMax="343" yMax="682">
      <contour>
        <pt x="33" y="682" on="1"/>
        <pt x="95" y="682" on="1"/>
        <pt x="343" y="0" on="1"/>
        <pt x="281" y="0" on="1"/>
      </contour>
    </TTGlyph>
    <TTGlyph name="bar" xMin="66" yMin="-68" xMax="107" yMax="750">
      <contour>
        <pt x="66" y="-68" on="1"/>
        <pt x="66" y="750" on="1"/>
        <pt x="107" y="750" on="1"/>
        <pt x="107" y="-68" on="1"/>
      </contour>
    </TTGlyph>
    <TTGlyph name="beta" xMin="63" yMin="-201" xMax="505" yMax="744">
      <contour>
        <pt x="131" y="69" on="1"/>
        <pt x="131" y="-201" on="1"/>
        <pt x="63" y="-201" on="1"/>
        <pt x="63" y="438" on="1"/>
        <pt x="63" y="558" on="0"/>
        <pt x="107" y="693" on="0"/>
        <pt x="189" y="744" on="0"/>
        <pt x="259" y="744" on="1"/>
        <pt x="427" y="744" on="0"/>
        <pt x="427" y="586" on="1"/>
        <pt x="427" y="544" on="0"/>
        <pt x="376" y="467" on="0"/>
        <pt x="332" y="441" on="1"/>
        <pt x="409" y="408" on="0"/>
        <pt x="505" y="280" on="0"/>
        <pt x="505" y="202" on="1"/>
        <pt x="505" y="107" on="0"/>
        <pt x="406" y="-15" on="0"/>
        <pt x="302" y="-15" on="1"/>
        <pt x="199" y="-15" on="0"/>
      </contour>
      <contour>
        <pt x="202" y="468" on="1"/>
        <pt x="275" y="468" on="0"/>
        <pt x="358" y="542" on="0"/>
        <pt x="358" y="592" on="1"/>
        <pt x="358" y="638" on="0"/>
        <pt x="310" y="682" on="0"/>
        <pt x="259" y="682" on="1"/>
        <pt x="227" y="682" on="0"/>
        <pt x="184" y="664" on="0"/>
        <pt x="148" y="617" on="0"/>
        <pt x="131" y="525" on="0"/>
        <pt x="131" y="456" on="1"/>
        <pt x="131" y="202" on="1"/>
        <pt x="154" y="142" on="0"/>
        <pt x="238" y="47" on="0"/>
        <pt x="302" y="47" on="1"/>
        <pt x="365" y="47" on="0"/>
        <pt x="436" y="133" on="0"/>
        <pt x="436" y="203" on="1"/>
        <pt x="436" y="278" on="0"/>
        <pt x="297" y="406" on="0"/>
        <pt x="202" y="406" on="1"/>
      </contour>
    </TTGlyph>
    <TTGlyph name="braceleft" xMin="27" yMin="-81" xMax="213" yMax="697">
      <contour>
        <pt x="164" y="202" on="1"/>
        <pt x="164" y="168" on="0"/>
        <pt x="147" y="63" on="0"/>
        <pt x="147" y="46" on="1"/>
        <pt x="147" y="12" on="0"/>
        <pt x="189" y="-30" on="0"/>
        <pt x="213" y="-35" on="1"/>
        <pt x="213" y="-81" on="1"/>
        <pt x="159" y="-73" on="0"/>
        <pt x="75" y="-12" on="0"/>
        <pt x="75" y="47" on="1"/>
        <pt x="75" y="81" on="0"/>
        <pt x="92" y="186" on="0"/>
        <pt x="92" y="203" on="1"/>
        <pt x="92" y="230" on="0"/>
        <pt x="48" y="281" on="0"/>
        <pt x="27" y="285" on="1"/>
        <pt x="27" y="331" on="1"/>
        <pt x="49" y="335" on="0"/>
        <pt x="99" y="386" on="0"/>
        <pt x="99" y="413" on="1"/>
        <pt x="99" y="430" on="0"/>
        <pt x="75" y="535" on="0"/>
        <pt x="75" y="569" on="1"/>
        <pt x="75" y="628" on="0"/>
        <pt x="158" y="689" on="0"/>
        <pt x="212" y="697" on="1"/>
        <pt x="213" y="651" on="1"/>
        <pt x="190" y="646" on="0"/>
        <pt x="148" y="604" on="0"/>
        <pt x="148" y="570" on="1"/>
        <pt x="148" y="553" on="0"/>
        <pt x="165" y="448" on="0"/>
        <pt x="165" y="414" on="1"/>
        <pt x="165" y="344" on="0"/>
        <pt x="106" y="308" on="1"/>
        <pt x="164" y="273" on="0"/>
      </contour>
    </TTGlyph>
    <TTGlyph name="braceright" xMin="35" yMin="-81" xMax="221" yMax="697">
      <contour>
        <pt x="84" y="414" on="1"/>
        <pt x="84" y="448" on="0"/>
        <pt x="101" y="553" on="0"/>
        <pt x="101" y="570" on="1"/>
        <pt x="101" y="604" on="0"/>
        <pt x="59" y="646" on="0"/>
        <pt x="35" y="651" on="1"/>
        <pt x="35" y="697" on="1"/>
        <pt x="89" y="689" on="0"/>
        <pt x="173" y="628" on="0"/>
        <pt x="173" y="569" on="1"/>
        <pt x="173" y="535" on="0"/>
        <pt x="156" y="430" on="0"/>
        <pt x="156" y="413" on="1"/>
        <pt x="156" y="386" on="0"/>
        <pt x="200" y="335" on="0"/>
        <pt x="221" y="331" on="1"/>
        <pt x="221" y="285" on="1"/>
        <pt x="199" y="281" on="0"/>
        <pt x="149" y="230" on="0"/>
        <pt x="149" y="203" on="1"/>
        <pt x="149" y="186" on="0"/>
        <pt x="173" y="81" on="0"/>
        <pt x="173" y="47" on="1"/>
        <pt x="173" y="-12" on="0"/>
        <pt x="90" y="-73" on="0"/>
        <pt x="36" y="-81" on="1"/>
        <pt x="35" y="-35" on="1"/>
        <pt x="58" y="-30" on="0"/>
        <pt x="100" y="12" on="0"/>
        <pt x="100" y="46" on="1"/>
        <pt x="100" y="63" on="0"/>
        <pt x="83" y="168" on="0"/>
        <pt x="83" y="202" on="1"/>
        <pt x="83" y="272" on="0"/>
        <pt x="142" y="308" on="1"/>
        <pt x="84" y="343" on="0"/>
      </contour>
    </TTGlyph>
    <TTGlyph name="bracketleft" xMin="67" yMin="-39" xMax="239" yMax="721">
      <contour>
        <pt x="67" y="721" on="1"/>
        <pt x="239" y="721" on="1"/>
        <pt x="239" y="682" on="1"/>
        <pt x="142" y="682" on="1"/>
        <pt x="142" y="0" on="1"/>
        <pt x="239" y="0" on="1"/>
        <pt x="239" y="-39" on="1"/>
        <pt x="67" y="-39" on="1"/>
      </contour>
    </TTGlyph>
    <TTGlyph name="bracketright" xMin="20" yMin="-39" xMax="192" yMax="721">
      <contour>
        <pt x="192" y="-39" on="1"/>
        <pt x="20" y="-39" on="1"/>
        <pt x="20" y="0" on="1"/>
        <pt x="118" y="0" on="1"/>
        <pt x="118" y="682" on="1"/>
        <pt x="20" y="682" on="1"/>
        <pt x="20" y="721" on="1"/>
        <pt x="192" y="721" on="1"/>
      </contour>
    </TTGlyph>
    <TTGlyph name="brokenbar" xMin="69" yMin="-68" xMax="110" yMax="750">
      <contour>
        <pt x="69" y="389" on="1"/>
        <pt x="69" y="750" on="1"/>
        <pt x="110" y="750" on="1"/>
        <pt x="110" y="389" on="1"/>
      </contour>
      <contour>
        <pt x="69" y="-68" on="1"/>
        <pt x="69" y="293" on="1"/>
        <pt x="110" y="293" on="1"/>
        <pt x="110" y="-68" on="1"/>
      </contour>
    </TTGlyph>
    <TTGlyph name="bullet" xMin="42" yMin="113" xMax="288" yMax="359">
      <contour>
        <pt x="42" y="185" on="0"/>
        <pt x="42" y="287" on="0"/>
        <pt x="114" y="359" on="0"/>
        <pt x="216" y="359" on="0"/>
        <pt x="288" y="287" on="0"/>
        <pt x="288" y="185" on="0"/>
        <pt x="216" y="113" on="0"/>
        <pt x="114" y="113" on="0"/>
      </contour>
    </TTGlyph>
    <TTGlyph name="c" xMin="34" yMin="-16" xMax="454" yMax="484">
      <contour>
        <pt x="454" y="74" on="1"/>
        <pt x="418" y="29" on="0"/>
        <pt x="333" y="-16" on="0"/>
        <pt x="268" y="-16" on="1"/>
        <pt x="179" y="-16" on="0"/>
        <pt x="34" y="133" on="0"/>
        <pt x="34" y="335" on="0"/>
        <pt x="177" y="484" on="0"/>
        <pt x="266" y="484" on="1"/>
        <pt x="315" y="484" on="0"/>
        <pt x="409" y="433" on="0"/>
        <pt x="443" y="390" on="1"/>
        <pt x="393" y="351" on="1"/>
        <pt x="343" y="422" on="0"/>
        <pt x="266" y="422" on="1"/>
        <pt x="201" y="422" on="0"/>
        <pt x="102" y="311" on="0"/>
        <pt x="102" y="157" on="0"/>
        <pt x="201" y="46" on="0"/>
        <pt x="266" y="46" on="1"/>
        <pt x="318" y="46" on="0"/>
        <pt x="375" y="77" on="0"/>
        <pt x="401" y="111" on="1"/>
      </contour>
    </TTGlyph>
    <TTGlyph name="cacute" xMin="34" yMin="-16" xMax="454" yMax="742">
      <component glyphName="acutecomb" x="579" y="0" flags="0x1004"/>
      <component glyphName="c" x="0" y="0" flags="0x1204"/>
    </TTGlyph>
    <TTGlyph name="caron" xMin="58" yMin="567" xMax="329" yMax="725">
      <contour>
        <pt x="310" y="725" on="1"/>
        <pt x="329" y="691" on="1"/>
        <pt x="193" y="567" on="1"/>
        <pt x="58" y="691" on="1"/>
        <pt x="77" y="725" on="1"/>
        <pt x="193" y="648" on="1"/>
      </contour>
    </TTGlyph>
    <TTGlyph name="ccaron" xMin="34" yMin="-16" xMax="454" yMax="725">
      <component glyphName="uni030C" x="579" y="0" flags="0x1004"/>
      <component glyphName="c" x="0" y="0" flags="0x1204"/>
    </TTGlyph>
    <TTGlyph name="ccedilla" xMin="35" yMin="-200" xMax="455" yMax="484">
      <contour>
        <pt x="246" y="-15" on="1"/>
        <pt x="163" y="-5" on="0"/>
        <pt x="35" y="140" on="0"/>
        <pt x="35" y="234" on="1"/>
        <pt x="35" y="335" on="0"/>
        <pt x="178" y="484" on="0"/>
        <pt x="267" y="484" on="1"/>
        <pt x="316" y="484" on="0"/>
        <pt x="410" y="433" on="0"/>
        <pt x="444" y="390" on="1"/>
        <pt x="394" y="351" on="1"/>
        <pt x="344" y="422" on="0"/>
        <pt x="267" y="422" on="1"/>
        <pt x="202" y="422" on="0"/>
        <pt x="103" y="311" on="0"/>
        <pt x="103" y="157" on="0"/>
        <pt x="202" y="46" on="0"/>
        <pt x="267" y="46" on="1"/>
        <pt x="319" y="46" on="0"/>
        <pt x="376" y="77" on="0"/>
        <pt x="402" y="111" on="1"/>
        <pt x="455" y="74" on="1"/>
        <pt x="390" y="-8" on="0"/>
        <pt x="297" y="-15" on="1"/>
        <pt x="271" y="-68" on="1"/>
        <pt x="325" y="-68" on="0"/>
        <pt x="378" y="-104" on="0"/>
        <pt x="378" y="-125" on="1"/>
        <pt x="378" y="-200" on="0"/>
        <pt x="173" y="-200" on="1"/>
        <pt x="173" y="-173" on="1"/>
        <pt x="223" y="-173" on="0"/>
        <pt x="313" y="-150" on="0"/>
        <pt x="313" y="-131" on="1"/>
        <pt x="313" y="-121" on="0"/>
        <pt x="299" y="-110" on="0"/>
        <pt x="251" y="-103" on="0"/>
        <pt x="205" y="-103" on="1"/>
      </contour>
    </TTGlyph>
    <TTGlyph name="ccircumflex" xMin="34" yMin="-16" xMax="454" yMax="725">
      <component glyphName="uni0302" x="579" y="0" flags="0x1004"/>
      <component glyphName="c" x="0" y="0" flags="0x1204"/>
    </TTGlyph>
    <TTGlyph name="cdotaccent" xMin="34" yMin="-16" xMax="454" yMax="667">
      <component glyphName="uni0307" x="579" y="0" flags="0x1004"/>
      <component glyphName="c" x="0" y="0" flags="0x1204"/>
    </TTGlyph>
    <TTGlyph name="cedilla" xMin="58" yMin="-200" xMax="263" yMax="0">
      <contour>
        <pt x="138" y="0" on="1"/>
        <pt x="189" y="0" on="1"/>
        <pt x="156" y="-68" on="1"/>
        <pt x="210" y="-68" on="0"/>
        <pt x="263" y="-104" on="0"/>
        <pt x="263" y="-125" on="1"/>
        <pt x="263" y="-200" on="0"/>
        <pt x="58" y="-200" on="1"/>
        <pt x="58" y="-173" on="1"/>
        <pt x="108" y="-173" on="0"/>
        <pt x="198" y="-150" on="0"/>
        <pt x="198" y="-131" on="1"/>
        <pt x="198" y="-121" on="0"/>
        <pt x="184" y="-110" on="0"/>
        <pt x="136" y="-103" on="0"/>
        <pt x="90" y="-103" on="1"/>
      </contour>
    </TTGlyph>
    <TTGlyph name="cent" xMin="33" yMin="0" xMax="453" yMax="682">
      <contour>
        <pt x="235" y="682" on="1"/>
        <pt x="276" y="682" on="1"/>
        <pt x="276" y="583" on="1"/>
        <pt x="322" y="580" on="0"/>
        <pt x="410" y="529" on="0"/>
        <pt x="442" y="488" on="1"/>
        <pt x="392" y="449" on="1"/>
        <pt x="345" y="515" on="0"/>
        <pt x="276" y="521" on="1"/>
        <pt x="276" y="145" on="1"/>
        <pt x="323" y="146" on="0"/>
        <pt x="375" y="178" on="0"/>
        <pt x="400" y="210" on="1"/>
        <pt x="453" y="173" on="1"/>
        <pt x="418" y="129" on="0"/>
        <pt x="337" y="84" on="0"/>
        <pt x="276" y="83" on="1"/>
        <pt x="276" y="0" on="1"/>
        <pt x="235" y="0" on="1"/>
        <pt x="235" y="86" on="1"/>
        <pt x="154" y="100" on="0"/>
        <pt x="33" y="242" on="0"/>
        <pt x="33" y="333" on="1"/>
        <pt x="33" y="425" on="0"/>
        <pt x="154" y="568" on="0"/>
        <pt x="235" y="581" on="1"/>
      </contour>
      <contour>
        <pt x="235" y="148" on="1"/>
        <pt x="235" y="518" on="1"/>
        <pt x="179" y="505" on="0"/>
        <pt x="101" y="401" on="0"/>
        <pt x="101" y="265" on="0"/>
        <pt x="179" y="161" on="0"/>
      </contour>
    </TTGlyph>
    <TTGlyph name="chi" xMin="15" yMin="-200" xMax="405" yMax="468">
      <contour>
        <pt x="172" y="138" on="1"/>
        <pt x="18" y="468" on="1"/>
        <pt x="94" y="468" on="1"/>
        <pt x="210" y="218" on="1"/>
        <pt x="326" y="468" on="1"/>
        <pt x="402" y="468" on="1"/>
        <pt x="248" y="138" on="1"/>
        <pt x="405" y="-200" on="1"/>
        <pt x="330" y="-200" on="1"/>
        <pt x="210" y="57" on="1"/>
        <pt x="90" y="-200" on="1"/>
        <pt x="15" y="-200" on="1"/>
      </contour>
    </TTGlyph>
    <TTGlyph name="circumflex" xMin="59" yMin="567" xMax="330" yMax="725">
      <contour>
        <pt x="78" y="567" on="1"/>
        <pt x="59" y="601" on="1"/>
        <pt x="194" y="725" on="1"/>
        <pt x="330" y="601" on="1"/>
        <pt x="311" y="567" on="1"/>
        <pt x="194" y="644" on="1"/>
      </contour>
    </TTGlyph>
    <TTGlyph name="colon" xMin="56" yMin="-8" xMax="164" yMax="472">
      <contour>
        <pt x="56" y="24" on="0"/>
        <pt x="56" y="70" on="0"/>
        <pt x="88" y="101" on="0"/>
        <pt x="132" y="101" on="0"/>
        <pt x="164" y="70" on="0"/>
        <pt x="164" y="24" on="0"/>
        <pt x="132" y="-8" on="0"/>
        <pt x="88" y="-8" on="0"/>
      </contour>
      <contour>
        <pt x="56" y="418" on="1"/>
        <pt x="56" y="440" on="0"/>
        <pt x="88" y="472" on="0"/>
        <pt x="132" y="472" on="0"/>
        <pt x="164" y="440" on="0"/>
        <pt x="164" y="418" on="1"/>
        <pt x="164" y="395" on="0"/>
        <pt x="132" y="363" on="0"/>
        <pt x="88" y="363" on="0"/>
        <pt x="56" y="395" on="0"/>
      </contour>
    </TTGlyph>
    <TTGlyph name="comma" xMin="48" yMin="-121" xMax="156" yMax="101">
      <contour>
        <pt x="48" y="24" on="0"/>
        <pt x="48" y="70" on="0"/>
        <pt x="80" y="101" on="0"/>
        <pt x="124" y="101" on="0"/>
        <pt x="156" y="70" on="0"/>
        <pt x="156" y="47" on="1"/>
        <pt x="156" y="13" on="0"/>
        <pt x="137" y="-47" on="0"/>
        <pt x="111" y="-83" on="0"/>
        <pt x="85" y="-110" on="0"/>
        <pt x="76" y="-116" on="1"/>
        <pt x="66" y="-121" on="1"/>
        <pt x="49" y="-111" on="1"/>
        <pt x="87" y="-73" on="0"/>
        <pt x="102" y="-8" on="1"/>
        <pt x="80" y="-8" on="0"/>
      </contour>
    </TTGlyph>
    <TTGlyph name="copyright" xMin="45" yMin="-21" xMax="658" yMax="593">
      <contour>
        <pt x="487" y="178" on="1"/>
        <pt x="438" y="112" on="0"/>
        <pt x="356" y="112" on="1"/>
        <pt x="294" y="112" on="0"/>
        <pt x="196" y="214" on="0"/>
        <pt x="196" y="283" on="1"/>
        <pt x="196" y="354" on="0"/>
        <pt x="294" y="454" on="0"/>
        <pt x="355" y="454" on="1"/>
        <pt x="429" y="454" on="0"/>
        <pt x="480" y="386" on="1"/>
        <pt x="438" y="354" on="1"/>
        <pt x="435" y="357" on="1"/>
        <pt x="402" y="403" on="0"/>
        <pt x="355" y="403" on="1"/>
        <pt x="313" y="403" on="0"/>
        <pt x="251" y="331" on="0"/>
        <pt x="251" y="283" on="1"/>
        <pt x="251" y="233" on="0"/>
        <pt x="314" y="162" on="0"/>
        <pt x="355" y="162" on="1"/>
        <pt x="391" y="162" on="0"/>
        <pt x="426" y="184" on="0"/>
        <pt x="444" y="208" on="1"/>
      </contour>
      <contour>
        <pt x="45" y="286" on="1"/>
        <pt x="45" y="414" on="0"/>
        <pt x="225" y="593" on="0"/>
        <pt x="351" y="593" on="1"/>
        <pt x="479" y="593" on="0"/>
        <pt x="658" y="412" on="0"/>
        <pt x="658" y="286" on="1"/>
        <pt x="658" y="158" on="0"/>
        <pt x="477" y="-21" on="0"/>
        <pt x="351" y="-21" on="1"/>
        <pt x="224" y="-21" on="0"/>
        <pt x="45" y="160" on="0"/>
      </contour>
      <contour>
        <pt x="91" y="286" on="1"/>
        <pt x="91" y="177" on="0"/>
        <pt x="244" y="26" on="0"/>
        <pt x="351" y="26" on="1"/>
        <pt x="460" y="26" on="0"/>
        <pt x="611" y="179" on="0"/>
        <pt x="611" y="286" on="1"/>
        <pt x="611" y="395" on="0"/>
        <pt x="458" y="546" on="0"/>
        <pt x="351" y="546" on="1"/>
        <pt x="242" y="546" on="0"/>
        <pt x="91" y="393" on="0"/>
      </contour>
    </TTGlyph>
    <TTGlyph name="currency" xMin="51" yMin="91" xMax="459" yMax="499">
      <contour>
        <pt x="137" y="344" on="0"/>
        <pt x="137" y="246" on="0"/>
        <pt x="208" y="175" on="0"/>
        <pt x="306" y="175" on="0"/>
        <pt x="377" y="246" on="0"/>
        <pt x="377" y="344" on="0"/>
        <pt x="306" y="415" on="0"/>
        <pt x="208" y="415" on="0"/>
      </contour>
      <contour>
        <pt x="363" y="148" on="1"/>
        <pt x="317" y="114" on="0"/>
        <pt x="257" y="114" on="1"/>
        <pt x="195" y="114" on="0"/>
        <pt x="148" y="150" on="1"/>
        <pt x="89" y="91" on="1"/>
        <pt x="51" y="129" on="1"/>
        <pt x="110" y="189" on="1"/>
        <pt x="76" y="235" on="0"/>
        <pt x="76" y="355" on="0"/>
        <pt x="110" y="401" on="1"/>
        <pt x="51" y="461" on="1"/>
        <pt x="89" y="499" on="1"/>
        <pt x="149" y="440" on="1"/>
        <pt x="196" y="476" on="0"/>
        <pt x="257" y="476" on="1"/>
        <pt x="317" y="476" on="0"/>
        <pt x="363" y="442" on="1"/>
        <pt x="421" y="499" on="1"/>
        <pt x="459" y="461" on="1"/>
        <pt x="402" y="403" on="1"/>
        <pt x="437" y="355" on="0"/>
        <pt x="437" y="235" on="0"/>
        <pt x="402" y="187" on="1"/>
        <pt x="459" y="129" on="1"/>
        <pt x="421" y="91" on="1"/>
      </contour>
    </TTGlyph>
    <TTGlyph name="d" xMin="34" yMin="-16" xMax="498" yMax="726">
      <contour>
        <pt x="34" y="133" on="0"/>
        <pt x="34" y="335" on="0"/>
        <pt x="177" y="484" on="0"/>
        <pt x="266" y="484" on="1"/>
        <pt x="358" y="484" on="0"/>
        <pt x="430" y="406" on="1"/>
        <pt x="430" y="726" on="1"/>
        <pt x="498" y="726" on="1"/>
        <pt x="498" y="0" on="1"/>
        <pt x="430" y="0" on="1"/>
        <pt x="430" y="61" on="1"/>
        <pt x="359" y="-16" on="0"/>
        <pt x="268" y="-16" on="1"/>
        <pt x="179" y="-16" on="0"/>
      </contour>
      <contour>
        <pt x="102" y="311" on="0"/>
        <pt x="102" y="157" on="0"/>
        <pt x="201" y="46" on="0"/>
        <pt x="331" y="46" on="0"/>
        <pt x="430" y="157" on="0"/>
        <pt x="430" y="311" on="0"/>
        <pt x="331" y="422" on="0"/>
        <pt x="201" y="422" on="0"/>
      </contour>
    </TTGlyph>
    <TTGlyph name="dcaron" xMin="34" yMin="-16" xMax="648" yMax="734">
      <component glyphName="comma" x="492" y="633" flags="0x1004"/>
      <component glyphName="d" x="0" y="0" flags="0x1004"/>
    </TTGlyph>
    <TTGlyph name="dcroat" xMin="34" yMin="-16" xMax="551" yMax="726">
      <contour>
        <pt x="102" y="311" on="0"/>
        <pt x="102" y="157" on="0"/>
        <pt x="201" y="46" on="0"/>
        <pt x="331" y="46" on="0"/>
        <pt x="430" y="157" on="0"/>
        <pt x="430" y="311" on="0"/>
        <pt x="331" y="422" on="0"/>
        <pt x="201" y="422" on="0"/>
      </contour>
      <contour>
        <pt x="34" y="133" on="0"/>
        <pt x="34" y="335" on="0"/>
        <pt x="177" y="484" on="0"/>
        <pt x="266" y="484" on="1"/>
        <pt x="358" y="484" on="0"/>
        <pt x="430" y="406" on="1"/>
        <pt x="430" y="567" on="1"/>
        <pt x="289" y="567" on="1"/>
        <pt x="289" y="630" on="1"/>
        <pt x="430" y="630" on="1"/>
        <pt x="430" y="726" on="1"/>
        <pt x="498" y="726" on="1"/>
        <pt x="498" y="630" on="1"/>
        <pt x="551" y="630" on="1"/>
        <pt x="551" y="567" on="1"/>
        <pt x="498" y="567" on="1"/>
        <pt x="498" y="0" on="1"/>
        <pt x="430" y="0" on="1"/>
        <pt x="430" y="61" on="1"/>
        <pt x="359" y="-16" on="0"/>
        <pt x="268" y="-16" on="1"/>
        <pt x="179" y="-16" on="0"/>
      </contour>
    </TTGlyph>
    <TTGlyph name="degree" xMin="36" yMin="429" xMax="305" yMax="697">
      <contour>
        <pt x="36" y="562" on="1"/>
        <pt x="36" y="618" on="0"/>
        <pt x="115" y="697" on="0"/>
        <pt x="170" y="697" on="1"/>
        <pt x="226" y="697" on="0"/>
        <pt x="305" y="618" on="0"/>
        <pt x="305" y="562" on="1"/>
        <pt x="305" y="507" on="0"/>
        <pt x="226" y="429" on="0"/>
        <pt x="114" y="429" on="0"/>
        <pt x="36" y="507" on="0"/>
      </contour>
      <contour>
        <pt x="90" y="596" on="0"/>
        <pt x="90" y="528" on="0"/>
        <pt x="136" y="482" on="0"/>
        <pt x="204" y="482" on="0"/>
        <pt x="250" y="528" on="0"/>
        <pt x="250" y="596" on="0"/>
        <pt x="204" y="644" on="0"/>
        <pt x="136" y="644" on="0"/>
      </contour>
    </TTGlyph>
    <TTGlyph name="delta" xMin="35" yMin="-16" xMax="499" yMax="726">
      <contour>
        <pt x="103" y="311" on="0"/>
        <pt x="103" y="157" on="0"/>
        <pt x="202" y="46" on="0"/>
        <pt x="332" y="46" on="0"/>
        <pt x="431" y="157" on="0"/>
        <pt x="431" y="311" on="0"/>
        <pt x="332" y="422" on="0"/>
        <pt x="202" y="422" on="0"/>
      </contour>
      <contour>
        <pt x="271" y="726" on="1"/>
        <pt x="406" y="726" on="1"/>
        <pt x="406" y="664" on="1"/>
        <pt x="275" y="664" on="1"/>
        <pt x="200" y="664" on="0"/>
        <pt x="200" y="626" on="1"/>
        <pt x="200" y="602" on="0"/>
        <pt x="225" y="582" on="1"/>
        <pt x="412" y="424" on="1"/>
        <pt x="499" y="351" on="0"/>
        <pt x="499" y="234" on="1"/>
        <pt x="499" y="133" on="0"/>
        <pt x="357" y="-16" on="0"/>
        <pt x="269" y="-16" on="1"/>
        <pt x="180" y="-16" on="0"/>
        <pt x="35" y="133" on="0"/>
        <pt x="35" y="234" on="1"/>
        <pt x="35" y="326" on="0"/>
        <pt x="157" y="469" on="0"/>
        <pt x="238" y="482" on="1"/>
        <pt x="163" y="546" on="1"/>
        <pt x="121" y="582" on="0"/>
        <pt x="121" y="624" on="1"/>
        <pt x="121" y="669" on="0"/>
        <pt x="192" y="726" on="0"/>
      </contour>
    </TTGlyph>
    <TTGlyph name="dieresis" xMin="58" yMin="559" xMax="362" yMax="667">
      <contour>
        <pt x="253" y="590" on="0"/>
        <pt x="253" y="636" on="0"/>
        <pt x="284" y="667" on="0"/>
        <pt x="330" y="667" on="0"/>
        <pt x="362" y="635" on="0"/>
        <pt x="362" y="591" on="0"/>
        <pt x="330" y="559" on="0"/>
        <pt x="284" y="559" on="0"/>
      </contour>
      <contour>
        <pt x="58" y="590" on="0"/>
        <pt x="58" y="636" on="0"/>
        <pt x="90" y="667" on="0"/>
        <pt x="112" y="667" on="1"/>
        <pt x="135" y="667" on="0"/>
        <pt x="167" y="635" on="0"/>
        <pt x="167" y="591" on="0"/>
        <pt x="135" y="559" on="0"/>
        <pt x="112" y="559" on="1"/>
        <pt x="90" y="559" on="0"/>
      </contour>
    </TTGlyph>
    <TTGlyph name="dieresistonos" xMin="53" yMin="559" xMax="357" yMax="875">
      <contour>
        <pt x="175" y="686" on="1"/>
        <pt x="264" y="875" on="1"/>
        <pt x="325" y="846" on="1"/>
        <pt x="210" y="670" on="1"/>
      </contour>
      <contour>
        <pt x="248" y="590" on="0"/>
        <pt x="248" y="636" on="0"/>
        <pt x="280" y="667" on="0"/>
        <pt x="302" y="667" on="1"/>
        <pt x="325" y="667" on="0"/>
        <pt x="357" y="635" on="0"/>
        <pt x="357" y="591" on="0"/>
        <pt x="325" y="559" on="0"/>
        <pt x="302" y="559" on="1"/>
        <pt x="280" y="559" on="0"/>
      </contour>
      <contour>
        <pt x="53" y="590" on="0"/>
        <pt x="53" y="636" on="0"/>
        <pt x="84" y="667" on="0"/>
        <pt x="130" y="667" on="0"/>
        <pt x="162" y="635" on="0"/>
        <pt x="162" y="591" on="0"/>
        <pt x="130" y="559" on="0"/>
        <pt x="84" y="559" on="0"/>
      </contour>
    </TTGlyph>
    <TTGlyph name="divide" xMin="53" yMin="21" xMax="393" yMax="442">
      <contour>
        <pt x="166" y="76" on="1"/>
        <pt x="166" y="98" on="0"/>
        <pt x="198" y="130" on="0"/>
        <pt x="220" y="130" on="1"/>
        <pt x="243" y="130" on="0"/>
        <pt x="275" y="98" on="0"/>
        <pt x="275" y="54" on="0"/>
        <pt x="242" y="21" on="0"/>
        <pt x="198" y="21" on="0"/>
        <pt x="166" y="53" on="0"/>
      </contour>
      <contour>
        <pt x="166" y="389" on="1"/>
        <pt x="166" y="411" on="0"/>
        <pt x="197" y="442" on="0"/>
        <pt x="243" y="442" on="0"/>
        <pt x="275" y="411" on="0"/>
        <pt x="275" y="389" on="1"/>
        <pt x="275" y="366" on="0"/>
        <pt x="242" y="334" on="0"/>
        <pt x="198" y="334" on="0"/>
        <pt x="166" y="366" on="0"/>
      </contour>
      <contour>
        <pt x="53" y="268" on="1"/>
        <pt x="393" y="268" on="1"/>
        <pt x="393" y="213" on="1"/>
        <pt x="53" y="213" on="1"/>
      </contour>
    </TTGlyph>
    <TTGlyph name="dollar" xMin="35" yMin="0" xMax="438" yMax="682">
      <contour>
        <pt x="214" y="682" on="1"/>
        <pt x="255" y="682" on="1"/>
        <pt x="255" y="583" on="1"/>
        <pt x="379" y="578" on="0"/>
        <pt x="423" y="473" on="1"/>
        <pt x="362" y="442" on="1"/>
        <pt x="332" y="516" on="0"/>
        <pt x="255" y="520" on="1"/>
        <pt x="255" y="367" on="1"/>
        <pt x="292" y="361" on="0"/>
        <pt x="345" y="345" on="0"/>
        <pt x="406" y="315" on="0"/>
        <pt x="438" y="264" on="0"/>
        <pt x="438" y="230" on="1"/>
        <pt x="438" y="168" on="0"/>
        <pt x="334" y="90" on="0"/>
        <pt x="255" y="84" on="1"/>
        <pt x="255" y="0" on="1"/>
        <pt x="214" y="0" on="1"/>
        <pt x="214" y="83" on="1"/>
        <pt x="152" y="85" on="0"/>
        <pt x="56" y="143" on="0"/>
        <pt x="35" y="193" on="1"/>
        <pt x="96" y="224" on="1"/>
        <pt x="109" y="191" on="0"/>
        <pt x="171" y="149" on="0"/>
        <pt x="214" y="146" on="1"/>
        <pt x="214" y="306" on="1"/>
        <pt x="188" y="311" on="0"/>
        <pt x="151" y="321" on="0"/>
        <pt x="102" y="342" on="0"/>
        <pt x="71" y="367" on="0"/>
        <pt x="49" y="410" on="0"/>
        <pt x="49" y="436" on="1"/>
        <pt x="49" y="498" on="0"/>
        <pt x="139" y="575" on="0"/>
        <pt x="214" y="582" on="1"/>
      </contour>
      <contour>
        <pt x="214" y="374" on="1"/>
        <pt x="214" y="519" on="1"/>
        <pt x="167" y="513" on="0"/>
        <pt x="118" y="469" on="0"/>
        <pt x="118" y="436" on="1"/>
        <pt x="118" y="408" on="0"/>
        <pt x="169" y="381" on="0"/>
      </contour>
      <contour>
        <pt x="255" y="298" on="1"/>
        <pt x="255" y="147" on="1"/>
        <pt x="307" y="152" on="0"/>
        <pt x="370" y="198" on="0"/>
        <pt x="370" y="230" on="1"/>
        <pt x="370" y="242" on="0"/>
        <pt x="362" y="261" on="0"/>
        <pt x="339" y="275" on="0"/>
        <pt x="326" y="283" on="0"/>
        <pt x="287" y="292" on="0"/>
        <pt x="277" y="294" on="0"/>
      </contour>
    </TTGlyph>
    <TTGlyph name="dotaccent" xMin="58" yMin="559" xMax="166" yMax="667">
      <contour>
        <pt x="58" y="590" on="0"/>
        <pt x="58" y="636" on="0"/>
        <pt x="89" y="667" on="0"/>
        <pt x="111" y="667" on="1"/>
        <pt x="134" y="667" on="0"/>
        <pt x="166" y="635" on="0"/>
        <pt x="166" y="591" on="0"/>
        <pt x="134" y="559" on="0"/>
        <pt x="111" y="559" on="1"/>
        <pt x="89" y="559" on="0"/>
      </contour>
    </TTGlyph>
    <TTGlyph name="dotbelowcomb" xMin="-365" yMin="-183" xMax="-257" yMax="-75">
      <component glyphName="uni0307" x="0" y="-742" flags="0x1004"/>
    </TTGlyph>
    <TTGlyph name="dotlessi" xMin="63" yMin="0" xMax="131" yMax="468">
      <contour>
        <pt x="63" y="0" on="1"/>
        <pt x="63" y="468" on="1"/>
        <pt x="131" y="468" on="1"/>
        <pt x="131" y="0" on="1"/>
      </contour>
    </TTGlyph>
    <TTGlyph name="e" xMin="34" yMin="-16" xMax="498" yMax="484">
      <contour>
        <pt x="102" y="234" on="1"/>
        <pt x="102" y="157" on="0"/>
        <pt x="201" y="46" on="0"/>
        <pt x="266" y="46" on="1"/>
        <pt x="338" y="46" on="0"/>
        <pt x="403" y="86" on="0"/>
        <pt x="429" y="131" on="1"/>
        <pt x="483" y="95" on="1"/>
        <pt x="446" y="39" on="0"/>
        <pt x="352" y="-16" on="0"/>
        <pt x="268" y="-16" on="1"/>
        <pt x="179" y="-16" on="0"/>
        <pt x="34" y="133" on="0"/>
        <pt x="34" y="335" on="0"/>
        <pt x="177" y="484" on="0"/>
        <pt x="355" y="484" on="0"/>
        <pt x="498" y="335" on="0"/>
        <pt x="498" y="234" on="1"/>
      </contour>
      <contour>
        <pt x="112" y="296" on="1"/>
        <pt x="420" y="296" on="1"/>
        <pt x="403" y="351" on="0"/>
        <pt x="317" y="422" on="0"/>
        <pt x="215" y="422" on="0"/>
        <pt x="129" y="351" on="0"/>
      </contour>
    </TTGlyph>
    <TTGlyph name="eacute" xMin="34" yMin="-16" xMax="498" yMax="742">
      <component glyphName="acutecomb" x="577" y="0" flags="0x1004"/>
      <component glyphName="e" x="0" y="0" flags="0x1204"/>
    </TTGlyph>
    <TTGlyph name="ebreve" xMin="34" yMin="-16" xMax="498" yMax="698">
      <component glyphName="uni0306" x="577" y="0" flags="0x1004"/>
      <component glyphName="e" x="0" y="0" flags="0x1204"/>
    </TTGlyph>
    <TTGlyph name="ecaron" xMin="34" yMin="-16" xMax="498" yMax="725">
      <component glyphName="uni030C" x="577" y="0" flags="0x1004"/>
      <component glyphName="e" x="0" y="0" flags="0x1204"/>
    </TTGlyph>
    <TTGlyph name="ecircumflex" xMin="34" yMin="-16" xMax="498" yMax="725">
      <component glyphName="uni0302" x="577" y="0" flags="0x1004"/>
      <component glyphName="e" x="0" y="0" flags="0x1204"/>
    </TTGlyph>
    <TTGlyph name="edieresis" xMin="34" yMin="-16" xMax="498" yMax="667">
      <component glyphName="uni0308" x="577" y="0" flags="0x1004"/>
      <component glyphName="e" x="0" y="0" flags="0x1204"/>
    </TTGlyph>
    <TTGlyph name="edotaccent" xMin="34" yMin="-16" xMax="498" yMax="667">
      <component glyphName="uni0307" x="577" y="0" flags="0x1004"/>
      <component glyphName="e" x="0" y="0" flags="0x1204"/>
    </TTGlyph>
    <TTGlyph name="egrave" xMin="34" yMin="-16" xMax="498" yMax="742">
      <component glyphName="gravecomb" x="577" y="0" flags="0x1004"/>
      <component glyphName="e" x="0" y="0" flags="0x1204"/>
    </TTGlyph>
    <TTGlyph name="eight" xMin="39" yMin="-16" xMax="503" yMax="697">
      <contour>
        <pt x="111" y="268" on="0"/>
        <pt x="111" y="122" on="0"/>
        <pt x="201" y="51" on="0"/>
        <pt x="341" y="51" on="0"/>
        <pt x="430" y="121" on="0"/>
        <pt x="430" y="269" on="0"/>
        <pt x="341" y="339" on="0"/>
        <pt x="201" y="339" on="0"/>
      </contour>
      <contour>
        <pt x="68" y="519" on="1"/>
        <pt x="68" y="604" on="0"/>
        <pt x="191" y="697" on="0"/>
        <pt x="351" y="697" on="0"/>
        <pt x="474" y="604" on="0"/>
        <pt x="474" y="519" on="1"/>
        <pt x="474" y="425" on="0"/>
        <pt x="396" y="375" on="1"/>
        <pt x="503" y="316" on="0"/>
        <pt x="503" y="195" on="1"/>
        <pt x="503" y="97" on="0"/>
        <pt x="365" y="-16" on="0"/>
        <pt x="179" y="-16" on="0"/>
        <pt x="39" y="97" on="0"/>
        <pt x="39" y="195" on="1"/>
        <pt x="39" y="316" on="0"/>
        <pt x="146" y="375" on="1"/>
        <pt x="68" y="425" on="0"/>
      </contour>
      <contour>
        <pt x="213" y="406" on="0"/>
        <pt x="329" y="406" on="0"/>
        <pt x="400" y="461" on="0"/>
        <pt x="400" y="519" on="1"/>
        <pt x="400" y="576" on="0"/>
        <pt x="329" y="630" on="0"/>
        <pt x="271" y="630" on="1"/>
        <pt x="212" y="630" on="0"/>
        <pt x="141" y="576" on="0"/>
        <pt x="141" y="519" on="1"/>
        <pt x="141" y="463" on="0"/>
      </contour>
    </TTGlyph>
    <TTGlyph name="ellipsis" xMin="48" yMin="-8" xMax="547" yMax="101">
      <contour>
        <pt x="48" y="24" on="0"/>
        <pt x="48" y="70" on="0"/>
        <pt x="80" y="101" on="0"/>
        <pt x="124" y="101" on="0"/>
        <pt x="156" y="70" on="0"/>
        <pt x="156" y="24" on="0"/>
        <pt x="124" y="-8" on="0"/>
        <pt x="80" y="-8" on="0"/>
      </contour>
      <contour>
        <pt x="243" y="24" on="0"/>
        <pt x="243" y="70" on="0"/>
        <pt x="274" y="101" on="0"/>
        <pt x="320" y="101" on="0"/>
        <pt x="351" y="70" on="0"/>
        <pt x="351" y="24" on="0"/>
        <pt x="319" y="-8" on="0"/>
        <pt x="275" y="-8" on="0"/>
      </contour>
      <contour>
        <pt x="439" y="24" on="0"/>
        <pt x="439" y="70" on="0"/>
        <pt x="470" y="101" on="0"/>
        <pt x="516" y="101" on="0"/>
        <pt x="547" y="70" on="0"/>
        <pt x="547" y="24" on="0"/>
        <pt x="515" y="-8" on="0"/>
        <pt x="471" y="-8" on="0"/>
      </contour>
    </TTGlyph>
    <TTGlyph name="emacron" xMin="34" yMin="-16" xMax="498" yMax="631">
      <component glyphName="uni0304" x="584" y="0" flags="0x1004"/>
      <component glyphName="e" x="0" y="0" flags="0x1204"/>
    </TTGlyph>
    <TTGlyph name="emdash" xMin="56" yMin="213" xMax="667" yMax="268">
      <contour>
        <pt x="56" y="268" on="1"/>
        <pt x="667" y="268" on="1"/>
        <pt x="667" y="213" on="1"/>
        <pt x="56" y="213" on="1"/>
      </contour>
    </TTGlyph>
    <TTGlyph name="endash" xMin="56" yMin="213" xMax="472" yMax="268">
      <contour>
        <pt x="56" y="268" on="1"/>
        <pt x="472" y="268" on="1"/>
        <pt x="472" y="213" on="1"/>
        <pt x="56" y="213" on="1"/>
      </contour>
    </TTGlyph>
    <TTGlyph name="eng" xMin="63" yMin="-170" xMax="477" yMax="484">
      <contour>
        <pt x="477" y="-21" on="1"/>
        <pt x="477" y="-83" on="0"/>
        <pt x="390" y="-170" on="0"/>
        <pt x="329" y="-170" on="1"/>
        <pt x="249" y="-170" on="1"/>
        <pt x="249" y="-107" on="1"/>
        <pt x="329" y="-107" on="1"/>
        <pt x="363" y="-107" on="0"/>
        <pt x="409" y="-56" on="0"/>
        <pt x="409" y="-21" on="1"/>
        <pt x="409" y="296" on="1"/>
        <pt x="409" y="349" on="0"/>
        <pt x="333" y="422" on="0"/>
        <pt x="207" y="422" on="0"/>
        <pt x="131" y="314" on="0"/>
        <pt x="131" y="234" on="1"/>
        <pt x="131" y="0" on="1"/>
        <pt x="63" y="0" on="1"/>
        <pt x="63" y="468" on="1"/>
        <pt x="131" y="468" on="1"/>
        <pt x="131" y="425" on="1"/>
        <pt x="188" y="484" on="0"/>
        <pt x="270" y="484" on="1"/>
        <pt x="359" y="484" on="0"/>
        <pt x="477" y="383" on="0"/>
        <pt x="477" y="296" on="1"/>
      </contour>
    </TTGlyph>
    <TTGlyph name="eogonek" xMin="35" yMin="-186" xMax="499" yMax="484">
      <contour>
        <pt x="284" y="-82" on="1"/>
        <pt x="284" y="-150" on="0"/>
        <pt x="387" y="-150" on="1"/>
        <pt x="417" y="-150" on="0"/>
        <pt x="441" y="-144" on="1"/>
        <pt x="448" y="-170" on="1"/>
        <pt x="390" y="-186" on="0"/>
        <pt x="344" y="-186" on="1"/>
        <pt x="287" y="-186" on="0"/>
        <pt x="218" y="-140" on="0"/>
        <pt x="218" y="-91" on="1"/>
        <pt x="218" y="-44" on="0"/>
        <pt x="251" y="-15" on="1"/>
        <pt x="167" y="-6" on="0"/>
        <pt x="35" y="138" on="0"/>
        <pt x="35" y="234" on="1"/>
        <pt x="35" y="335" on="0"/>
        <pt x="178" y="484" on="0"/>
        <pt x="356" y="484" on="0"/>
        <pt x="499" y="335" on="0"/>
        <pt x="499" y="234" on="1"/>
        <pt x="103" y="234" on="1"/>
        <pt x="103" y="157" on="0"/>
        <pt x="202" y="46" on="0"/>
        <pt x="267" y="46" on="1"/>
        <pt x="339" y="46" on="0"/>
        <pt x="404" y="86" on="0"/>
        <pt x="430" y="131" on="1"/>
        <pt x="484" y="95" on="1"/>
        <pt x="452" y="47" on="0"/>
        <pt x="377" y="-6" on="0"/>
        <pt x="316" y="-13" on="1"/>
        <pt x="297" y="-24" on="0"/>
        <pt x="284" y="-54" on="0"/>
      </contour>
      <contour>
        <pt x="113" y="296" on="1"/>
        <pt x="421" y="296" on="1"/>
        <pt x="404" y="351" on="0"/>
        <pt x="318" y="422" on="0"/>
        <pt x="216" y="422" on="0"/>
        <pt x="130" y="351" on="0"/>
      </contour>
    </TTGlyph>
    <TTGlyph name="epsilon" xMin="33" yMin="-10" xMax="405" yMax="478">
      <contour>
        <pt x="249" y="222" on="1"/>
        <pt x="109" y="222" on="0"/>
        <pt x="109" y="134" on="1"/>
        <pt x="109" y="99" on="0"/>
        <pt x="172" y="52" on="0"/>
        <pt x="215" y="52" on="1"/>
        <pt x="295" y="52" on="0"/>
        <pt x="361" y="118" on="1"/>
        <pt x="405" y="74" on="1"/>
        <pt x="378" y="47" on="0"/>
        <pt x="345" y="20" on="0"/>
        <pt x="264" y="-10" on="0"/>
        <pt x="213" y="-10" on="1"/>
        <pt x="143" y="-10" on="0"/>
        <pt x="33" y="68" on="0"/>
        <pt x="33" y="134" on="1"/>
        <pt x="33" y="220" on="0"/>
        <pt x="125" y="260" on="1"/>
        <pt x="71" y="293" on="0"/>
        <pt x="71" y="345" on="1"/>
        <pt x="71" y="407" on="0"/>
        <pt x="156" y="478" on="0"/>
        <pt x="225" y="478" on="1"/>
        <pt x="245" y="478" on="0"/>
        <pt x="282" y="468" on="0"/>
        <pt x="303" y="461" on="0"/>
        <pt x="336" y="431" on="0"/>
        <pt x="343" y="425" on="0"/>
        <pt x="360" y="404" on="1"/>
        <pt x="378" y="382" on="1"/>
        <pt x="331" y="342" on="1"/>
        <pt x="270" y="416" on="0"/>
        <pt x="225" y="416" on="1"/>
        <pt x="185" y="416" on="0"/>
        <pt x="147" y="383" on="0"/>
        <pt x="147" y="345" on="1"/>
        <pt x="147" y="292" on="0"/>
        <pt x="249" y="284" on="1"/>
      </contour>
    </TTGlyph>
    <TTGlyph name="epsilontonos" xMin="33" yMin="-10" xMax="405" yMax="759">
      <component glyphName="tonos" x="137" y="-49" flags="0x1004"/>
      <component glyphName="epsilon" x="0" y="0" flags="0x1204"/>
    </TTGlyph>
    <TTGlyph name="equal" xMin="65" yMin="158" xMax="334" yMax="322">
      <contour>
        <pt x="65" y="322" on="1"/>
        <pt x="334" y="322" on="1"/>
        <pt x="334" y="268" on="1"/>
        <pt x="65" y="268" on="1"/>
      </contour>
      <contour>
        <pt x="65" y="213" on="1"/>
        <pt x="334" y="213" on="1"/>
        <pt x="334" y="158" on="1"/>
        <pt x="65" y="158" on="1"/>
      </contour>
    </TTGlyph>
    <TTGlyph name="eta" xMin="63" yMin="-200" xMax="477" yMax="484">
      <contour>
        <pt x="409" y="-200" on="1"/>
        <pt x="409" y="296" on="1"/>
        <pt x="409" y="349" on="0"/>
        <pt x="333" y="422" on="0"/>
        <pt x="207" y="422" on="0"/>
        <pt x="131" y="314" on="0"/>
        <pt x="131" y="234" on="1"/>
        <pt x="131" y="0" on="1"/>
        <pt x="63" y="0" on="1"/>
        <pt x="63" y="468" on="1"/>
        <pt x="131" y="468" on="1"/>
        <pt x="131" y="425" on="1"/>
        <pt x="188" y="484" on="0"/>
        <pt x="270" y="484" on="1"/>
        <pt x="359" y="484" on="0"/>
        <pt x="477" y="383" on="0"/>
        <pt x="477" y="296" on="1"/>
        <pt x="477" y="-200" on="1"/>
      </contour>
    </TTGlyph>
    <TTGlyph name="etatonos" xMin="63" yMin="-200" xMax="477" yMax="759">
      <component glyphName="tonos" x="188" y="-49" flags="0x1004"/>
      <component glyphName="eta" x="0" y="0" flags="0x1204"/>
    </TTGlyph>
    <TTGlyph name="eth" xMin="34" yMin="-16" xMax="498" yMax="742">
      <contour>
        <pt x="34" y="133" on="0"/>
        <pt x="34" y="335" on="0"/>
        <pt x="177" y="484" on="0"/>
        <pt x="266" y="484" on="1"/>
        <pt x="337" y="484" on="0"/>
        <pt x="402" y="432" on="1"/>
        <pt x="372" y="505" on="0"/>
        <pt x="277" y="589" on="1"/>
        <pt x="225" y="519" on="1"/>
        <pt x="179" y="553" on="1"/>
        <pt x="235" y="625" on="1"/>
        <pt x="209" y="646" on="0"/>
        <pt x="161" y="680" on="1"/>
        <pt x="203" y="735" on="1"/>
        <pt x="275" y="679" on="1"/>
        <pt x="323" y="742" on="1"/>
        <pt x="368" y="708" on="1"/>
        <pt x="318" y="643" on="1"/>
        <pt x="406" y="564" on="0"/>
        <pt x="498" y="376" on="0"/>
        <pt x="498" y="234" on="1"/>
        <pt x="498" y="133" on="0"/>
        <pt x="356" y="-16" on="0"/>
        <pt x="268" y="-16" on="1"/>
        <pt x="179" y="-16" on="0"/>
      </contour>
      <contour>
        <pt x="101" y="311" on="0"/>
        <pt x="101" y="157" on="0"/>
        <pt x="201" y="46" on="0"/>
        <pt x="331" y="46" on="0"/>
        <pt x="430" y="157" on="0"/>
        <pt x="430" y="311" on="0"/>
        <pt x="331" y="421" on="0"/>
        <pt x="201" y="421" on="0"/>
      </contour>
    </TTGlyph>
    <TTGlyph name="exclam" xMin="63" yMin="-8" xMax="171" yMax="682">
      <contour>
        <pt x="63" y="24" on="0"/>
        <pt x="63" y="70" on="0"/>
        <pt x="94" y="101" on="0"/>
        <pt x="140" y="101" on="0"/>
        <pt x="171" y="70" on="0"/>
        <pt x="171" y="24" on="0"/>
        <pt x="139" y="-8" on="0"/>
        <pt x="95" y="-8" on="0"/>
      </contour>
      <contour>
        <pt x="82" y="166" on="1"/>
        <pt x="82" y="682" on="1"/>
        <pt x="150" y="682" on="1"/>
        <pt x="150" y="166" on="1"/>
      </contour>
    </TTGlyph>
    <TTGlyph name="exclamdown" xMin="60" yMin="-105" xMax="168" yMax="584">
      <contour>
        <pt x="168" y="552" on="0"/>
        <pt x="168" y="506" on="0"/>
        <pt x="138" y="476" on="0"/>
        <pt x="92" y="476" on="0"/>
        <pt x="60" y="507" on="0"/>
        <pt x="60" y="529" on="1"/>
        <pt x="60" y="552" on="0"/>
        <pt x="92" y="584" on="0"/>
        <pt x="115" y="584" on="1"/>
        <pt x="137" y="584" on="0"/>
      </contour>
      <contour>
        <pt x="150" y="410" on="1"/>
        <pt x="150" y="-105" on="1"/>
        <pt x="82" y="-105" on="1"/>
        <pt x="82" y="410" on="1"/>
      </contour>
    </TTGlyph>
</ttFont>
